<svg version="1.1" xmlns="http://www.w3.org/2000/svg" xmlns:xlink="http://www.w3.org/1999/xlink" width="141.67634" height="288.52914" viewBox="0,0,141.67634,288.52914"><defs><linearGradient x1="91.54166" y1="204.75" x2="216.54166" y2="204.75" gradientUnits="userSpaceOnUse" id="color-1"><stop offset="0" stop-color="#fff400"/><stop offset="1" stop-color="#00e9ff"/></linearGradient></defs><g transform="translate(-85.54166,-33.61754)"><g data-paper-data="{&quot;isPaintingLayer&quot;:true}" fill-rule="nonzero" stroke-linejoin="miter" stroke-miterlimit="10" stroke-dasharray="" stroke-dashoffset="0" style="mix-blend-mode: normal"><path d="M85.54166,322.14668v-247.38192h141.67634v247.38192z" fill="#dadada" stroke="none" stroke-width="0" stroke-linecap="butt"/><path d="M110.51183,79.23628c0,-24.78032 20.08841,-44.86874 44.86874,-44.86874c24.78032,0 44.86874,20.08842 44.86874,44.86874c0,24.78032 -20.08841,44.86873 -44.86873,44.86873c-24.78032,0 -44.86873,-20.08841 -44.86873,-44.86873z" fill="#2cff00" stroke="#000000" stroke-width="1.5" stroke-linecap="butt"/><path d="M119.10371,79.23628c0,-20.03515 16.2417,-36.27685 36.27685,-36.27685c20.03515,0 36.27685,16.2417 36.27685,36.27685c0,20.03515 -16.2417,36.27685 -36.27685,36.27685c-20.03515,0 -36.27685,-16.2417 -36.27685,-36.27685z" fill="#1b9d00" stroke="#000000" stroke-width="1.5" stroke-linecap="butt"/><path d="M130.08224,79.23628c0,-13.97188 11.32645,-25.29833 25.29833,-25.29833c13.97188,0 25.29833,11.32645 25.29833,25.29833c0,13.97188 -11.32645,25.29833 -25.29833,25.29833c-13.97188,0 -25.29833,-11.32645 -25.29833,-25.29833z" fill="#1f009e" stroke="#000000" stroke-width="1.5" stroke-linecap="butt"/><path d="M139.15145,79.23628c0,-8.96309 7.26603,-16.22912 16.22912,-16.22912c8.96309,0 16.22912,7.26603 16.22912,16.22912c0,8.96309 -7.26602,16.22912 -16.22912,16.22912c-8.96309,0 -16.22912,-7.26602 -16.22912,-16.22912z" fill="#9e007c" stroke="#000000" stroke-width="1.5" stroke-linecap="butt"/><text transform="translate(87.69469,145.39299) scale(0.5887,0.5887)" font-size="40" xml:space="preserve" fill="#000000" fill-rule="nonzero" stroke="none" stroke-width="1" stroke-linecap="butt" stroke-linejoin="miter" stroke-miterlimit="10" stroke-dasharray="" stroke-dashoffset="0" font-family="&quot;RifficFree-Bold&quot;, Sans Serif" font-weight="normal" text-anchor="start" style="mix-blend-mode: normal"><tspan x="0" dy="0">Xin Xin McK</tspan></text><path d="M164.26973,167.32282c0,-9.76995 7.92011,-17.69005 17.69006,-17.69005c9.76995,0 17.69006,7.92011 17.69006,17.69006c0,9.76995 -7.92011,17.69006 -17.69006,17.69006c-9.76995,0 -17.69006,-7.92011 -17.69006,-17.69006z" fill="#07ff00" stroke="#000000" stroke-width="1.5" stroke-linecap="butt"/><path d="M114.26973,168.49241c0,-9.76995 7.92011,-17.69005 17.69006,-17.69005c9.76995,0 17.69006,7.92011 17.69006,17.69006c0,9.76995 -7.92011,17.69006 -17.69006,17.69006c-9.76995,0 -17.69006,-7.92011 -17.69006,-17.69006z" fill="#fff400" stroke="#000000" stroke-width="1.5" stroke-linecap="butt"/><path d="M122.37551,158.94015c0,-0.5 0.5,-0.5 0.5,-0.5c1.6237,0 3.39728,0 5.02098,0c5.32075,0 10.64148,0 15.96223,0c0,0 0.5,0 0.5,0.5c0,0.5 -0.5,0.5 -0.5,0.5c-5.32075,0 -10.64148,0 -15.96223,0c-1.6237,0 -3.2474,0 -4.8711,0h-0.14988c0,0 -0.5,0 -0.5,-0.5z" fill="#000000" stroke="none" stroke-width="0.5" stroke-linecap="butt"/><path d="M116.72631,176.56605c0,-0.5 0.5,-0.5 0.5,-0.5c3.02958,0 6.10283,0 9.1324,0c5.86331,0 11.72662,0 17.58993,0c0,0 0.5,0 0.5,0.5c0,0.5 -0.5,0.5 -0.5,0.5c-5.86331,0 -11.72662,0 -17.58993,0c-3.02958,0 -6.05915,0 -9.08872,0h-0.04368c0,0 -0.5,0 -0.5,-0.5z" fill="#000000" stroke="none" stroke-width="0.5" stroke-linecap="butt"/><path d="M117.4907,174.28788c0,-0.5 0.5,-0.5 0.5,-0.5c3.11391,0 6.60252,0 9.71643,0c0.71735,0 1.43468,0 2.15203,0c-0.14272,-0.78025 -0.00335,-2.17068 -0.00335,-2.55756c0,-2.60267 -0.13804,-5.21252 -0.17247,-7.80487c-0.11948,-0.40563 -0.20847,-0.80632 -0.26169,-1.21982l-0.07358,0.02759l-0.08067,-0.21513c-0.78628,0 -1.57256,0 -2.35883,0c-1.6237,0 -3.2474,0 -4.8711,0h-0.14988c0,0 -0.5,0 -0.5,-0.5c0,-0.5 0.5,-0.5 0.5,-0.5c1.6237,0 3.39728,0 5.02098,0c5.42067,0 10.84133,0 16.26199,0c0,0 0.5,0 0.5,0.5c0,0.5 -0.5,0.5 -0.5,0.5c-4.06891,0 -8.13784,0 -12.20675,0c2.3079,1.66977 4.53116,3.44936 6.70316,5.29522l0.00024,-0.00044l0.77033,0.41479c0.1615,0.0829 0.272,0.2511 0.272,0.44511c0,0.21847 -0.14011,0.4042 -0.33537,0.47226l-0.45674,0.17128c-2.3849,1.08624 -4.72527,3.12677 -6.59652,4.97157c4.44949,0 8.89897,0 13.34846,0c0,0 0.5,0 0.5,0.5c0,0.5 -0.5,0.5 -0.5,0.5c-5.65407,0 -11.30815,0 -16.96223,0c-3.11391,0 -6.22782,0 -9.34173,0h-0.3747c0,0 -0.5,0 -0.5,-0.5zM130.70522,164.57759c0.0511,1.81385 0.1506,3.63749 0.1506,5.45369c0,0.54045 -0.15479,2.52442 -0.2341,3.04683c1.8186,-1.83221 4.15776,-3.82722 6.50989,-4.99402c-1.10072,-0.28954 -1.95331,-1.56529 -2.77235,-2.27721c-1.14323,-0.99371 -2.40909,-1.8794 -3.65948,-2.75949c0.05829,0.30269 0.10585,0.60573 0.18417,0.81312l0.03184,0.29547c0,0 0,0.2809 -0.21055,0.42161z" fill="#000000" stroke="none" stroke-width="0.5" stroke-linecap="butt"/><path d="M130.88556,164.11613l-0.03064,-0.29635c-0.07831,-0.20739 -0.12363,-0.51194 -0.18192,-0.81464c1.25039,0.8801 2.55346,1.75914 3.69669,2.75284c0.81904,0.71192 1.71117,2.0369 2.8119,2.32644c-2.35213,1.1668 -4.76851,3.20341 -6.58711,5.03562c0.07932,-0.52241 0.21943,-2.52102 0.21943,-3.06147c0,-1.8162 -0.09125,-3.70412 -0.14236,-5.51797c0.21055,-0.14071 0.214,-0.42448 0.214,-0.42448z" data-paper-data="{&quot;noHover&quot;:false,&quot;origItem&quot;:[&quot;Path&quot;,{&quot;applyMatrix&quot;:true,&quot;segments&quot;:[[[94.79991,329.15518],[0.42109,-0.28142],[0.10221,3.62771]],[[95.1011,340.06256],[0,-3.63241],[0,1.0809]],[[94.63289,346.15622],[0.15863,-1.04483],[3.63719,-3.66442]],[[107.65267,336.16819],[-4.70426,2.33359],[-2.20144,-0.57907]],[[102.10796,331.61377],[1.63808,1.42383],[-2.28647,-1.98741]],[[94.789,326.09478],[2.50079,1.76019],[0.11658,0.60538]],[[95.15733,327.72102],[-0.15662,-0.41478],[0,0]],[95.221,328.31196]],&quot;closed&quot;:true}]}" fill="#8c8600" stroke="none" stroke-width="0.5" stroke-linecap="butt"/><path d="M185.81206,162.79096c-0.03552,0.05345 -0.14293,0.17948 -0.32225,0.08983c-0.10457,-0.05229 -0.13579,-0.12902 -0.13939,-0.19591c-1.73929,0.07141 -3.54577,0.29281 -5.28967,0.27984c-1.03699,0.29628 -2.11672,-0.00504 -3.15304,0.22552c-1.85234,0.4121 0.58736,1.94456 1.17063,2.11165c0.49085,0.26034 1.96672,-0.24012 2.24442,0.05622c0.39678,0.42342 0.31358,4.04684 -0.06401,4.3743c-0.40708,0.35303 -1.06568,0.48488 -1.54076,0.71849c-2.77794,0.30466 -3.63052,4.85857 -3.66493,7.03519c1.51304,2.81358 2.78802,4.37406 5.91388,5.48812c1.89306,-0.02552 6.08441,0.44673 7.5384,-1.08962c2.25046,-1.36357 2.91831,-4.88367 2.60492,-7.37681c-0.50987,-2.59267 -2.08048,-3.80917 -4.53847,-4.29131c-0.58371,-0.11681 -2.47451,0.1514 -2.69993,-0.44923c-0.40314,-1.07418 0.17694,-2.39317 -0.3147,-3.45981l-0.20152,-0.15114c-0.06204,-0.04549 -0.10233,-0.11891 -0.10233,-0.20174c0,-0.13807 0.11193,-0.25 0.25,-0.25h0.29976v0.0566c0.89953,-0.11619 1.9088,0.04691 2.70136,-0.38757c1.2091,-0.66282 1.11952,-2.26073 -0.29236,-2.5312c-0.13156,-0.0269 -0.26563,-0.04427 -0.4,-0.05141zM186.95149,162.56213c1.80629,0.87031 0.58115,3.35476 -1.44514,3.52129c-0.28641,0.02354 -1.01668,0.22567 -1.44893,0.1551c0.42467,1.04729 0.20772,2.18499 0.27637,3.33738c0.0464,0.77891 1.57089,-0.00266 2.33604,0.15028c2.66891,0.54263 4.36546,1.89708 4.93395,4.7015c0.3278,2.63579 -0.37972,6.42222 -2.79076,7.85101c-1.67244,1.6025 -5.82018,1.21006 -7.92924,1.18855c-3.28256,-1.11646 -4.79518,-2.87151 -6.31633,-5.862c-0.02802,-2.39867 0.9715,-7.29208 4.00892,-7.63387c1.93861,-0.98723 1.3148,-2.17853 1.39283,-4.25972c0.00881,-0.23499 -0.42339,0.24913 -0.65852,0.25305c-0.43602,0.00726 -1.02113,-0.00961 -1.41361,-0.19683c-1.13801,-0.32427 -3.48326,-2.42462 -1.1422,-3.0537c1.04899,-0.28188 2.17928,0.05745 3.23653,-0.24462c2.25659,-0.01382 4.54071,-0.26676 6.74931,-0.30218c0,0 0.25,0 0.25,0.25c0,0.06264 -0.01569,0.10958 -0.03921,0.14476z" fill="#000000" stroke="none" stroke-width="0.5" stroke-linecap="butt"/><path d="M186.22682,162.7946c1.41187,0.27048 1.46607,1.9617 0.25697,2.62452c-0.79256,0.43448 -1.78601,0.27561 -2.68554,0.3918l0.00003,-0.0566l-0.29768,0.00016c-0.13807,0 -0.24829,0.11199 -0.24829,0.25006c0,0.08283 0.04304,0.0563 0.10509,0.10179l0.20309,0.15122c0.49164,1.06664 -0.07992,2.38694 0.32322,3.46113c0.22542,0.60064 2.14409,0.35066 2.72781,0.46747c2.45798,0.48214 4.03783,1.73911 4.54769,4.33178c0.31339,2.49314 -0.37781,6.04605 -2.62827,7.40962c-1.45399,1.53635 -5.68134,1.07007 -7.5744,1.09558c-3.12586,-1.11406 -4.4338,-2.69854 -5.94684,-5.51212c0.03442,-2.17662 0.88648,-6.77939 3.66442,-7.08406c0.47509,-0.23361 1.14379,-0.37837 1.55087,-0.7314c0.37759,-0.32746 0.51204,-3.86717 0.11526,-4.29058c-0.27769,-0.29633 -1.74329,0.19886 -2.23413,-0.06148c-0.58326,-0.16709 -3.07775,-1.7832 -1.22541,-2.1953c1.03632,-0.23056 2.12832,0.06506 3.1653,-0.23122c1.7439,0.01297 3.57587,-0.2095 5.31516,-0.2809c0.0036,0.06689 0.03566,0.14381 0.14024,0.1961c0.17932,0.08965 0.28809,-0.03603 0.32361,-0.08948c0.13437,0.00714 0.27027,0.02504 0.40183,0.05194z" data-paper-data="{&quot;noHover&quot;:false,&quot;origItem&quot;:[&quot;Path&quot;,{&quot;applyMatrix&quot;:true,&quot;segments&quot;:[[[205.0136,325.58191],[0.26873,0.01428],[-0.07104,0.1069]],[[204.3691,325.76157],[0.35863,0.17931],[-0.20915,-0.10457]],[[204.09032,325.36975],[0.0072,0.13377],[-3.47859,0.14282]],[[193.51098,325.92943],[3.4878,0.02593],[-2.07397,0.59256]],[[187.2049,326.38047],[2.07264,-0.46111],[-3.70468,0.8242]],[[189.54615,330.60376],[-1.16653,-0.33418],[0.9817,0.52068]],[[194.03499,330.7162],[-0.55539,-0.59267],[0.79356,0.84683]],[[193.90696,339.46481],[0.75519,-0.65492],[-0.81415,0.70606]],[[190.82544,340.9018],[0.95017,-0.46722],[-5.55588,0.60933]],[[183.49557,354.97218],[0.06884,-4.35324],[3.02608,5.62717]],[[195.32332,365.94841],[-6.25171,-2.22812],[3.78612,-0.05103]],[[210.40011,363.76917],[-2.90798,3.07271],[4.50091,-2.72714]],[[215.60995,349.01555],[0.62678,4.98628],[-1.01973,-5.18534]],[[206.53302,340.43294],[4.91597,0.96428],[-1.16743,-0.23362]],[[201.13316,339.53447],[0.45084,1.20127],[-0.80628,-2.14836]],[[200.50376,332.61485],[0.98328,2.13328],[0,0]],[[200.10072,332.31257],[0,0],[-0.12409,-0.09098]],[[199.89606,331.90908],[0,0.16566],[0,-0.27614]],[[200.39606,331.40908],[-0.27614,0],[0,0]],[200.99558,331.40908],[[200.99558,331.52229],[0,0],[1.79906,-0.23237]],[[206.3983,330.74714],[-1.58513,0.86896],[2.41819,-1.32564]],[[205.81359,325.68474],[2.82375,0.54095],[-0.26312,-0.05381]]],&quot;closed&quot;:true}]}" fill="#009118" stroke="none" stroke-width="0.5" stroke-linecap="butt"/><path d="M178.52962,154.74452c1.01015,0.15348 2.19178,1.06009 2.5562,1.79949c0.31587,0.64089 -0.88268,1.61919 -1.24268,2.0933c-2.40915,1.77163 -3.67145,-1.90169 -2.51841,-3.47975c0.02201,-0.0667 0.06653,-0.11121 0.06653,-0.11121c0.03715,-0.03715 0.07612,-0.0708 0.11674,-0.10111c0.10612,-0.10387 0.2267,-0.1934 0.36231,-0.26519l0.4771,-0.00669c0,0 0.10817,0 0.18221,0.07116zM177.66737,155.45273c-0.68257,1.0703 -0.12118,4.34275 1.82222,2.83103c0.13962,-0.18877 1.24876,-1.40707 1.15539,-1.50382c-0.49143,-0.50921 -1.47738,-1.54724 -2.27369,-1.60832c-0.01475,0.00174 -0.02388,0.00174 -0.02388,0.00174l-0.1141,-0.00211c-0.17782,0.01352 -0.34345,0.08358 -0.4885,0.22864c0,0 -0.02992,0.02992 -0.07744,0.05283z" fill="#000000" stroke="none" stroke-width="0.5" stroke-linecap="butt"/><path d="M177.71273,155.36156c0.14505,-0.14506 0.32229,-0.2224 0.50011,-0.23591l0.11664,0.00105c0,0 0.0097,-0.00021 0.02445,-0.00196c0.79631,0.06108 1.84943,1.1416 2.34086,1.65081c0.09337,0.09674 -1.04926,1.36671 -1.18888,1.55548c-1.9434,1.51172 -2.55495,-1.84479 -1.87238,-2.9151c0.04753,-0.02291 0.0792,-0.05437 0.0792,-0.05437z" data-paper-data="{&quot;noHover&quot;:false,&quot;origItem&quot;:[&quot;Path&quot;,{&quot;applyMatrix&quot;:true,&quot;segments&quot;:[[[188.72422,310.90546],[0.09506,-0.04582],[-1.36515,2.14061]],[[192.36865,316.56752],[-3.8868,3.02343],[0.27924,-0.37754]],[[194.67944,313.55988],[0.18674,0.19349],[-0.98286,-1.01842]],[[190.13206,310.34325],[1.59262,0.12216],[-0.02951,0.00348]],[190.08431,310.34673],[[189.85611,310.34252],[0,0],[-0.35565,0.02703]],[[188.87911,310.7998],[0.29011,-0.29011],[0,0]]],&quot;closed&quot;:true}]}" fill="#009118" stroke="none" stroke-width="0.5" stroke-linecap="butt"/><path d="M183.18823,158.20519c0.58122,0.07101 0.99633,0.73257 0.92404,1.53357c-0.12526,1.38795 -3.01171,3.41367 -3.01725,0.94001c0,-1.3516 0.47933,-1.863 1.637,-2.44183l0.2126,-0.07352c0,0 0.1427,-0.04756 0.24361,0.04178zM182.36996,159.01007c-0.55969,0.3665 -0.77494,0.76729 -0.77494,1.6687c-0.00436,1.7346 1.99314,-0.23054 2.01873,-0.97846c0.01646,-0.48098 -0.19794,-1.08084 -0.58038,-1.04068l-0.07774,0.02452c-0.0672,0.0336 -0.13151,0.06642 -0.19301,0.09877c-0.05189,0.04041 -0.10582,0.09142 -0.16168,0.15416c0,0 -0.10332,0.10332 -0.23098,0.07299z" fill="#000000" stroke="none" stroke-width="0.5" stroke-linecap="butt"/><path d="M182.60075,158.88707c0.05586,-0.06274 0.11632,-0.11334 0.16821,-0.15375c0.0615,-0.03235 0.1322,-0.06393 0.1994,-0.09753l0.08008,-0.02384c0.38244,-0.04016 0.62949,0.59245 0.61303,1.07342c-0.02559,0.74792 -2.11261,2.75543 -2.10825,1.02082c0,-0.90141 0.24568,-1.37832 0.80537,-1.74482c0.12765,0.03033 0.24216,-0.07431 0.24216,-0.07431z" data-paper-data="{&quot;noHover&quot;:false,&quot;origItem&quot;:[&quot;Path&quot;,{&quot;applyMatrix&quot;:true,&quot;segments&quot;:[[[198.12939,318.02013],[0.2553,0.06065],[-1.11937,0.733]],[[196.57951,321.35752],[0,-1.80281],[-0.00871,3.46921]],[[200.61697,319.40061],[-0.05119,1.49584],[0.03292,-0.96195]],[[199.45621,317.31925],[0.76488,-0.08032],[0,0]],[[199.30072,317.36828],[0,0],[-0.1344,0.0672]],[[198.9147,317.56583],[0.12301,-0.06471],[-0.10378,0.08082]],[[198.59134,317.87414],[0.11173,-0.12548],[0,0]]],&quot;closed&quot;:true}]}" fill="#009118" stroke="none" stroke-width="0.5" stroke-linecap="butt"/><path d="M181.90378,150.79112c2.33706,-0.88879 3.71827,2.33782 1.40413,3.882c-0.65224,0.30106 -1.3902,1.0016 -2.17699,0.78016c-2.50137,-0.70399 -2.28387,-3.83892 -0.01233,-4.59644c0.28813,-0.09049 0.5182,-0.07623 0.78518,-0.06572zM181.08582,151.40448c-1.60416,0.70101 -1.83815,3.05157 0.17857,3.56696c0.60895,0.15562 1.29592,-0.50231 1.79935,-0.73463c1.61817,-1.0778 0.97013,-3.28557 -0.53796,-3.10796c-0.04768,0.16783 -0.23936,0.16783 -0.23936,0.16783h-0.14202c-0.05921,-0.00009 -0.11615,-0.00274 -0.17155,-0.00627c-0.15696,0.07194 -0.31996,0.16802 -0.48787,0.29107c0,0 -0.20343,0.14532 -0.34874,-0.05812c-0.03029,-0.04242 -0.04543,-0.0823 -0.05042,-0.11888z" fill="#000000" stroke="none" stroke-width="0.5" stroke-linecap="butt"/><path d="M181.11365,151.47874c0.14531,0.20344 0.35741,0.05471 0.35741,0.05471c0.16791,-0.12305 0.34654,-0.22108 0.5035,-0.29302c0.05541,0.00353 0.11717,0.00658 0.17638,0.00668l0.14587,0.00066c0,0 0.19644,0.00126 0.24412,-0.16657c1.5081,-0.17762 2.17589,2.1136 0.55772,3.1914c-0.50342,0.23233 -1.24134,0.90182 -1.85029,0.7462c-2.01672,-0.51539 -1.78907,-2.95802 -0.18491,-3.65903c0.00498,0.03657 0.01991,0.07656 0.05021,0.11898z" data-paper-data="{&quot;noHover&quot;:false,&quot;origItem&quot;:[&quot;Path&quot;,{&quot;applyMatrix&quot;:true,&quot;segments&quot;:[[[195.56112,302.80895],[0.00996,0.07314],[-3.20831,1.40202]],[[195.91826,309.94286],[-4.03344,-1.03077],[1.21791,0.31125]],[[199.51695,308.4736],[-1.00685,0.46465],[3.23633,-2.15559]],[[198.44102,302.25768],[3.0162,-0.35523],[-0.09536,0.33567]],[197.96231,302.59335],[[197.67828,302.59335],[0,0],[-0.11841,-0.00019]],[[197.33517,302.5808],[0.11082,0.00706],[-0.31392,0.14388]],[[196.35943,303.16294],[0.33582,-0.2461],[0,0]],[[195.66195,303.0467],[0.29062,0.40687],[-0.06059,-0.08483]]],&quot;closed&quot;:true}]}" fill="#009118" stroke="none" stroke-width="0.5" stroke-linecap="butt"/><path d="M91.54166,220.5v-31.5h125v31.5z" fill="url(#color-1)" stroke="none" stroke-width="0" stroke-linecap="butt"/><path d="M91.76842,309.69728v-81.35487h125v81.35487z" fill="#828282" stroke="none" stroke-width="0" stroke-linecap="butt"/><text transform="translate(96.80763,197.30159) scale(0.17571,0.17571)" font-size="40" xml:space="preserve" fill="#000000" fill-rule="nonzero" stroke="none" stroke-width="1" stroke-linecap="butt" stroke-linejoin="miter" stroke-miterlimit="10" stroke-dasharray="" stroke-dashoffset="0" font-family="&quot;SagoMiniRounded-Bold_v2&quot;, Sans Serif" font-weight="normal" text-anchor="start" style="mix-blend-mode: normal"><tspan x="0" dy="0">Creative, Eternal Support, Shy, Golden</tspan><tspan x="0" dy="46.150000000000006px">Brain, House Pathologist, Extreme </tspan><tspan x="0" dy="46.150000000000006px">Designer, Positive Population</tspan></text><path d="M94.54184,289.07064c0,-7.0774 5.73737,-12.81477 12.81478,-12.81477c7.0774,0 12.81478,5.73737 12.81478,12.81477c0,7.0774 -5.73737,12.81477 -12.81478,12.81477c-7.0774,0 -12.81477,-5.73737 -12.81477,-12.81477z" fill="#830000" stroke="#000000" stroke-width="1" stroke-linecap="butt"/><path d="M125.04071,288.39036c0,-7.0774 5.73737,-12.81477 12.81478,-12.81477c7.0774,0 12.81478,5.73737 12.81478,12.81477c0,7.0774 -5.73737,12.81477 -12.81478,12.81477c-7.0774,0 -12.81478,-5.73737 -12.81478,-12.81477z" fill="#830000" stroke="#000000" stroke-width="1" stroke-linecap="butt"/><path d="M153.72551,288.10692c0,-7.0774 5.73737,-12.81477 12.81477,-12.81477c7.0774,0 12.81478,5.73737 12.81478,12.81477c0,7.0774 -5.73738,12.81477 -12.81478,12.81477c-7.0774,0 -12.81477,-5.73737 -12.81477,-12.81477z" fill="#830000" stroke="#000000" stroke-width="1" stroke-linecap="butt"/><path d="M184.56451,287.88016c0,-7.0774 5.73737,-12.81477 12.81478,-12.81477c7.0774,0 12.81478,5.73737 12.81478,12.81477c0,7.0774 -5.73737,12.81477 -12.81478,12.81477c-7.0774,0 -12.81478,-5.73737 -12.81478,-12.81477z" fill="#830000" stroke="#000000" stroke-width="1" stroke-linecap="butt"/><path d="M184.111,252.95953c0,-7.0774 5.73737,-12.81477 12.81477,-12.81477c7.0774,0 12.81478,5.73737 12.81478,12.81477c0,7.07741 -5.73737,12.81478 -12.81478,12.81478c-7.0774,0 -12.81477,-5.73737 -12.81477,-12.81478z" fill="#830000" stroke="#000000" stroke-width="1" stroke-linecap="butt"/><path d="M154.8593,254.09332c0,-7.0774 5.73737,-12.81477 12.81477,-12.81477c7.0774,0 12.81478,5.73737 12.81478,12.81477c0,7.07741 -5.73737,12.81478 -12.81478,12.81478c-7.0774,0 -12.81477,-5.73737 -12.81477,-12.81478z" fill="#830000" stroke="#000000" stroke-width="1" stroke-linecap="butt"/><path d="M124.70057,254.09332c0,-7.0774 5.73737,-12.81477 12.81477,-12.81477c7.0774,0 12.81478,5.73737 12.81478,12.81477c0,7.07741 -5.73738,12.81478 -12.81478,12.81478c-7.0774,0 -12.81477,-5.73737 -12.81477,-12.81478z" fill="#00ddff" stroke="#000000" stroke-width="1" stroke-linecap="butt"/><path d="M94.31508,255.45386c0,-7.0774 5.73737,-12.81477 12.81478,-12.81477c7.0774,0 12.81478,5.73737 12.81478,12.81477c0,7.07741 -5.73737,12.81478 -12.81478,12.81478c-7.0774,0 -12.81477,-5.73737 -12.81477,-12.81478z" fill="#00ddff" stroke="#000000" stroke-width="1" stroke-linecap="butt"/><path d="M194.63341,295.5492l0.49493,-11.5318l-2.62311,0.24746l4.25637,-7.32492l5.64217,7.32492l6.0876,-0.44543l-2.07869,1.83123l-0.64341,9.55209z" fill="none" stroke="#ffffff" stroke-width="0.5" stroke-linecap="round"/><path d="M199.49081,281.83261c0.35356,0.35355 0,0.70711 0,0.70711l-0.11258,0.08384c-1.31879,2.34552 -3.71062,3.96644 -5.7848,5.72356c1.40999,1.49653 2.78368,3.02796 3.93065,4.74704c0,0 0.27735,0.41602 -0.13868,0.69338c-0.41603,0.27735 -0.69338,-0.13867 -0.69338,-0.13867c-1.12251,-1.68515 -2.45887,-3.18961 -3.83478,-4.65669c-0.32391,0.29535 -0.63479,0.59716 -0.92651,0.9092c-1.06685,1.14119 -1.70028,2.60761 -2.93159,3.5695c0,0 -0.39631,0.30486 -0.70116,-0.09145c-0.30486,-0.39631 0.09145,-0.70117 0.09145,-0.70117c1.17995,-0.89062 1.79078,-2.37497 2.80956,-3.45846c0.30409,-0.3234 0.6344,-0.63654 0.98191,-0.94383c-1.80719,-1.90447 -3.6333,-3.78511 -5.09047,-5.96092l0.01298,0.02671c0,0 -0.35356,-0.35355 0,-0.70711c0.35356,-0.35355 0.7071,0 0.7071,0l0.11197,0.1257c1.42414,2.14734 3.21901,4.00644 5.00382,5.88278c2.03141,-1.66753 4.39837,-3.25013 5.57402,-5.49841l0.28337,-0.3121c0,0 0.35356,-0.35355 0.70711,0z" fill="#ff0000" stroke="none" stroke-width="0.5" stroke-linecap="butt"/><text transform="translate(94.90759,307.49632) scale(0.19367,0.19367)" font-size="40" xml:space="preserve" fill="#000000" fill-rule="nonzero" stroke="none" stroke-width="1" stroke-linecap="butt" stroke-linejoin="miter" stroke-miterlimit="10" stroke-dasharray="" stroke-dashoffset="0" font-family="&quot;SagoMiniRounded-Bold_v2&quot;, Sans Serif" font-weight="normal" text-anchor="start" style="mix-blend-mode: normal"><tspan x="0" dy="0">skepticism Skills &amp; Passive Skills</tspan></text><path d="M167.05067,281.41388c-0.49497,-0.07071 -0.42427,-0.56569 -0.42427,-0.56569l0.04315,-0.29744c0.26168,-2.11593 2.47195,-2.37166 4.19969,-2.10432c3.74292,1.04593 2.79633,6.29849 2.70846,9.49443c0.79424,0.01378 1.46344,0.10546 1.71057,0.35917c0.52267,0.53659 0.16512,1.70535 0.0779,2.33596c-0.26255,1.89828 -0.32026,3.8105 -0.4809,5.72495c-1.63616,0.9826 -5.18522,0.19619 -7.23386,0.29038c-0.52353,0.02407 -1.69603,0.26986 -2.08003,-0.24147c-0.13017,-0.17332 -0.11019,-0.55057 -0.05447,-0.91236c-0.69155,0.68649 -1.47281,1.35246 -2.2463,1.51844c-0.73399,0.1575 -2.08175,-0.82556 -2.70002,-1.17503c-2.91835,-3.62578 -6.1794,-7.31732 -5.55287,-12.288l-0.06404,0.00582l-0.04556,-0.50115c-0.00173,-0.01693 -0.00262,-0.03411 -0.00262,-0.0515c0,-0.27614 0.22386,-0.5 0.5,-0.5c0.13807,0 0.26308,0.05597 0.35356,0.14645l0.30971,0.30971c1.79999,0.61759 3.09682,-0.17567 3.81828,-1.55234v-0.29496c0,-0.27614 0.22386,-0.5 0.5,-0.5c0.14954,0 0.28375,0.06564 0.37537,0.16969l0.32886,0.36997c2.50744,1.46846 3.74866,1.43484 6.20452,0.85122c0.7857,-0.41841 2.02314,-1.28715 2.6419,-0.76298c0.64486,0.54629 0.49701,3.4787 0.49731,4.25402c-0.00025,0.95581 -0.06521,1.81984 -0.20522,2.61961c0.55748,-0.03661 1.45724,-0.12286 2.35052,-0.15999c0.10178,-2.57961 1.0035,-7.7632 -1.91899,-8.53189c-1.00826,-0.15408 -2.94889,-0.21527 -2.99588,1.21671l-0.0491,0.34832c0,0 -0.07071,0.49498 -0.56568,0.42426zM166.15274,293.89907c0.01404,0 0.02769,0.0004 0.04096,0.00116c2.00973,-2.17214 3.24196,-6.00792 3.24132,-8.40338c0.00046,-1.12501 -0.37276,-2.41502 -0.14844,-3.49505c0.04785,-0.23041 -0.19709,0.04415 -0.46174,0.31187c-0.01265,0.3469 -0.38294,0.43948 -0.38294,0.43948c-0.18797,0.04656 -0.37027,0.09116 -0.54747,0.13356c-0.22277,0.08483 -0.4534,0.16612 -0.60219,0.22027l-0.0319,0.03838c0,0 -0.30072,0.20048 -0.56127,0.00487c-2.14665,0.41761 -3.59099,0.30493 -5.83257,-0.98057c-0.13657,0.58676 -1.08088,1.31486 -1.48913,1.48359c-1.00601,0.4158 -2.26812,0.54375 -3.34776,0.29826c0.4832,1.25828 0.73604,4.54322 0.88201,5.32741c0.46341,2.48962 2.88464,3.88236 4.30664,5.80009c1.67088,0.86365 3.17986,0.43746 4.43518,-0.6531l-0.00071,-0.02684c0,0 0,-0.5 0.5,-0.5zM166.65274,294.39907l-0.00971,0.55931c-0.05839,0.29012 -0.31958,0.55019 -0.27793,0.84319c0.03475,0.24448 0.48691,-0.09226 0.73362,-0.10309c0.67826,-0.02976 1.3569,-0.02005 2.03554,-0.04636c1.40933,-0.05464 3.62382,0.50801 4.89112,0.19837c-0.29838,-1.63364 0.12426,-3.70884 0.34936,-5.34517c0.06678,-0.48541 0.65345,-1.1511 0.26239,-1.44632c-0.48684,-0.36753 -3.66028,0.02094 -4.63421,0.06952c-0.53023,1.91429 -1.58021,3.48734 -3.32261,5.17899c-0.01081,0.01049 -0.02166,0.02109 -0.03259,0.0318c0.00502,0.0365 0.00502,0.05976 0.00502,0.05976z" fill="#ffffff" stroke="none" stroke-width="0.5" stroke-linecap="butt"/><path d="M130.66739,285.22362c0.80727,0.07349 1.6703,0.12954 2.21038,-0.0707c0.83729,-0.31043 3.15521,-4.05172 3.97314,-3.75892c1.12667,0.40331 0.80726,2.29895 0.74242,3.14188c0.00049,2.95809 -0.17088,5.89805 -0.04627,8.86037c0.02278,0.54165 0.4187,2.8361 -0.22256,3.09535c-0.94036,0.38018 -1.6469,-1.13328 -2.0729,-1.62759c-1.0853,-0.64147 -1.53978,-1.90158 -2.47313,-2.53787c-1.17004,-0.79765 -3.69841,1.04041 -4.71376,0.19254c-1.20885,-1.00945 -0.00567,-5.54336 -0.00144,-7.02681c-0.02857,-1.91744 0.88161,-0.95918 2.00573,-0.56869l0.37369,0.14011c0,0 0.1277,0.04789 0.2247,0.16033zM129.00547,286.037c-0.2002,1.65254 -0.87969,5.05287 -0.3182,5.6991c0.32137,0.36987 0.93396,-0.31695 1.41976,-0.38084c0.77687,-0.10217 1.68614,-0.14181 2.46516,-0.04873c1.29074,0.15422 2.16901,2.08944 3.31934,2.78904c0.08585,0.09588 0.52722,0.53332 0.80657,0.9165c-0.10473,-0.94431 -0.13645,-2.699 -0.14942,-2.89769c-0.16651,-2.55144 0.04498,-5.06931 0.0454,-7.61687c0.02356,-0.3062 -0.08019,-1.0575 -0.04318,-1.59762c-0.03021,0.0575 -0.06078,0.10674 -0.0889,0.13928c-0.49372,0.57116 -1.0564,1.0858 -1.62394,1.5787c-1.91613,1.66413 -3.02315,1.50584 -5.53955,1.50584c0,0 -0.15548,0 -0.29303,-0.0867z" fill="#ffffff" stroke="none" stroke-width="0.5" stroke-linecap="butt"/><path d="M138.78524,291.24822c-0.32009,-0.38411 0.06401,-0.70421 0.06401,-0.70421l0.20217,-0.15348c1.09363,-1.40589 1.3828,-3.30896 -0.1987,-4.56436c0,0 -0.38698,-0.31661 -0.07036,-0.70359c0.31662,-0.38698 0.7036,-0.07036 0.7036,-0.07036c1.95878,1.63954 1.80232,4.09088 0.35481,5.95225l-0.35134,0.30776c0,0 -0.38411,0.3201 -0.7042,-0.06401z" fill="#ffffff" stroke="none" stroke-width="0.5" stroke-linecap="butt"/><path d="M139.42285,293.95728c-0.4,-0.3 -0.1,-0.7 -0.1,-0.7l0.18483,-0.23805c0.13838,-0.13837 0.27675,-0.27676 0.41512,-0.41513c2.77772,-2.76912 3.75846,-7.50345 -0.29863,-9.67669c0,0 -0.44024,-0.23706 -0.20318,-0.67729c0.23705,-0.44023 0.67728,-0.20319 0.67728,-0.20319c4.64509,2.51287 3.7772,8.00966 0.53164,11.26427c-0.13838,0.13837 -0.27675,0.27676 -0.41513,0.41513l-0.09193,0.13095c0,0 -0.3,0.4 -0.7,0.1z" fill="#ffffff" stroke="none" stroke-width="0.5" stroke-linecap="butt"/><path d="M141.02949,297.08606c-0.3,-0.4 0.1,-0.7 0.1,-0.7l0.39506,-0.23031c2.31068,-0.40524 3.5707,-2.60016 4.22518,-4.68678c0.9196,-3.20448 -0.13142,-10.0221 -4.056,-10.79918c0,0 -0.4889,-0.10477 -0.38414,-0.59367c0.10477,-0.4889 0.59367,-0.38413 0.59367,-0.38413c4.51986,1.02418 5.90193,8.20694 4.80415,12.06482c-0.7853,2.47527 -2.29541,4.87614 -5.00397,5.3828l0.02605,0.04644c0,0 -0.4,0.3 -0.7,-0.1z" fill="#ffffff" stroke="none" stroke-width="0.5" stroke-linecap="butt"/><path d="M98.55173,291.67767c0,-0.43473 0.37798,-0.49147 0.47666,-0.49888c0.03793,-0.01004 0.07609,-0.02007 0.11445,-0.03009c0.22908,-2.34199 0.59022,-4.70911 1.02571,-6.85424c-0.0026,-0.63909 -0.01663,-1.18857 0.14681,-1.80837l0.08789,-0.48338c0.03865,-0.23769 0.24489,-0.41913 0.49349,-0.41913c0.15574,0 0.29486,0.07121 0.38656,0.18284l0.63774,0.76529l-0.03244,0.02704c0.01143,0.01372 0.01739,0.02223 0.01739,0.02223l0.34678,0.49887c0.06277,0.13502 0.12264,0.27041 0.18004,0.40615c1.38134,2.14628 1.91243,4.86981 2.76958,7.31777c0.035,0.05221 0.06087,0.11629 0.06908,0.19464c0.10363,0.288 0.21226,0.57181 0.32785,0.85003c0.64066,1.54202 1.65805,2.93465 1.92295,4.62318c0.05875,0.24954 0.1175,0.49908 0.17625,0.74863l0.17982,0.58344c0,0 0.02915,0.09474 0.01931,0.21283c0.05436,0.15595 0.10825,0.31194 0.16164,0.46798c0,0 0.15812,0.47434 -0.31622,0.63245c-0.47434,0.15812 -0.63246,-0.31622 -0.63246,-0.31622c-0.78455,-2.43608 -1.75368,-4.86948 -2.74086,-7.28189c-1.32424,-0.17653 -2.92028,0.09703 -4.29248,0.42578c-0.12916,1.47102 -0.20265,2.92318 -0.20265,4.29947c0,0 0,0.5 -0.5,0.5c-0.5,0 -0.5,-0.5 -0.5,-0.5c0,-1.29803 0.06282,-2.67121 0.17607,-4.06643c-0.02528,-0.00034 -0.49895,-0.01333 -0.49895,-0.49999zM102.73353,287.51385c-0.06601,-0.19838 -0.12926,-0.3966 -0.19103,-0.59452c-0.55582,-1.19806 -1.04131,-2.40121 -1.35307,-3.61941l-0.00538,-0.00763c-0.0339,0.3573 -0.019,0.70971 -0.02037,1.1007c-0.40451,2.05113 -0.75326,4.28412 -0.98562,6.50498c1.21907,-0.27026 2.55382,-0.47043 3.76773,-0.4123c-0.409,-0.99507 -0.81701,-1.98612 -1.21226,-2.97182z" fill="#ffffff" stroke="none" stroke-width="0.5" stroke-linecap="butt"/><path d="M106.30169,287.26349c-0.29062,-0.40686 0.11625,-0.69749 0.11625,-0.69749l0.5313,-0.31695c0.85349,-0.13968 1.66666,-0.4056 2.48768,-0.66219c-0.60861,-0.63648 -1.24407,-1.23974 -1.92832,-1.77098c0,0 -0.39467,-0.30697 -0.0877,-0.70164c0.30697,-0.39468 0.70164,-0.08771 0.70164,-0.08771c0.76882,0.59899 1.47773,1.28268 2.1564,2.00183c0.76848,-0.87847 1.63065,-1.64921 2.74293,-2.11562c0,0 0.46234,-0.19038 0.65271,0.27196c0.19037,0.46234 -0.27196,0.65272 -0.27196,0.65272c-0.67738,0.27281 -1.25815,0.69267 -1.78092,1.19142c0.06172,-0.00982 0.12369,-0.019 0.18593,-0.02749c0.48815,-0.0666 1.04981,0.20146 1.20649,-0.26913c0,0 0.25725,-0.42875 0.68599,-0.1715c0.42874,0.25725 0.1715,0.68599 0.1715,0.68599c-0.30394,0.42307 -1.26876,0.79503 -2.39792,1.10312c0.50639,0.57689 1.0053,1.15735 1.51056,1.71844l0.28298,0.43848c0,0 0.265,0.424 -0.159,0.689c-0.424,0.265 -0.68899,-0.159 -0.68899,-0.159l-0.17828,-0.29952c-0.61961,-0.68885 -1.22977,-1.41071 -1.85738,-2.11801c-0.05546,0.01251 -0.11094,0.02488 -0.16639,0.03708c-0.44834,0.59082 -0.87621,1.19394 -1.32277,1.74018l-0.07956,0.08306c0,0 -0.35355,0.35355 -0.7071,0c-0.35356,-0.35355 0,-0.70711 0,-0.70711l0.0127,-0.00919c0.21735,-0.26543 0.42936,-0.53843 0.64007,-0.81394c-0.67713,0.12532 -1.26661,0.22174 -1.64691,0.28612l-0.11446,0.14429c0,0 -0.40686,0.29062 -0.69749,-0.11625z" fill="#ffffff" stroke="none" stroke-width="0.5" stroke-linecap="butt"/><path d="M199.77555,245.91116c-0.0822,0.49319 -0.5754,0.411 -0.5754,0.411l-0.32611,-0.05694c-2.45735,-0.67534 -6.77935,-1.23003 -9.30398,-0.64095c0,0 -0.48719,0.11243 -0.59962,-0.37476c-0.11243,-0.4872 0.37476,-0.59963 0.37476,-0.59963c2.67544,-0.61134 7.16529,-0.0609 9.79196,0.65057l0.22739,0.03531c0,0 0.4932,0.0822 0.411,0.5754z" fill="#ffffff" stroke="none" stroke-width="0.5" stroke-linecap="butt"/><path d="M189.14213,248.04298c0,-0.5 0.5,-0.5 0.5,-0.5h0.04612c1.45242,0.00451 2.87631,-0.06074 4.33091,0.18621c4.26326,0.00654 8.44323,1.39366 12.68939,1.38206c0,0 0.5,0 0.5,0.5c0,0.5 -0.5,0.5 -0.5,0.5c-4.27703,-0.01026 -8.4804,-1.39228 -12.77187,-1.38547c-1.42832,-0.23409 -2.82075,-0.18802 -4.24843,-0.18279h-0.04612c0,0 -0.5,0 -0.5,-0.5z" fill="#ffffff" stroke="none" stroke-width="0.5" stroke-linecap="butt"/><path d="M189.94956,251.9791c0.01279,0.01279 0.02465,0.02558 0.03565,0.03835c0.93106,0.00028 1.85997,-0.0003 2.79345,-0.0003c2.32343,0.00098 4.58818,0.50638 6.90365,0.64672c2.35085,0.14248 4.7737,-0.14313 7.04026,0.57634c0,0 0.47621,0.15239 0.32382,0.6286c-0.15239,0.47621 -0.6286,0.32382 -0.6286,0.32382c-2.16541,-0.69909 -4.54602,-0.39424 -6.79738,-0.53068c-2.29401,-0.13903 -4.54071,-0.64581 -6.84175,-0.6448c-1.12557,0 -2.24313,-0.00079 -3.36715,0l-0.16906,-1.03805c0,0 0.35356,-0.35356 0.70711,0z" fill="#ffffff" stroke="none" stroke-width="0.5" stroke-linecap="butt"/><path d="M189.28051,255.83818c0,-0.5 0.5,-0.5 0.5,-0.5l0.1799,0.00173c3.33164,0.28035 6.71914,-0.24859 10.01514,0.3761c0,0 0.49116,0.09356 0.39761,0.58473c-0.09355,0.49117 -0.58473,0.39761 -0.58473,0.39761c-3.25163,-0.62262 -6.61924,-0.09006 -9.91106,-0.3619l-0.09686,0.00173c0,0 -0.5,0 -0.5,-0.5z" fill="#ffffff" stroke="none" stroke-width="0.5" stroke-linecap="butt"/><path d="M197.01483,258.83634c0,0.5 -0.5,0.5 -0.5,0.5h-0.18451c-2.17737,-0.00129 -4.37153,0.07867 -6.5162,-0.3801c0,0 -0.48891,-0.10476 -0.38414,-0.59366c0.10477,-0.4889 0.59367,-0.38414 0.59367,-0.38414c2.0726,0.44494 4.20181,0.35908 6.30667,0.35791h0.18451c0,0 0.5,0 0.5,0.5z" fill="#ffffff" stroke="none" stroke-width="0.5" stroke-linecap="butt"/><path d="M203.67736,261.90701c0.15811,0.47434 -0.31623,0.63245 -0.31623,0.63245l-0.29649,0.07178c-4.19719,0 -9.40366,-0.11444 -13.45152,-1.12194c0,0 -0.48507,-0.12127 -0.3638,-0.60634c0.12127,-0.48507 0.60634,-0.36381 0.60634,-0.36381c3.96506,0.99594 9.09404,1.09208 13.20899,1.09208l-0.01974,-0.02047c0,0 0.47435,-0.15811 0.63246,0.31623z" fill="#ffffff" stroke="none" stroke-width="0.5" stroke-linecap="butt"/><path d="M170.28836,244.18826c-1.69861,0.29846 -3.84572,0.55052 -5.21238,1.30272c-0.29742,0.16369 -0.00525,1.75212 0.00759,1.86914c0.1639,1.49451 0.43395,2.9867 0.52768,4.48546c0.24735,1.35432 0.45802,2.72715 0.51073,4.10164c0.01975,0.51495 -0.41948,1.21936 -0.02076,1.54584c0.14289,0.117 1.31285,0.02907 1.45855,-0.19262c0.71719,-1.09129 1.09607,-4.7622 1.16204,-6.17394c0.27995,-2.35313 1.18027,-4.59394 1.56655,-6.93823zM171.37544,243.80251c-0.00399,0.03742 -0.00977,0.06054 -0.00977,0.06054l-0.03622,0.13394c-0.35025,2.44393 -1.32764,4.77166 -1.6111,7.21248c-0.07663,1.49383 -0.46975,5.49664 -1.32873,6.64894c-0.53172,0.71328 -2.4096,0.94838 -3.06175,0.26863c-0.71318,-0.74338 -0.50318,-5.02205 -0.70929,-6.16064c-0.11764,-1.88344 -1.13932,-4.6251 -0.63572,-6.44974c0.4708,-1.70578 5.32044,-2.12016 6.8391,-2.4483c0,0 0.4889,-0.10476 0.59367,0.38414c0.0322,0.15024 0.00833,0.2642 -0.04019,0.35z" fill="#ffffff" stroke="none" stroke-width="0.5" stroke-linecap="butt"/><path d="M167.59063,259.88907c-0.58054,0.05252 -1.20586,0.08203 -1.49437,0.24287c-0.17191,0.09584 0.07212,2.23869 0.07215,2.31372c0.00013,0.27109 -0.25181,0.56985 -0.11666,0.80484c0.30106,0.52347 1.5362,0.43317 1.80852,-0.10582c0.31003,-0.61365 -0.16286,-2.45239 -0.23835,-3.14225c-0.01043,-0.03778 -0.02087,-0.07558 -0.0313,-0.11336zM168.57446,259.70481c0.00992,0.03676 0.01984,0.07351 0.02976,0.11028c0.09431,0.83765 0.29835,1.86967 0.22505,2.70865c-0.1175,1.34494 -2.45716,2.70725 -3.63644,1.23886c-0.43522,-0.54192 -0.22479,-4.00835 0.32451,-4.44602c0.35059,-0.27935 1.27775,-0.30666 1.99856,-0.39359c0.05348,-0.13883 0.17637,-0.29836 0.45879,-0.29836c0.17364,0 0.28697,0.0603 0.36095,0.13902c0.15266,-0.00732 0.37434,0.03835 0.47893,0.33119c0.12901,0.36122 -0.11804,0.5443 -0.24011,0.60998z" fill="#ffffff" stroke="none" stroke-width="0.5" stroke-linecap="butt"/><path d="M138.94123,251.17249c-0.2236,-0.44721 0.22361,-0.67082 0.22361,-0.67082l0.23723,-0.11494c0.12028,-0.04325 0.23988,-0.08511 0.35901,-0.12559c0.14121,-1.36988 -0.43778,-4.46179 0.34219,-5.02184c0.47272,-0.33944 -1.06799,0.46687 -1.62045,0.6498c-1.18548,0.39254 -2.37083,0.25289 -3.57655,0.43839c-0.08429,-0.06028 1.24972,5.69469 0.54287,6.54039c-0.55881,0.66858 -2.92373,0.77505 -3.72372,0.83955c-0.48416,0.03904 -1.17495,-0.49019 -1.45422,-0.09278c-0.10702,0.15229 0.03133,1.4325 0.02311,1.81387c0.00005,0.83211 0.48419,2.84869 -0.17276,3.36631c-0.42397,0.33404 1.01778,-0.39298 1.55392,-0.45533c0.62011,-0.07213 4.27121,-0.89696 4.73136,-0.32889c0.28451,0.35123 -0.20844,3.75302 -0.20844,4.40876c0,0.71365 -0.11855,1.49951 -0.10265,2.20203c0.00442,0.19528 0.36532,-0.14279 0.55608,-0.18482c0.73906,-0.16285 0.96993,-0.18622 1.65113,-0.28341c0.26747,-0.03816 3.01595,-0.31834 3.04795,-0.36802c1.02349,-1.58876 -0.46604,-5.26153 -0.48033,-7.03532c1.08208,-0.36332 2.32378,-0.59148 3.47314,-0.62682c0.65318,-0.02008 1.71574,0.68113 1.95905,0.07462c0.77541,-1.93285 -0.49567,-4.57702 0.03525,-6.63558c0.05853,-0.22696 -0.39175,0.26975 -0.61519,0.34052c-0.8073,0.25573 -1.64545,0.42509 -2.47764,0.5721c-0.94486,0.1183 -1.79412,0.29848 -2.65671,0.56517c-0.08156,0.12962 -0.2524,0.29799 -0.56297,0.20243c-0.0085,-0.00262 -0.01682,-0.00534 -0.02493,-0.00816c-0.0852,0.02992 -0.17076,0.06072 -0.25679,0.09242l-0.13177,0.06957c0,0 -0.44721,0.22361 -0.67082,-0.2236zM140.85388,249.92638c0.72362,-0.19628 1.45463,-0.34225 2.24237,-0.44055c0.69562,-0.12261 3.52398,-1.28753 4.01049,-0.56339c0.24972,0.37169 -0.04877,2.22913 0.02589,2.83979c0.14506,1.18649 0.67467,4.05029 -0.08288,5.10028c-0.34,0.47124 -4.91714,0.70135 -5.36116,0.46256c1.07404,0.8714 1.16132,6.27055 0.25768,7.26357c-0.34564,0.37982 -1.01469,0.15933 -1.52304,0.23224c-0.90635,0.12999 -4.54794,1.30196 -5.12217,0.40752c-0.27206,-0.42377 -0.10265,-2.2763 -0.10265,-2.80903c0,-0.3834 -0.15396,-3.29135 0.28387,-3.72272c-0.40454,0.11383 -1.48178,0.38612 -1.72602,0.40735c-1.05291,0.09152 -2.37248,0.55208 -3.41598,0.5076c-1.49079,-0.06356 -1.04596,-2.85131 -1.04589,-4.19402c0.01408,-0.63446 -0.12844,-2.1515 0.39212,-2.61417c0.88287,-0.78469 3.98087,0.35202 4.96966,-0.54476c0.37548,-0.34053 -0.16231,-1.00231 -0.19472,-1.50817c-0.10077,-1.57265 -1.4972,-5.08213 0.36859,-5.42007c1.10007,-0.16924 5.68102,-1.27256 6.14986,-0.57232c0.2557,0.38191 -0.15323,0.90906 -0.16936,1.36839c-0.046,1.31017 0.19324,2.53336 0.04336,3.79989z" fill="#000000" stroke="none" stroke-width="0.5" stroke-linecap="butt"/><path d="M109.21729,248.42547c0,-0.5 0.5,-0.5 0.5,-0.5l0.00861,0.0128c0.98761,-0.22422 2.24034,-0.85243 3.26842,-0.65592c0.15063,0.02879 0.29096,0.09837 0.41988,0.19952c0.00499,-0.00015 0.01,-0.00022 0.01502,-0.00022c0.1996,0 0.37189,0.11696 0.45206,0.28608l0.27758,0.55517l-0.1213,0.06065c0.07587,0.18181 0.1393,0.3758 0.18932,0.57389c0.18242,0.5818 0.25334,1.194 0.42284,1.93428l-0.01387,0.03865l0.01815,-0.0014l0.03993,0.51904c0.00125,0.01444 0.00189,0.02905 0.00189,0.04381c0,0.27614 -0.22386,0.5 -0.5,0.5c-0.25097,0 -0.45875,-0.1849 -0.49455,-0.42591l-0.16004,-0.96022l0.00448,-0.00075c-0.05881,-0.21473 -0.12457,-0.45795 -0.17745,-0.70329c-0.02593,-0.08352 -0.05072,-0.16738 -0.07438,-0.2517c-0.40504,0.9212 -0.80955,1.83783 -1.20801,2.76287c1.63382,1.59142 2.1431,4.45872 -0.44628,5.55426c-0.66407,0.28096 -1.36744,0.23782 -2.06954,0.23748c-3.02256,-0.33368 -4.11252,-3.92563 -2.13575,-5.72665c-0.03606,-0.26339 0.19539,-0.44855 0.19539,-0.44855c1.24175,-0.96491 2.56726,-0.87244 3.63885,-0.24386c0.50576,-1.16678 1.01803,-2.32468 1.53035,-3.49399l0.01364,-0.04091c-0.63859,0.0813 -2.59648,0.59997 -2.86175,0.66204l-0.23347,0.0128c0,0 -0.5,0 -0.5,-0.5zM111.25525,253.08113c-0.17494,-0.07497 -0.25475,-0.188 -0.2865,-0.29925c-0.41368,-0.30473 -0.89114,-0.49336 -1.38496,-0.49072c-0.08153,0.17963 -0.26864,0.26279 -0.26864,0.26279l-0.39802,0.17535c-2.44785,0.79197 -1.70868,4.23851 0.70533,4.47666c3.36875,-0.00182 3.10747,-2.69319 1.72862,-4.09193c-0.03058,-0.0078 -0.06251,-0.01863 -0.09582,-0.03291z" fill="#000000" stroke="none" stroke-width="0.5" stroke-linecap="butt"/><path d="M105.15374,259.72263c0,0.5 -0.5,0.5 -0.5,0.5l-0.31569,-0.00111c-0.81868,-0.05496 -1.63585,-0.04933 -2.45242,-0.01407c0,1.16312 0,2.32623 0,3.48935v0.50434c0,0 0,0.5 -0.5,0.5c-0.5,0 -0.5,-0.5 -0.5,-0.5c0,-1.19652 0,-2.59313 0,-3.93777c-0.70864,0.04715 -1.4171,0.10711 -2.12597,0.15962c0,0 -0.49863,0.03694 -0.53557,-0.4617c-0.03694,-0.49863 0.4617,-0.53557 0.4617,-0.53557c0.73376,-0.05435 1.46674,-0.11554 2.19984,-0.16304c0,-0.31846 0,-0.63002 0,-0.931c-0.35642,-0.01078 -0.71494,-0.04659 -1.07034,-0.09006c-3.05114,-1.13307 -2.59428,-4.28672 -0.46868,-5.62705c-0.01004,-0.01739 -0.01967,-0.03598 -0.02884,-0.05583c-0.20953,-0.45398 0.24445,-0.66351 0.24445,-0.66351c3.38691,-1.47591 7.10941,3.60986 3.79985,5.82964c-0.46581,0.31243 -0.96351,0.47913 -1.47644,0.55577c0,0.30923 0,0.61846 0,0.92769c0.83849,-0.03521 1.67768,-0.04031 2.51894,0.0154l0.24917,-0.00111c0,0 0.5,0 0.5,0.5zM101.74834,252.76355c-0.13089,0.24706 -0.4434,0.24706 -0.4434,0.24706l-0.04235,-0.00147c-2.37344,0.18133 -3.96226,3.21595 -1.2116,4.26067c0.94834,0.10611 1.8909,0.16675 2.74735,-0.37088c1.71012,-1.07352 0.58848,-3.46682 -1.05,-4.13537z" fill="#000000" stroke="none" stroke-width="0.5" stroke-linecap="butt"/></g></g></svg>