<svg version="1.1" xmlns="http://www.w3.org/2000/svg" xmlns:xlink="http://www.w3.org/1999/xlink" width="159.49524" height="320.5775" viewBox="0,0,159.49524,320.5775"><g transform="translate(-497.61624,-12.4138)"><g data-paper-data="{&quot;isPaintingLayer&quot;:true}" fill-rule="nonzero" stroke-linejoin="miter" stroke-miterlimit="10" stroke-dasharray="" stroke-dashoffset="0" style="mix-blend-mode: normal"><path d="M497.61624,332.9913v-320.5775h159.49524v320.5775z" fill="#aeaeae" stroke="none" stroke-width="NaN" stroke-linecap="butt"/><text transform="translate(503.08711,37.5632) scale(0.5,0.5)" font-size="40" xml:space="preserve" fill="#000000" fill-rule="nonzero" stroke="none" stroke-width="1" stroke-linecap="butt" stroke-linejoin="miter" stroke-miterlimit="10" stroke-dasharray="" stroke-dashoffset="0" font-family="&quot;RifficFree-Bold&quot;, Sans Serif" font-weight="normal" text-anchor="start" style="mix-blend-mode: normal"><tspan x="0" dy="0">Actions &amp; Skills</tspan></text><path d="M510.54894,93.57081v-49.52789h53.51829v49.52789z" fill="#00ff12" stroke="#000000" stroke-width="1" stroke-linecap="butt"/><path d="M510.54894,153.72021v-49.52789h53.51829v49.52789z" fill="#ff0000" stroke="#000000" stroke-width="1" stroke-linecap="butt"/><path d="M510.95972,210.58339v-49.52789h53.51829v49.52789z" fill="#00ff12" stroke="#000000" stroke-width="1" stroke-linecap="butt"/><path d="M510.95972,270.14596v-49.52789h53.51829v49.52789z" fill="#ff0000" stroke="#000000" stroke-width="1" stroke-linecap="butt"/><path d="M510.95971,327.78339v-49.52789h53.5183v49.52789z" fill="#c700ff" stroke="#000000" stroke-width="1" stroke-linecap="butt"/><text transform="translate(576.97734,61.23685) scale(0.5,0.5)" font-size="40" xml:space="preserve" fill="#000000" fill-rule="nonzero" stroke="none" stroke-width="1" stroke-linecap="butt" stroke-linejoin="miter" stroke-miterlimit="10" stroke-dasharray="" stroke-dashoffset="0" font-family="&quot;RifficFree-Bold&quot;, Sans Serif" font-weight="normal" text-anchor="start" style="mix-blend-mode: normal"><tspan x="0" dy="0">Easy</tspan><tspan x="0" dy="46.150000000000006px">Inspire</tspan></text><path d="M533.95936,64.82273c0.69518,0.09708 1.65431,0.1416 2.21123,0.66079c-0.17387,-0.17974 -0.54611,-0.58043 -0.6498,-0.79228c-0.33002,-0.67425 -0.76993,-1.60359 -0.03767,-2.3296c0.44371,-0.43993 2.88659,0.74567 3.28616,0.97474c0.36147,0.20723 -0.10159,-0.82773 -0.17968,-1.23701c-0.18572,-0.97337 -0.38299,-1.91529 -0.67501,-2.86219c0,0 -0.07564,-0.24582 0.05789,-0.4391c-0.08299,-0.11217 -0.18876,-0.19053 -0.33476,-0.2116c-0.10647,-0.01537 -0.21166,0.00628 -0.31597,0.04572c-0.72091,0.45007 -1.67773,0.76061 -2.31513,1.39849c-1.15452,1.15538 -2.60012,3.28146 -4.11074,4.51039c0.76079,0.73189 1.79539,1.28532 2.62719,2.02429c-0.09105,-0.5628 -0.12232,-1.27525 0.43628,-1.74263zM539.6831,63.74169c-0.67179,1.14439 -1.73711,0.18961 -2.58997,-0.05978c-0.37351,-0.10922 -0.91863,-0.84487 -1.06267,-0.48337c-0.30385,0.76258 1.75569,2.2166 0.95857,2.95327c-0.53977,0.49884 -2.15954,-0.13358 -2.80848,-0.35386c-0.27168,-0.14693 0.06969,0.02503 0.27864,0.59573c0.13997,0.38227 0.16372,0.874 0.03527,1.28632c0.79593,1.12355 1.34148,2.29432 2.4629,3.20768c1.56086,0.63903 2.40464,2.46758 3.49449,3.68306c1.24873,1.39267 2.97856,2.35156 4.14319,3.80467c1.64305,-1.13726 3.32488,-2.2361 4.99168,-3.35183c-2.76165,-3.70667 -5.43525,-7.59108 -8.3213,-11.19929c-0.58895,-0.79082 -1.08087,-1.59228 -1.62566,-2.37148c0.22019,0.91172 0.32591,1.80748 0.04332,2.28888zM533.38471,68.20951c0,0 -0.44741,-0.14914 -0.32834,-0.59226c-0.64206,-0.81993 -1.35541,-1.56292 -2.28876,-2.08188c-0.22803,-0.1268 -0.41766,-0.30062 -0.5848,-0.49044c-1.09406,0.64722 -2.20337,0.68261 -3.24455,-0.5829c0.2779,-0.77999 1.62104,-2.32604 2.72884,-1.70107c0.34765,0.19613 0.45058,0.63663 0.62786,1.01267c1.44869,-1.14099 2.91594,-3.36125 3.97946,-4.42403c0.38495,-0.38468 0.78587,-0.75858 1.21883,-1.08866c-0.32068,-0.41535 -0.52693,-0.93798 -0.43997,-1.36468c0.49687,-2.43804 2.92935,-1.11486 3.20657,0.62054c-0.02,0.07592 -0.04517,0.148 -0.07505,0.21665c1.31284,0.60628 3.08929,4.44481 3.87119,5.47842c2.90222,3.62709 5.57603,7.53318 8.36097,11.25334c0.51698,-0.34964 1.03165,-0.70181 1.54236,-1.05817c-0.95485,-0.93037 -2.40231,-1.82213 -2.76048,-2.9835c-0.72767,-2.35944 -0.76364,-4.9453 -0.76364,-7.43258c0.0049,-5.74256 -1.04063,-10.21213 -5.11192,-14.28877c-2.94218,-3.69715 -10.61649,-2.24762 -14.3578,-0.8431c-5.71524,1.88582 -5.34312,8.0213 -6.31121,12.86175c0.03153,6.19171 2.42467,9.3945 7.01773,13.41347c1.05036,0.94322 2.05689,1.91361 3.46756,2.28862c3.21862,0.85563 8.70737,-1.15722 9.78483,3.13552c0.28247,-0.20525 0.5667,-0.40874 0.8524,-0.61076c-1.11404,-1.41716 -2.85289,-2.362 -4.07004,-3.71c-1.00919,-1.11769 -1.80822,-2.92298 -3.25285,-3.48597c-1.21769,-0.95983 -2.04425,-2.29269 -2.94763,-3.53576zM544.73085,79.67394c-0.0498,0.0249 -0.09683,0.04148 -0.14108,0.05129c-0.46787,0.31884 -0.93503,0.63735 -1.40109,0.95574c-0.03749,0.10471 -0.12038,0.20807 -0.288,0.27512c-0.06421,0.02568 -0.12309,0.03893 -0.17689,0.0427c-0.36347,0.24868 -0.72618,0.49733 -1.08793,0.74605c-0.39619,0.74082 1.64194,3.56333 2.04585,4.30727c0.32281,0.59456 0.69306,1.16438 0.98363,1.77533c0.19023,0.39999 0.16712,1.57058 0.46652,1.24417c1.81376,-1.97739 3.77088,-3.33802 5.9548,-4.88677c1.47423,-0.88451 3.12216,-1.50241 4.63065,-2.31958c0.02165,-0.14153 0.10426,-0.30656 0.35498,-0.3782c0.12459,-0.0356 0.22611,-0.02968 0.30816,-0.00138c0.1356,-0.08236 0.2696,-0.16704 0.40174,-0.25441c0.58713,-0.38818 2.1764,-0.56719 1.77426,-1.14486c-1.3038,-1.87288 -1.80626,-3.80087 -2.9112,-5.7775c-0.51613,-0.31526 -0.73377,-0.6839 -0.98643,-1.13679c-0.52201,0.55567 -1.82557,1.15649 -2.16477,1.40095l-0.04249,0.05211c0,0 -0.28227,0.28227 -0.5946,0.09017c-2.283,1.61396 -4.60078,3.19297 -6.90434,4.76261c-0.04212,0.0722 -0.11158,0.14087 -0.22177,0.19596zM536.52825,57.85604c0.38054,-0.05338 0.74316,-0.11162 0.73172,-0.35536c-0.24111,-1.35735 -1.43664,-0.78882 -1.14225,-0.17224c0.15211,0.3186 0.28199,0.47055 0.41053,0.5276zM529.57356,64.24411c-0.40894,-0.52674 -0.81458,-0.80612 -1.65571,0.01685c0.51919,0.32636 1.08025,0.27223 1.65571,-0.01685zM542.02486,80.10719c-0.66622,-3.29609 -4.24814,-2.19522 -6.73101,-2.38528c-2.65434,-0.20319 -4.34834,-1.09994 -6.28519,-2.8393c-4.81257,-4.21097 -7.37701,-7.74922 -7.34952,-14.26032c1.05741,-5.28707 0.78936,-11.62573 6.9726,-13.70588c4.19281,-1.57063 12.13027,-2.89205 15.43442,1.11635c4.24674,4.24085 5.36434,9.00024 5.36903,14.9582c0,2.46653 0.19554,4.75764 0.71233,7.11636c0.19259,0.87901 1.71252,1.89932 2.61637,2.7321c0.20799,-0.14847 0.41517,-0.2978 0.62144,-0.4481c0,0 0.2571,-0.18698 0.51038,-0.05774c0.04347,-0.05292 0.08583,-0.10875 0.12712,-0.16796v-0.21335c0,-0.27614 0.22386,-0.5 0.5,-0.5c0.18532,0 0.3471,0.10083 0.43346,0.25061l0.31157,0.51927c0.37284,0.62223 0.45056,1.00652 1.08451,1.37968c0.78426,1.25174 0.80494,2.6638 1.54775,3.88607c0.30506,0.50195 1.5815,2.0917 1.65581,2.56598c0.12213,0.77938 -1.2527,1.30853 -1.70623,1.59714c-0.3451,0.21961 -0.69573,0.42747 -1.05022,0.62742c0.96945,4.69237 -4.17423,6.66994 -8.13145,5.5393c-0.18369,-0.07324 -0.3674,-0.14649 -0.55109,-0.21973l-0.03001,-0.06446c-0.39021,0.29933 -0.77463,0.61015 -1.15121,0.93888c-0.24284,0.212 -1.38621,1.5188 -1.57709,1.57314c-1.15396,0.32849 -1.30637,-1.17967 -1.59918,-1.79467c-0.92518,-1.94321 -3.7027,-4.98014 -2.91729,-7.11434c0.40094,-0.31849 0.80727,-0.63151 1.21809,-0.94003zM548.9915,86.8715c3.11059,0.88874 7.4479,-0.42447 6.8884,-4.09365c-1.41262,0.74263 -2.86223,1.41372 -4.24655,2.24433c-0.88844,0.62884 -1.77855,1.22194 -2.64859,1.84662c0.00225,0.0009 0.00449,0.0018 0.00673,0.0027z" fill="#000000" stroke="none" stroke-width="0.5" stroke-linecap="butt"/><text transform="translate(571.91685,120.96131) scale(0.5,0.5)" font-size="40" xml:space="preserve" fill="#000000" fill-rule="nonzero" stroke="none" stroke-width="1" stroke-linecap="butt" stroke-linejoin="miter" stroke-miterlimit="10" stroke-dasharray="" stroke-dashoffset="0" font-family="&quot;RifficFree-Bold&quot;, Sans Serif" font-weight="normal" text-anchor="start" style="mix-blend-mode: normal"><tspan x="0" dy="0">SNAP at</tspan><tspan x="0" dy="46.150000000000006px">them!</tspan></text><path d="M516.45212,118.36647c-0.03537,-0.10048 -0.03709,-0.22693 0.03913,-0.37935c0.22361,-0.44721 0.67082,-0.22361 0.67082,-0.22361c3.51231,1.83849 9.70254,1.21783 12.26797,-1.92217c1.53202,-1.8951 1.00007,-4.28023 1.0072,-6.4965c0.00117,-0.36209 -0.43854,-1.75194 -0.28733,-1.96017c0.36183,-0.49832 3.90494,-0.64847 4.2385,-0.14773c0.44914,0.67426 0.30982,2.50347 0.31489,3.30298c0.12469,1.86482 0.86705,4.75749 0.05559,6.5556c-1.56323,3.46399 -6.05084,4.06217 -9.4158,4.13496c-2.53622,0.0001 -6.25198,0.53928 -8.65132,-0.30405c-1.82567,-0.64169 -1.40318,-2.02655 -0.23964,-2.55995zM518.24266,119.24472c-0.17106,0.05742 -0.34242,0.0003 -0.34242,0.0003l-0.20406,-0.07447c-0.20423,-0.03457 -2.06642,-0.36052 -1.12367,0.67582c0.40281,0.4428 1.69182,0.30147 2.23438,0.26947c2.15357,-0.12704 4.34724,0.11461 6.52546,0.11469c2.96427,-0.06288 7.06337,-0.49115 8.50263,-3.5177c0.75525,-1.58816 -0.02106,-4.48189 -0.13106,-6.13662c-0.00464,-0.8078 0.09539,-1.88569 -0.05841,-2.66983c-0.01933,-0.09856 -2.21965,0.34664 -2.61404,0.15046c0.14041,0.51726 0.47935,2.5625 0.4983,2.84687c0.12748,1.9129 -0.09012,4.01289 -1.32517,5.57009c-2.63545,3.11347 -7.94443,3.96694 -11.96195,2.77091z" fill="#000000" stroke="none" stroke-width="0.5" stroke-linecap="butt"/><path d="M552.92859,122.13038c0,-0.12929 0.03343,-0.22516 0.08301,-0.29623c-4.61424,0.48399 -9.12,0.42715 -13.71679,-0.24892c-1.6225,-0.70575 -1.7521,-1.87507 -2.29616,-3.39429c-0.48287,-1.34835 -1.32243,-2.81273 -1.42757,-4.2421c-0.15522,-2.11025 0.51638,-4.02946 -0.18762,-6.09721c0.84963,-1.84141 3.21687,-0.68958 4.89128,-0.68663c0.07302,0.00013 1.70623,-0.19856 1.80644,-0.07231c1.62691,2.04956 -3.69275,6.43837 -0.03925,8.55663c2.46646,1.86565 5.95778,2.48099 9.02397,1.90017c0.65046,-0.12322 3.17728,-1.72629 3.73251,-1.35835c0.76989,0.51019 0.54481,3.29409 0.60331,4.0677c0.25405,2.67637 0.64768,3.34192 -2.06551,2.33577l0.09237,0.03576c0,0 -0.5,0 -0.5,-0.5zM553.86828,121.73825c0.22834,0.10734 0.60285,0.30141 0.84421,0.50795c-0.04716,-0.21233 -0.09578,-0.46832 -0.1404,-0.72852c-0.12999,0.14997 -0.33488,0.17558 -0.33488,0.17558c-0.12306,0.01537 -0.24604,0.03037 -0.36893,0.04498zM554.45685,120.77312c-0.02274,-0.16627 -0.0406,-0.31441 -0.05152,-0.42951c-0.04968,-0.66286 0.21929,-2.73621 -0.10677,-3.28637c-0.26682,-0.4502 -0.83774,0.64175 -1.31312,0.86058c-0.92791,0.42714 -1.78013,0.65224 -2.80404,0.69921c-3.19676,0.14665 -6.0969,-0.20267 -8.69745,-2.13787c-3.14187,-1.93632 -1.07637,-6.10965 -0.03925,-8.61519c0.26689,-0.64477 -1.3917,0.29355 -2.08362,0.20294c-0.62847,-0.0823 -1.15791,-0.18265 -1.79777,-0.1819c-0.03979,0.00005 -1.18374,-0.03956 -1.17985,-0.03338c0.79145,1.54622 0.08212,2.93185 0.09321,4.49017c0.0144,2.02263 0.79807,3.64404 1.46465,5.51541c0.39223,1.10116 0.44598,2.27239 1.62349,2.76517c4.88051,0.67372 9.6281,0.69412 14.54836,0.07861c0,0 0.18538,-0.02317 0.34367,0.07213z" fill="#000000" stroke="none" stroke-width="0.5" stroke-linecap="butt"/><path d="M555.92862,126.25643c0.23442,0.23441 0.15799,0.46883 0.07986,0.60019c0.01107,-0.00001 0.02214,-0.00002 0.03322,-0.00004c0,0 0.5,0 0.5,0.5c0,0.5 -0.5,0.5 -0.5,0.5c-0.13048,-0.00023 -0.26071,-0.00149 -0.39071,-0.00371c-0.05682,0.15518 -0.11753,0.30886 -0.18228,0.46069c-0.46719,0.93356 -0.83905,3.15604 -1.9033,3.53692c-0.45524,0.16293 -1.36225,-0.45916 -1.8306,-0.55251c-1.81319,-0.36137 -7.05124,-0.45509 -7.62459,1.79548c-0.63831,2.21469 -0.20391,5.06609 -0.45037,7.38321c-0.03457,0.32502 0.07548,1.6572 -0.09139,1.91765c-0.57427,0.89631 -5.64272,2.03212 -6.28102,1.44469c-0.15238,-0.14024 -0.13079,-1.39204 -0.13079,-1.76362c0.00747,-4.20642 -0.91409,-15.16597 4.81925,-15.77423c4.46655,-0.76507 8.58835,0.36099 12.95453,0.53377c0.02325,-0.08403 0.04531,-0.16835 0.06624,-0.25288l0.22485,-0.32561c0,0 0.35355,-0.35356 0.7071,0zM554.5946,127.81485c-4.19665,-0.22495 -8.18889,-1.25518 -12.48465,-0.52273c-2.57596,0.23971 -2.71313,1.95778 -3.11958,4.12588c-0.67245,3.58698 -0.83965,7.03958 -0.83373,10.65738c0,1.79866 0.67888,0.85059 2.18527,0.31509c0.08393,-0.02983 2.35647,-0.45707 2.41529,-0.58086c1.14221,-2.40374 -0.35498,-6.35772 0.39148,-8.99087c0.86377,-2.81063 5.45615,-2.74411 7.8811,-2.60168c0.23433,0.01377 2.15772,0.71179 2.26199,0.6716c0.45455,-0.1752 1.02352,-2.50295 1.26975,-2.99584c0.01117,-0.02592 0.02219,-0.05191 0.03307,-0.07796z" fill="#000000" stroke="none" stroke-width="0.5" stroke-linecap="butt"/><path d="M514.15793,125.23803c-0.241,-0.0358 -0.42591,-0.24358 -0.42591,-0.49455c0,-0.23235 0.15849,-0.42769 0.37327,-0.4838l0.3026,-0.08646c-0.05095,-0.42884 -0.07867,-0.76623 -0.04319,-0.80934c0.80285,-0.97561 4.86087,-0.55955 6.08711,-0.76905l0.56681,-0.03052c0,0 0.49932,-0.02613 0.52545,0.47319c0.02613,0.49931 -0.47319,0.52545 -0.47319,0.52545l-0.50835,0.02575c-0.12707,0.02182 -0.25497,0.04071 -0.38354,0.05709c0.00471,0.00862 0.00921,0.01755 0.01345,0.0268c3.2643,-0.26117 6.79359,-0.0795 9.41331,0.97109c6.96233,2.0053 4.05687,8.92891 5.36994,14.10348c0.1376,1.22475 0.71475,3.61723 0.15647,4.75939c-0.43886,0.89784 -4.62695,1.15099 -5.56119,0.61706c-1.29996,-0.74294 -0.73154,-5.09418 -0.42328,-6.35059c1.50151,-5.22764 -1.22521,-9.43351 -6.92226,-8.11552c-1.41728,0.26138 -5.34681,1.65408 -6.69374,0.62842c-0.77546,-0.59051 -0.81227,-3.17972 -0.85561,-4.0893c-0.00458,-0.0961 -0.05635,-0.4575 -0.11742,-0.89178zM515.21925,123.88327c-0.12708,0.01882 -0.20011,0.07295 -0.2334,0.15366c0.50887,-0.07894 1.0114,-0.17172 1.51257,-0.26156c-0.43664,0.01592 -0.86498,0.04657 -1.27917,0.1079zM515.33182,125.16071c0.16706,0.35066 0.33057,0.7104 0.3432,0.98948c0.02038,0.45049 0.07808,3.07631 0.43039,3.31665c1.08742,0.74181 4.75738,-0.57147 5.91621,-0.78836c6.39867,-1.47303 9.7733,3.43959 8.09205,9.35319c-0.29676,1.16108 -0.16899,2.40866 -0.16963,3.60368c-0.00002,0.04556 -0.08037,1.5617 0.11965,1.61805c0.40067,0.11289 4.13673,-0.07203 4.14462,-0.12954c0.18295,-1.33388 -0.07024,-2.86473 -0.21682,-4.19982c-1.15798,-4.69749 1.58675,-11.55071 -4.70918,-13.33412c-3.78696,-1.51104 -9.55358,-1.13235 -13.4486,-0.265c0,0 -0.32299,0.07178 -0.50187,-0.1642z" fill="#000000" stroke="none" stroke-width="0.5" stroke-linecap="butt"/><text transform="translate(571.54355,181.08603) scale(0.5,0.5)" font-size="40" xml:space="preserve" fill="#000000" fill-rule="nonzero" stroke="none" stroke-width="1" stroke-linecap="butt" stroke-linejoin="miter" stroke-miterlimit="10" stroke-dasharray="" stroke-dashoffset="0" font-family="&quot;RifficFree-Bold&quot;, Sans Serif" font-weight="normal" text-anchor="start" style="mix-blend-mode: normal"><tspan x="0" dy="0">Support</tspan><tspan x="0" dy="46.150000000000006px">Me!</tspan></text><path d="M527.4612,184.37992c-0.22361,-0.44721 0.22361,-0.67083 0.22361,-0.67083l0.13286,-0.05402c0.07425,-0.05938 0.16077,-0.13235 0.25771,-0.21596c0.19822,-0.52122 0.39245,-1.03838 0.57891,-1.55029c0.79962,-2.19535 1.01732,-4.83196 2.33987,-6.79281c0.89078,-4.17428 2.35003,-7.86927 3.73944,-11.88282c-0.98813,0.50764 -3.00522,0.41683 -3.79386,0.47489c-3.41096,0.25109 -6.91463,0.90127 -10.2461,1.56842c-1.66579,0.33296 -1.08134,0.89327 -0.82367,2.41913l0.0068,0.193c0,0 0,0.5 -0.5,0.5c-0.15171,0 -0.25738,-0.04603 -0.331,-0.11016c0,4.80991 0,9.61982 0,14.42974c0,4.51848 0,9.03697 0,13.55545c2.05118,-0.42386 3.1752,-2.20252 5.12376,-0.73168c0.28127,-0.97731 0.55285,-1.95815 0.81556,-2.94269c0.60024,-2.63927 1.64086,-5.34975 2.65062,-7.98101c-0.06429,-0.04295 -0.12491,-0.10914 -0.17451,-0.20835zM532.62969,180.69762c0.92579,0.34643 1.63068,3.7567 1.52707,5.64356c0.04011,0.40876 0.07516,0.7392 0.11589,0.9382l-0.00168,0.00845l0.00307,-0.00052l0.10925,0.65552c0.00549,0.02966 0.00835,0.06024 0.00835,0.09149c0,0.27614 -0.22386,0.5 -0.5,0.5c-0.21462,0 -0.39766,-0.13522 -0.46857,-0.32512l-0.21727,-0.54318l0.11021,-0.04408l-0.02742,-0.16453c-0.02909,-0.14854 -0.05665,-0.29771 -0.08299,-0.44737c-0.15505,-0.55725 -0.20765,-1.14462 -0.26684,-1.75088c-0.0742,-0.53259 -0.14705,-1.06575 -0.23111,-1.59431c-0.03888,-0.24443 -0.1998,-0.57973 -0.33685,-0.89496c-0.00595,0.01404 -0.01179,0.02741 -0.01746,0.04004c-0.65003,1.4458 -1.07488,2.89749 -1.51232,4.42279c-1.35699,1.78904 -0.93608,4.26009 -1.45015,6.35137c-0.68462,2.78502 -1.63897,5.84552 -2.91886,8.41312c0,0 -0.2236,0.44721 -0.67082,0.22361c-0.44722,-0.2236 -0.22361,-0.67082 -0.22361,-0.67082c1.25867,-2.50911 2.15018,-5.4899 2.84278,-8.20696c0.55432,-2.1746 0.12034,-4.66029 1.52265,-6.55029c0.39285,-1.52312 0.84129,-2.96469 1.49809,-4.39247c0.04546,-0.09881 0.13137,-0.31866 0.22605,-0.55993c-0.7792,0.46564 -2.03194,1.56109 -2.74811,2.18623c-1.10543,2.87479 -2.3354,5.88112 -2.96255,8.78006c-1.38403,5.19326 -3.01556,10.28448 -5.00665,15.29895c0.02188,0.05678 0.03492,0.12449 0.03492,0.20525c0,0.5 -0.5,0.5 -0.5,0.5h-0.55401c-0.41609,0 -1.52501,0.02266 -1.73856,-0.14644c-0.1816,-0.1438 -0.14644,-1.308 -0.14644,-1.56956c0,-2.27235 0,-4.54469 0,-6.81703c0,-1.01338 0,-2.02676 0,-3.04014c-0.13332,-0.05769 -0.27701,-0.18204 -0.27701,-0.45007c0,-0.26803 0.14369,-0.39238 0.27701,-0.45007c0,-4.54977 0,-9.09953 0,-13.64929c0,-5.67853 0,-11.35706 0,-17.03558c0,0 0,-0.5 0.5,-0.5c0.10775,0 0.19227,0.02321 0.25858,0.05964c0.22816,-0.43584 0.72601,-0.74279 1.69317,-0.93634c3.37359,-0.67382 6.91879,-1.33173 10.37131,-1.58532c1.35573,-0.09958 2.78212,-0.4945 4.13082,-0.48386v-0.15654h0.66481c0.27614,0 0.5,0.22386 0.5,0.5c0,0.11438 -0.03841,0.2198 -0.10303,0.30404l-0.29278,0.39037c-1.36014,4.17619 -2.86873,7.95638 -3.85474,12.2439c-1.27029,1.92641 -1.51168,4.44555 -2.27071,6.60438c1.06319,-0.85928 2.27276,-1.66234 2.98649,-1.39526z" fill="#000000" stroke="none" stroke-width="0.5" stroke-linecap="butt"/><text transform="translate(571.54355,238.97932) scale(0.5,0.5)" font-size="40" xml:space="preserve" fill="#000000" fill-rule="nonzero" stroke="none" stroke-width="1" stroke-linecap="butt" stroke-linejoin="miter" stroke-miterlimit="10" stroke-dasharray="" stroke-dashoffset="0" font-family="&quot;RifficFree-Bold&quot;, Sans Serif" font-weight="normal" text-anchor="start" style="mix-blend-mode: normal"><tspan x="0" dy="0">Not</tspan><tspan x="0" dy="46.150000000000006px">Listening</tspan></text><path d="M516.60676,263.5463c-0.5,0 -0.5,-0.5 -0.5,-0.5l0.03576,-0.29649c0.18854,-0.46875 0.42557,-0.91785 0.67645,-1.35641c0.89469,-2.39301 2.43293,-4.21098 3.59976,-6.42263c1.28154,-2.42909 2.21683,-4.79824 3.52755,-7.08344c-2.57608,-4.09214 -5.31414,-8.12462 -7.24405,-12.56339c0,0 -0.19936,-0.45854 0.25917,-0.6579c0.45853,-0.19937 0.65789,0.25917 0.65789,0.25917c1.84262,4.23801 4.42675,8.10569 6.90132,12.00769c0.38394,-0.60714 0.80222,-1.20798 1.26882,-1.80207c3.45019,-4.37454 5.18292,-9.98444 9.43497,-13.70656c0,0 0.37629,-0.32925 0.70554,0.04704c0.32925,0.37629 -0.04703,0.70554 -0.04703,0.70554c-4.18351,3.65898 -5.92306,9.24972 -9.30716,13.57181c-0.54864,0.69798 -1.02874,1.4053 -1.46398,2.12129c0.36314,0.57918 0.72239,1.15982 1.07497,1.74324c1.14704,1.90187 1.86553,3.91558 2.83601,5.90139c1.51028,3.09034 3.79457,6.27957 3.81769,9.85856v0.1108c0,0 0,0.5 -0.5,0.5c-0.5,0 -0.5,-0.5 -0.5,-0.5v-0.1108c0.02744,-3.3793 -2.29684,-6.51489 -3.71675,-9.42074c-0.95725,-1.959 -1.66236,-3.94763 -2.79327,-5.82276c-0.2581,-0.42886 -0.51984,-0.85617 -0.78415,-1.28243c-1.17559,2.12972 -2.0554,4.3319 -3.2428,6.58962c-1.16017,2.20596 -2.68394,4.00085 -3.57932,6.38159c-0.24083,0.42189 -0.47371,0.85137 -0.65317,1.3028l0.03577,-0.0749c0,0 0,0.5 -0.5,0.5z" fill="#000000" stroke="none" stroke-width="0.5" stroke-linecap="butt"/><path d="M540.38939,253.09526c0.10851,0.01808 0.18917,0.05606 0.24897,0.10431c0.39629,0.12353 0.89043,0.25605 1.3609,0.3534c0.03683,-0.00717 0.07724,-0.0111 0.12158,-0.0111c0.13555,0 0.23435,0.03675 0.30637,0.09032c0.5778,0.0927 1.05161,0.10262 1.15373,-0.06753c0.52405,-0.87319 0.3851,-1.33025 0.79714,-1.8409l-0.13763,-0.13763l0.41219,-0.41219l0.15256,0.15257c0.11126,-0.08285 0.24076,-0.16934 0.39233,-0.26095l0.13723,0.46194h0.17143v0.57707c-0.00205,3.05486 -0.69205,5.88781 -0.99476,8.8949c-0.29638,1.48755 -0.38136,4.14879 -1.48083,5.16895c-0.23256,0.21578 0.6284,0.09384 0.94513,0.11194c0.58773,0.03361 1.18169,-0.00043 1.76397,0.08624c2.13468,0.31775 4.10748,1.23493 6.27378,1.23107c0.22362,0 2.5255,0.11137 2.52696,0.09919c0.39701,-3.31034 -0.79736,-6.83049 -0.80111,-10.15134c0,-0.73155 -0.22432,-4.36907 0.53364,-4.8213c1.47146,-0.87792 2.1252,2.96185 2.48908,3.46279c0.0468,0.06443 0.26371,-0.13288 0.55762,-0.45814c-0.01,-0.07164 -0.02015,-0.14325 -0.03046,-0.21483c0,0 -0.07071,-0.49497 0.42426,-0.56569c0.10113,-0.01445 0.18455,-0.00528 0.25327,0.01845c0.58014,-0.71179 1.20388,-1.53261 1.46391,-1.87728c-0.01009,-0.14449 0.01746,-0.43244 0.37567,-0.52199c0.01983,-0.00496 0.03905,-0.0089 0.05769,-0.01191c0.37956,-0.58173 0.16462,-1.08189 -0.48142,-1.85746c-0.54224,-0.65096 -1.66044,-0.77059 -2.37956,-1.10494c-1.21306,-0.56401 -2.23602,-1.3297 -3.2595,-2.14247c-0.05682,0.04817 -0.105,0.07226 -0.105,0.07226c-1.21708,0.60854 -6.22247,3.04126 -6.95435,0.4775c-0.0815,-0.28551 0.01075,-0.71691 0.18641,-1.20771c-1.32938,0.38788 -2.9452,0.94254 -3.6578,2.1003c-0.48423,0.97197 -1.13001,1.64778 -1.89255,2.41088c-0.07504,0.0751 -1.51121,1.54907 -1.46064,1.59214c0.04885,0.0416 0.20806,0.1101 0.43506,0.19003c0.02975,0.00062 0.06129,0.00355 0.09472,0.00912zM538.89617,265.86943c0.06285,1.65857 -0.7717,1.22961 -1.40492,1.99348c-0.9864,1.18992 2.31598,2.62118 3.04419,1.4244c0.07992,-0.13134 -0.45973,-2.53343 -0.39788,-3.15187c-0.0044,-3.91476 1.36864,-7.69677 1.47657,-11.60176c-0.31133,-0.05238 -0.62184,-0.12196 -0.91567,-0.20575c-0.41514,3.53138 -0.08549,8.49076 -1.80229,11.54149zM541.13632,266.18527c-0.09818,0.9818 0.66405,2.93503 0.26163,3.60811c-0.98484,1.64719 -4.34476,0.9374 -4.71401,-0.81591c-0.43648,-2.07256 1.19874,-1.50239 1.24208,-3.35057c1.65741,-3.24348 1.35577,-7.99453 1.80395,-11.61593l0.00708,-0.04252c-0.40249,-0.19851 -0.69592,-0.42942 -0.79594,-0.67691c-0.5396,-1.3352 2.82666,-3.74406 3.40678,-4.90037c1.0734,-1.5393 3.0093,-2.2053 4.74678,-2.70295l0.07863,-0.04889c0,0 0.09232,-0.04616 0.21403,-0.05459c0.34374,-0.72798 0.71263,-1.44156 0.87374,-1.91771c-0.00905,-0.01196 -0.01807,-0.0238 -0.02707,-0.03552c-1.5886,-2.06804 -1.4458,-3.48881 -1.43307,-6.13086c-0.04873,-0.25963 -0.0702,-0.48666 -0.0673,-0.68578c-1.17816,-0.21156 -1.74874,-1.37811 -0.62924,-2.306c1.37095,-1.13633 4.72622,-2.23818 6.53422,-2.43224c1.12418,0.21407 2.32772,0.3935 3.42722,0.68018c0.87725,0.22873 2.02866,1.62729 2.03713,2.58936c0.00843,0.95766 -0.69319,1.40734 -1.34142,1.75261c-0.33011,0.17583 -0.48952,1.3074 -0.57621,1.53107c-0.52261,1.34844 -1.61735,2.33399 -2.15377,3.6396c-0.12735,0.12988 -0.27348,0.29917 -0.43318,0.49218c0.10836,0.1798 0.05433,0.39595 0.05433,0.39595c-0.28336,1.12284 -0.64553,1.86101 -0.25886,2.77935c0.10118,0.03503 0.16858,0.08894 0.16858,0.08894c1.90922,1.5317 9.37594,4.37893 6.95133,7.33103c1.04406,4.57861 0.89416,9.92371 0.98341,14.57079c0.10996,0.65106 0.16368,1.30771 0.24561,1.96285l0.00386,0.22689c0,0 0,0.5 -0.5,0.5c-0.5,0 -0.5,-0.5 -0.5,-0.5l0.00386,-0.10286c-0.08317,-0.66567 -0.14005,-1.33224 -0.24903,-1.99421c-0.09303,-4.29692 0.07056,-9.25188 -0.77489,-13.57446c-0.36471,0.5469 -0.83191,1.21865 -1.33573,1.76167c0.50402,3.99514 0.60107,8.0575 1.04674,12.06856c0.00068,0.8336 0.00077,1.66721 0.00077,2.50081v0.49463c0,0 0,0.5 -0.5,0.5c-0.5,0 -0.5,-0.5 -0.5,-0.5v-0.49463c0,-0.81517 0.00006,-1.63034 0.00077,-2.44551c-0.41898,-3.77083 -0.51972,-7.59033 -0.95955,-11.35227c-0.39246,0.22813 -0.7838,0.30069 -1.14637,0.11123c-0.62955,-0.32897 -0.79086,-1.70089 -1.0664,-2.30857c-0.01071,-0.02361 -0.18215,-0.33496 -0.33539,-0.62851c0.13867,0.97493 -0.19205,2.93671 -0.19205,3.39223c-0.00309,2.53246 0.47795,5.10724 0.65825,7.63135c0.05435,0.76085 0.35505,2.32024 0.02454,2.99185c-0.28236,0.57375 -1.11748,0.61967 -1.93235,0.56095c-0.01348,0.23703 -0.03802,0.47347 -0.07625,0.70739l0.0068,0.32999c0,0 0,0.5 -0.5,0.5c-0.5,0 -0.5,-0.5 -0.5,-0.5l0.0068,-0.49439c0.0362,-0.21238 0.05778,-0.42754 0.06813,-0.64315c-0.18274,-0.01862 -0.34686,-0.03184 -0.48176,-0.03184c-2.56051,-0.00414 -4.98245,-0.99917 -7.54458,-1.27236c-0.47703,0.83874 -0.98512,1.81516 -1.11114,2.75977l-0.22386,0.36528c0,0 -0.35355,0.35355 -0.70711,0c-0.28569,-0.28569 -0.10968,-0.57137 -0.03158,-0.67052c0.16111,-0.87574 0.55177,-1.74318 0.98203,-2.54456c-0.65405,-0.07845 -1.29805,-0.30063 -1.34179,-1.16541c-0.05473,-1.08193 1.22501,-3.91214 1.48697,-5.21833c0.22809,-2.29693 0.69581,-4.48609 0.89295,-6.75593c-0.04532,0.074 -0.08857,0.13419 -0.12734,0.17616c-0.2697,0.29202 -0.91934,0.39772 -1.67776,0.36792c-0.13263,3.88581 -1.46994,7.65117 -1.47396,11.54558zM547.61501,247.63499c0.05592,0.2733 1.37022,0.34176 1.59556,0.34227c1.33251,0.00304 2.39721,-0.54238 3.53843,-1.12457c-0.57632,-0.935 -0.57795,-1.69842 -0.39893,-2.58034c-0.50504,0.56928 -1.02147,1.0565 -1.45863,1.1878c-0.86139,0.25872 -1.46783,-0.26095 -1.96105,-0.87978c-0.51987,1.07829 -1.39494,2.66579 -1.31538,3.05462zM547.08834,235.84337c0.41675,-0.41556 1.15873,-0.51291 1.99923,-0.65578c2.64976,-0.45041 5.36547,-1.81186 7.543,0.64562c0.46117,-0.49453 0.6347,-0.93771 -0.45064,-1.98238c-0.5225,-0.50292 -2.78881,-0.60592 -3.58466,-0.77515c-1.95456,0.22655 -3.06279,1.48137 -4.83088,1.97674c-0.35561,0.09964 -1.08419,-0.06702 -1.31693,0.43864c-0.1626,0.35328 0.3936,0.37229 0.51866,0.35231zM555.94502,236.56193c-1.35059,-1.61291 -3.65706,-1.37227 -5.37134,-0.74656c-0.82873,0.30248 -2.02224,0.08953 -2.55362,0.52012c0.00003,0.00261 0.00005,0.00524 0.00005,0.00788c0,0.25406 -0.1291,0.37902 -0.25609,0.44049c-0.02957,0.1649 -0.02172,0.36778 0.03206,0.61825c0.00979,2.42704 -0.22974,3.73987 1.19776,5.57766c0.27844,0.10008 0.30231,0.40899 0.30435,0.4612c0.33072,0.52258 0.83766,1.26199 1.27702,1.0705c0.82371,-0.359 1.91175,-2.09982 2.62151,-2.79252c0.56616,-1.45963 1.7108,-3.48948 2.52995,-4.84494c0.06795,-0.11244 0.14173,-0.2158 0.21835,-0.31208z" fill="#000000" stroke="none" stroke-width="0.5" stroke-linecap="butt"/><text transform="translate(571.62598,301.55029) scale(0.5,0.5)" font-size="40" xml:space="preserve" fill="#000000" fill-rule="nonzero" stroke="none" stroke-width="1" stroke-linecap="butt" stroke-linejoin="miter" stroke-miterlimit="10" stroke-dasharray="" stroke-dashoffset="0" font-family="&quot;RifficFree-Bold&quot;, Sans Serif" font-weight="normal" text-anchor="start" style="mix-blend-mode: normal"><tspan x="0" dy="0">Spy </tspan><tspan x="0" dy="46.150000000000006px">Houses</tspan></text><path d="M539.60646,327.84511l0.57707,-15.66335l-3.95706,-0.16488l7.74924,-12.94288l8.16143,12.94288l10.38728,-0.57707l-2.96779,2.80292l-0.08244,13.19019" fill="none" stroke="#000000" stroke-width="0.5" stroke-linecap="round"/><path d="M514.87486,328.01v-16.48774l-1.4839,1.40146l-1.31902,-1.40146l8.90338,-11.62386l12.44824,11.54142l-1.23658,1.0717l-0.74195,-0.82439l-0.08244,16.07555" fill="none" stroke="#000000" stroke-width="0.5" stroke-linecap="round"/></g></g></svg>