<svg version="1.1" xmlns="http://www.w3.org/2000/svg" xmlns:xlink="http://www.w3.org/1999/xlink" width="744.61629" height="338.5775" viewBox="0,0,744.61629,338.5775"><g transform="translate(-8.82396,-3.4138)"><g data-paper-data="{&quot;isPaintingLayer&quot;:true}" fill-rule="nonzero" stroke-linejoin="miter" stroke-miterlimit="10" stroke-dasharray="" stroke-dashoffset="0" style="mix-blend-mode: normal"><path d="M8.82396,341.9913v-338.5775h744.57978v338.5775z" fill="#aeaeae" stroke="none" stroke-width="NaN" stroke-linecap="butt"/><text transform="translate(18.82661,29.97531) scale(0.52807,0.52807)" font-size="40" xml:space="preserve" fill="#000000" fill-rule="nonzero" stroke="none" stroke-width="1" stroke-linecap="butt" stroke-linejoin="miter" stroke-miterlimit="10" stroke-dasharray="" stroke-dashoffset="0" font-family="&quot;RifficFree-Bold&quot;, Sans Serif" font-weight="normal" text-anchor="start" style="mix-blend-mode: normal"><tspan x="0" dy="0">Actions &amp; Skills</tspan></text><path d="M26.70741,89.12767v-52.30882h56.52327v52.30882z" fill="#00ff12" stroke="#000000" stroke-width="1" stroke-linecap="butt"/><path d="M26.70741,152.65438v-52.30882h56.52327v52.30882z" fill="#ff0000" stroke="#000000" stroke-width="1" stroke-linecap="butt"/><path d="M27.14126,212.71035v-52.30882h56.52327v52.30882z" fill="#00ff12" stroke="#000000" stroke-width="1" stroke-linecap="butt"/><path d="M27.14126,275.61728v-52.30882h56.52327v52.30882z" fill="#ff0000" stroke="#000000" stroke-width="1" stroke-linecap="butt"/><path d="M27.14125,336.49097v-52.30882h56.52328v52.30882z" fill="#c700ff" stroke="#000000" stroke-width="1" stroke-linecap="butt"/><text transform="translate(86.54053,49.41848) scale(0.40788,0.40788)" font-size="40" xml:space="preserve" fill="#000000" fill-rule="nonzero" stroke="none" stroke-width="1" stroke-linecap="butt" stroke-linejoin="miter" stroke-miterlimit="10" stroke-dasharray="" stroke-dashoffset="0" font-family="&quot;RifficFree-Bold&quot;, Sans Serif" font-weight="normal" text-anchor="start" style="mix-blend-mode: normal"><tspan x="0" dy="0">Easy Inspire</tspan></text><path d="M51.4323,58.76542c0.73421,0.10253 1.7472,0.14955 2.33539,0.69789c-0.18363,-0.18983 -0.57677,-0.61302 -0.68629,-0.83677c-0.34855,-0.71211 -0.81316,-1.69363 -0.03979,-2.4604c0.46862,-0.46463 3.04867,0.78754 3.47067,1.02947c0.38177,0.21887 -0.10729,-0.87421 -0.18977,-1.30647c-0.19615,-1.02802 -0.40449,-2.02283 -0.71291,-3.0229c0,0 -0.07989,-0.25962 0.06114,-0.46375c-0.08765,-0.11847 -0.19936,-0.20123 -0.35356,-0.22348c-0.11245,-0.01623 -0.22354,0.00663 -0.33371,0.04829c-0.76139,0.47534 -1.77193,0.80332 -2.44512,1.47701c-1.21934,1.22025 -2.74611,3.46571 -4.34155,4.76364c0.80351,0.77298 1.8962,1.35749 2.7747,2.13795c-0.09616,-0.5944 -0.12919,-1.34685 0.46078,-1.84048zM57.47742,57.62368c-0.70951,1.20865 -1.83465,0.20026 -2.73539,-0.06314c-0.39448,-0.11535 -0.97021,-0.89231 -1.12234,-0.51051c-0.32091,0.8054 1.85427,2.34106 1.01239,3.11909c-0.57008,0.52685 -2.2808,-0.14108 -2.96617,-0.37373c-0.28693,-0.15518 0.0736,0.02644 0.29429,0.62918c0.14783,0.40373 0.17291,0.92307 0.03725,1.35855c0.84062,1.18664 1.4168,2.42314 2.60119,3.38779c1.6485,0.67491 2.53966,2.60613 3.6907,3.88986c1.31884,1.47087 3.1458,2.4836 4.37582,4.0183c1.73531,-1.20112 3.51157,-2.36165 5.27196,-3.54003c-2.91671,-3.91479 -5.74043,-8.01731 -8.78853,-11.82812c-0.62202,-0.83522 -1.14156,-1.68168 -1.71694,-2.50464c0.23255,0.96291 0.34421,1.90897 0.04575,2.4174zM50.82538,62.34236c0,0 -0.47253,-0.15751 -0.34678,-0.62551c-0.67811,-0.86597 -1.43151,-1.65068 -2.41727,-2.19877c-0.24083,-0.13392 -0.44111,-0.3175 -0.61764,-0.51798c-1.15549,0.68356 -2.32709,0.72094 -3.42673,-0.61563c0.2935,-0.82379 1.71206,-2.45664 2.88206,-1.79658c0.36717,0.20714 0.47588,0.67238 0.66311,1.06953c1.53003,-1.20506 3.07967,-3.54998 4.2029,-4.67243c0.40656,-0.40628 0.83,-0.80117 1.28727,-1.14979c-0.33869,-0.43867 -0.55652,-0.99065 -0.46467,-1.4413c0.52477,-2.57493 3.09383,-1.17746 3.38661,0.65538c-0.02112,0.08018 -0.04771,0.15631 -0.07926,0.22881c1.38655,0.64032 3.26275,4.69438 4.08855,5.78603c3.06518,3.83075 5.88912,7.95616 8.83043,11.8852c0.54601,-0.36927 1.08958,-0.74122 1.62896,-1.11758c-1.00846,-0.98261 -2.5372,-1.92444 -2.91548,-3.15102c-0.76853,-2.49192 -0.80652,-5.22297 -0.80652,-7.84991c0.00518,-6.065 -1.09906,-10.78553 -5.39895,-15.09107c-3.10738,-3.90474 -11.21259,-2.37382 -15.16397,-0.89044c-6.03614,1.99171 -5.64313,8.47169 -6.66558,13.58392c0.0333,6.53937 2.56081,9.92199 7.41177,14.16662c1.10934,0.99618 2.17238,2.02106 3.66226,2.41712c3.39934,0.90367 9.19628,-1.2222 10.33424,3.31158c0.29833,-0.21677 0.59852,-0.43169 0.90026,-0.64505c-1.17659,-1.49673 -3.01308,-2.49462 -4.29857,-3.91831c-1.06585,-1.18045 -1.90975,-3.0871 -3.43549,-3.6817c-1.28606,-1.01372 -2.15903,-2.42142 -3.11314,-3.73429zM62.80859,74.45051c-0.0526,0.0263 -0.10227,0.04381 -0.149,0.05417c-0.49414,0.33674 -0.98753,0.67314 -1.47976,1.0094c-0.0396,0.11059 -0.12714,0.21975 -0.30417,0.29057c-0.06782,0.02712 -0.13,0.04112 -0.18682,0.0451c-0.38388,0.26264 -0.76695,0.52525 -1.14902,0.78794c-0.41844,0.78242 1.73413,3.76341 2.16072,4.54912c0.34094,0.62794 0.73197,1.22976 1.03886,1.87501c0.20091,0.42245 0.1765,1.65877 0.49271,1.31403c1.9156,-2.08842 3.98261,-3.52545 6.28915,-5.16116c1.55701,-0.93417 3.29747,-1.58677 4.89065,-2.44982c0.02287,-0.14948 0.11011,-0.32377 0.37491,-0.39944c0.13159,-0.0376 0.23881,-0.03135 0.32546,-0.00146c0.14321,-0.08698 0.28474,-0.17642 0.4243,-0.26869c0.6201,-0.40998 2.2986,-0.59904 1.87388,-1.20914c-1.37701,-1.97804 -1.90768,-4.01428 -3.07466,-6.1019c-0.54511,-0.33296 -0.77497,-0.7223 -1.04182,-1.20062c-0.55132,0.58687 -1.92807,1.22143 -2.28632,1.47961l-0.04488,0.05504c0,0 -0.29812,0.29812 -0.62799,0.09523c-2.41119,1.70458 -4.85911,3.37225 -7.29201,5.03002c-0.04448,0.07625 -0.11785,0.14878 -0.23422,0.20696zM54.14542,51.40756c0.40191,-0.05638 0.78489,-0.11789 0.77281,-0.37531c-0.25465,-1.43356 -1.51731,-0.83311 -1.20639,-0.18191c0.16065,0.33649 0.29782,0.49697 0.43358,0.55722zM46.80024,58.15431c-0.4319,-0.55632 -0.86032,-0.85138 -1.74868,0.0178c0.54834,0.34468 1.1409,0.28752 1.74868,-0.0178zM59.95066,74.90808c-0.70363,-3.48116 -4.48667,-2.31848 -7.10895,-2.51921c-2.80338,-0.2146 -4.59249,-1.1617 -6.6381,-2.99872c-5.08279,-4.44741 -7.79122,-8.18433 -7.76219,-15.06102c1.11678,-5.58393 0.83368,-12.2785 7.3641,-14.47545c4.42823,-1.65882 12.81137,-3.05443 16.30104,1.17903c4.48519,4.47897 5.66554,9.50559 5.67049,15.79808c0,2.60502 0.20652,5.02478 0.75233,7.51593c0.2034,0.92837 1.80868,2.00596 2.76328,2.8855c0.21967,-0.15681 0.43848,-0.31452 0.65633,-0.47326c0,0 0.27154,-0.19748 0.53904,-0.06098c0.04591,-0.05589 0.09065,-0.11486 0.13426,-0.17739v-0.22533c0,-0.29164 0.23643,-0.52807 0.52807,-0.52807c0.19573,0 0.36659,0.10649 0.4578,0.26468l0.32906,0.54843c0.39377,0.65717 0.47586,1.06303 1.1454,1.45715c0.8283,1.32202 0.85014,2.81337 1.63465,4.10427c0.32219,0.53013 1.6703,2.20915 1.74878,2.71006c0.12899,0.82314 -1.32304,1.382 -1.80203,1.68682c-0.36448,0.23194 -0.73479,0.45147 -1.10919,0.66265c1.02388,4.95584 -4.40861,7.04445 -8.58802,5.85032c-0.194,-0.07735 -0.38803,-0.15472 -0.58203,-0.23207l-0.0317,-0.06808c-0.41212,0.31614 -0.81812,0.64441 -1.21585,0.9916c-0.25648,0.2239 -1.46404,1.60408 -1.66564,1.66147c-1.21875,0.34693 -1.37972,-1.24591 -1.68897,-1.89544c-0.97713,-2.05232 -3.9106,-5.25977 -3.08109,-7.5138c0.42345,-0.33637 0.8526,-0.66697 1.28648,-0.99281zM67.30847,82.0522c3.28525,0.93864 7.86609,-0.4483 7.27517,-4.3235c-1.49194,0.78433 -3.02294,1.4931 -4.48499,2.37035c-0.93832,0.66415 -1.87841,1.29055 -2.7973,1.95031c0.00238,0.00095 0.00474,0.0019 0.00711,0.00285z" fill="#000000" stroke="none" stroke-width="0.5" stroke-linecap="butt"/><text transform="translate(85.18416,113.64838) scale(0.37022,0.37022)" font-size="40" xml:space="preserve" fill="#000000" fill-rule="nonzero" stroke="none" stroke-width="1" stroke-linecap="butt" stroke-linejoin="miter" stroke-miterlimit="10" stroke-dasharray="" stroke-dashoffset="0" font-family="&quot;RifficFree-Bold&quot;, Sans Serif" font-weight="normal" text-anchor="start" style="mix-blend-mode: normal"><tspan x="0" dy="0">SNAP at them!</tspan></text><path d="M32.94205,115.31557c-0.03736,-0.10612 -0.03917,-0.23967 0.04133,-0.40065c0.23617,-0.47232 0.70849,-0.23617 0.70849,-0.23617c3.70952,1.94172 10.24732,1.28621 12.9568,-2.0301c1.61804,-2.00151 1.05622,-4.52056 1.06375,-6.86127c0.00124,-0.38242 -0.46316,-1.85031 -0.30346,-2.07023c0.38215,-0.5263 4.1242,-0.68488 4.47649,-0.15602c0.47436,0.71212 0.32722,2.64404 0.33257,3.48844c0.13169,1.96953 0.91573,5.02462 0.05871,6.92369c-1.651,3.65849 -6.39059,4.29026 -9.94448,4.36713c-2.67863,0.00011 -6.60302,0.56956 -9.13708,-0.32112c-1.92818,-0.67772 -1.48197,-2.14034 -0.2531,-2.70369zM34.83312,116.24313c-0.18066,0.06064 -0.36165,0.00032 -0.36165,0.00032l-0.21552,-0.07865c-0.2157,-0.03651 -2.18245,-0.38076 -1.18676,0.71377c0.42543,0.46766 1.78681,0.3184 2.35984,0.2846c2.27449,-0.13417 4.59133,0.12105 6.89186,0.12113c3.13071,-0.06641 7.45997,-0.51873 8.98004,-3.71521c0.79766,-1.67733 -0.02224,-4.73354 -0.13842,-6.48118c-0.0049,-0.85316 0.10075,-1.99157 -0.06169,-2.81974c-0.02042,-0.10409 -2.34428,0.3661 -2.76081,0.15891c0.14829,0.5463 0.50626,2.70638 0.52628,3.00672c0.13464,2.02031 -0.09518,4.23821 -1.39958,5.88284c-2.78343,3.28829 -8.3905,4.18968 -12.6336,2.92649z" fill="#000000" stroke="none" stroke-width="0.5" stroke-linecap="butt"/><path d="M71.46662,119.29082c0,-0.13655 0.03531,-0.2378 0.08767,-0.31286c-4.87332,0.51117 -9.63208,0.45113 -14.48697,-0.2629c-1.7136,-0.74538 -1.85048,-1.98035 -2.42509,-3.58487c-0.50998,-1.42406 -1.39668,-2.97066 -1.50773,-4.48029c-0.16394,-2.22874 0.54537,-4.25571 -0.19815,-6.43956c0.89734,-1.9448 3.39749,-0.7283 5.16592,-0.72518c0.07712,0.00014 1.80203,-0.20971 1.90787,-0.07637c1.71826,2.16464 -3.90009,6.79988 -0.04145,9.03707c2.60495,1.9704 6.2923,2.62029 9.53065,2.00686c0.68698,-0.13014 3.35568,-1.82322 3.94209,-1.43462c0.81312,0.53884 0.5754,3.47905 0.63719,4.2961c0.26831,2.82664 0.68405,3.52956 -2.18149,2.46692l0.09756,0.03777c0,0 -0.52807,0 -0.52807,-0.52807zM72.45907,118.87667c0.24116,0.11337 0.6367,0.31833 0.89161,0.53647c-0.04981,-0.22425 -0.10116,-0.49462 -0.14828,-0.76943c-0.13729,0.15839 -0.35368,0.18544 -0.35368,0.18544c-0.12997,0.01623 -0.25985,0.03208 -0.38964,0.04751zM73.08069,117.85735c-0.02402,-0.17561 -0.04288,-0.33206 -0.05441,-0.45363c-0.05247,-0.70008 0.2316,-2.88984 -0.11276,-3.4709c-0.2818,-0.47548 -0.88478,0.67778 -1.38685,0.9089c-0.98001,0.45112 -1.88008,0.68886 -2.96148,0.73847c-3.37625,0.15488 -6.43923,-0.21405 -9.1858,-2.25791c-3.31828,-2.04504 -1.13681,-6.4527 -0.04145,-9.09892c0.28188,-0.68097 -1.46984,0.31003 -2.20061,0.21433c-0.66376,-0.08692 -1.22293,-0.19291 -1.89871,-0.19211c-0.04202,0.00005 -1.25021,-0.04178 -1.2461,-0.03525c0.83589,1.63304 0.08673,3.09647 0.09844,4.74229c0.01521,2.1362 0.84288,3.84865 1.54689,5.82509c0.41425,1.16299 0.47102,2.39998 1.71465,2.92043c5.15454,0.71155 10.16871,0.73309 15.36523,0.08302c0,0 0.19579,-0.02447 0.36297,0.07618z" fill="#000000" stroke="none" stroke-width="0.5" stroke-linecap="butt"/><path d="M74.6351,123.64854c0.24758,0.24757 0.16686,0.49515 0.08434,0.63389c0.01169,-0.00001 0.02338,-0.00002 0.03509,-0.00004c0,0 0.52807,0 0.52807,0.52807c0,0.52807 -0.52807,0.52807 -0.52807,0.52807c-0.13781,-0.00024 -0.27535,-0.00157 -0.41265,-0.00392c-0.06001,0.16389 -0.12413,0.3262 -0.19251,0.48656c-0.49342,0.98598 -0.88616,3.33325 -2.01017,3.73551c-0.4808,0.17208 -1.43874,-0.48494 -1.93339,-0.58353c-1.915,-0.38166 -7.44716,-0.48064 -8.0527,1.89629c-0.67415,2.33904 -0.21536,5.35054 -0.47566,7.79777c-0.03651,0.34327 0.07972,1.75025 -0.09652,2.02532c-0.60651,0.94664 -5.95955,2.14622 -6.63369,1.52581c-0.16094,-0.14811 -0.13813,-1.4702 -0.13813,-1.86264c0.00789,-4.4426 -0.96541,-16.01752 5.08984,-16.65993c4.71734,-0.80803 9.07057,0.38126 13.68191,0.56374c0.02456,-0.08875 0.04785,-0.1778 0.06996,-0.26708l0.23748,-0.34389c0,0 0.3734,-0.37341 0.7468,0zM73.22618,125.29447c-4.43229,-0.23758 -8.64869,-1.32566 -13.18565,-0.55208c-2.7206,0.25317 -2.86547,2.06771 -3.29474,4.35754c-0.71021,3.78838 -0.8868,7.43484 -0.88054,11.25578c0,1.89965 0.717,0.89835 2.30797,0.33278c0.08864,-0.0315 2.48878,-0.48273 2.55091,-0.61347c1.20634,-2.53871 -0.37491,-6.7147 0.41346,-9.4957c0.91227,-2.96844 5.76251,-2.89819 8.32361,-2.74776c0.24749,0.01454 2.27887,0.75176 2.389,0.70931c0.48007,-0.18504 1.08099,-2.64349 1.34104,-3.16405c0.0118,-0.02738 0.02344,-0.05482 0.03493,-0.08234z" fill="#000000" stroke="none" stroke-width="0.5" stroke-linecap="butt"/><path d="M30.51904,122.57296c-0.25453,-0.03781 -0.44982,-0.25726 -0.44982,-0.52232c0,-0.2454 0.16739,-0.4517 0.39423,-0.51096l0.31959,-0.09131c-0.05381,-0.45292 -0.08309,-0.80925 -0.04562,-0.85478c0.84793,-1.03039 5.1338,-0.59097 6.42889,-0.81223l0.59864,-0.03223c0,0 0.52736,-0.0276 0.55495,0.49976c0.0276,0.52735 -0.49976,0.55495 -0.49976,0.55495l-0.53689,0.0272c-0.1342,0.02305 -0.26929,0.043 -0.40508,0.0603c0.00497,0.0091 0.00973,0.01854 0.01421,0.0283c3.44759,-0.27583 7.17504,-0.08396 9.94185,1.02562c7.35326,2.11789 4.28466,9.43026 5.67145,14.89537c0.14533,1.29352 0.75488,3.82033 0.16526,5.02662c-0.4635,0.94825 -4.88675,1.21562 -5.87344,0.65171c-1.37295,-0.78466 -0.77261,-5.38021 -0.44705,-6.70717c1.58582,-5.52117 -1.294,-9.96319 -7.31094,-8.5712c-1.49686,0.27606 -5.64703,1.74695 -7.06958,0.6637c-0.819,-0.62367 -0.85788,-3.35826 -0.90365,-4.31891c-0.00484,-0.1015 -0.05951,-0.48319 -0.12401,-0.94185zM31.63995,121.14213c-0.13422,0.01988 -0.21135,0.07705 -0.24651,0.16229c0.53744,-0.08337 1.06819,-0.18136 1.5975,-0.27625c-0.46116,0.01681 -0.91355,0.04918 -1.35099,0.11396zM31.75884,122.4913c0.17644,0.37035 0.34913,0.75029 0.36247,1.04504c0.02152,0.47578 0.08246,3.24904 0.45456,3.50288c1.14848,0.78346 5.0245,-0.60356 6.2484,-0.83263c6.75795,-1.55574 10.32206,3.63272 8.54641,9.87836c-0.31342,1.22627 -0.17848,2.5439 -0.17915,3.80602c-0.00002,0.04812 -0.08488,1.64939 0.12637,1.7089c0.42317,0.11923 4.369,-0.07607 4.37733,-0.13681c0.19322,-1.40878 -0.07418,-3.02558 -0.22899,-4.43563c-1.223,-4.96125 1.67584,-12.19927 -4.97359,-14.08281c-3.99959,-1.59588 -10.09,-1.19593 -14.20372,-0.27988c0,0 -0.34113,0.07581 -0.53005,-0.17342z" fill="#000000" stroke="none" stroke-width="0.5" stroke-linecap="butt"/><text transform="translate(86.37412,176.97144) scale(0.45663,0.45663)" font-size="40" xml:space="preserve" fill="#000000" fill-rule="nonzero" stroke="none" stroke-width="1" stroke-linecap="butt" stroke-linejoin="miter" stroke-miterlimit="10" stroke-dasharray="" stroke-dashoffset="0" font-family="&quot;RifficFree-Bold&quot;, Sans Serif" font-weight="normal" text-anchor="start" style="mix-blend-mode: normal"><tspan x="0" dy="0">Support Me!</tspan></text><path d="M44.56927,185.03559c-0.23617,-0.47232 0.23617,-0.7085 0.23617,-0.7085l0.14032,-0.05705c0.07842,-0.06271 0.1698,-0.13978 0.27218,-0.22809c0.20935,-0.55049 0.41449,-1.09668 0.61142,-1.63734c0.84452,-2.31862 1.07444,-5.10327 2.47125,-7.17422c0.9408,-4.40866 2.48198,-8.31112 3.9494,-12.55002c-1.04361,0.53614 -3.17396,0.44023 -4.00688,0.50155c-3.60248,0.26519 -7.30288,0.95188 -10.8214,1.65648c-1.75932,0.35166 -1.14206,0.94343 -0.86992,2.55496l0.00718,0.20384c0,0 0,0.52807 -0.52807,0.52807c-0.16023,0 -0.27183,-0.04861 -0.34959,-0.11635c0,5.07998 0,10.15996 0,15.23995c0,4.77219 0,9.54438 0,14.31657c2.16635,-0.44766 3.35348,-2.32619 5.41145,-0.77276c0.29706,-1.03218 0.58389,-2.0681 0.86135,-3.10792c0.63394,-2.78746 1.73299,-5.65013 2.79945,-8.42913c-0.0679,-0.04536 -0.13192,-0.11527 -0.18431,-0.22005zM50.02797,181.14653c0.97777,0.36588 1.72224,3.96763 1.61281,5.96044c0.04236,0.43171 0.07938,0.78071 0.1224,0.99088l-0.00177,0.00892l0.00324,-0.00055l0.11538,0.69233c0.0058,0.03133 0.00882,0.06362 0.00882,0.09663c0,0.29164 -0.23643,0.52807 -0.52807,0.52807c-0.22667,0 -0.41999,-0.14281 -0.49488,-0.34338l-0.22947,-0.57368l0.1164,-0.04656l-0.02896,-0.17377c-0.03072,-0.15688 -0.05983,-0.31443 -0.08765,-0.47249c-0.16376,-0.58854 -0.21931,-1.20889 -0.28182,-1.84919c-0.07837,-0.56249 -0.15531,-1.12559 -0.24409,-1.68383c-0.04106,-0.25815 -0.21102,-0.61228 -0.35576,-0.94521c-0.00628,0.01483 -0.01245,0.02895 -0.01844,0.04229c-0.68653,1.52698 -1.13523,3.06018 -1.59723,4.67112c-1.43318,1.88949 -0.98864,4.49929 -1.53157,6.70799c-0.72306,2.9414 -1.731,6.17374 -3.08275,8.88551c0,0 -0.23615,0.47232 -0.70849,0.23617c-0.47233,-0.23615 -0.23617,-0.70849 -0.23617,-0.70849c1.32934,-2.64999 2.27091,-5.79815 3.0024,-8.66777c0.58544,-2.2967 0.1271,-4.92196 1.60814,-6.91808c0.41491,-1.60864 0.88853,-3.13115 1.58221,-4.6391c0.04801,-0.10436 0.13875,-0.33655 0.23874,-0.59137c-0.82295,0.49179 -2.14603,1.64874 -2.90241,2.30898c-1.1675,3.03621 -2.46653,6.21134 -3.12889,9.27305c-1.46174,5.48485 -3.18488,10.86194 -5.28777,16.15797c0.02311,0.05997 0.03688,0.13148 0.03688,0.21677c0,0.52807 -0.52807,0.52807 -0.52807,0.52807h-0.58512c-0.43945,0 -1.61064,0.02393 -1.83618,-0.15466c-0.1918,-0.15187 -0.15466,-1.38144 -0.15466,-1.65769c0,-2.39994 0,-4.79987 0,-7.1998c0,-1.07028 0,-2.14056 0,-3.21084c-0.14081,-0.06093 -0.29256,-0.19226 -0.29256,-0.47534c0,-0.28308 0.15176,-0.41441 0.29256,-0.47534c0,-4.80523 0,-9.61046 0,-14.41568c0,-5.99737 0,-11.99474 0,-17.99211c0,0 0,-0.52807 0.52807,-0.52807c0.1138,0 0.20307,0.02451 0.2731,0.06299c0.24097,-0.46031 0.76677,-0.7845 1.78824,-0.98891c3.56301,-0.71165 7.30727,-1.4065 10.95365,-1.67433c1.43185,-0.10517 2.93833,-0.52227 4.36276,-0.51103v-0.16533h0.70214c0.29164,0 0.52807,0.23643 0.52807,0.52807c0,0.1208 -0.04057,0.23214 -0.10881,0.32111l-0.30922,0.41229c-1.43651,4.41068 -3.02981,8.40312 -4.07118,12.93138c-1.34162,2.03458 -1.59656,4.69516 -2.39821,6.97521c1.12289,-0.90753 2.40037,-1.75568 3.15418,-1.4736z" fill="#000000" stroke="none" stroke-width="0.5" stroke-linecap="butt"/><text transform="translate(89.01449,234.2573) scale(0.36042,0.36042)" font-size="40" xml:space="preserve" fill="#000000" fill-rule="nonzero" stroke="none" stroke-width="1" stroke-linecap="butt" stroke-linejoin="miter" stroke-miterlimit="10" stroke-dasharray="" stroke-dashoffset="0" font-family="&quot;RifficFree-Bold&quot;, Sans Serif" font-weight="normal" text-anchor="start" style="mix-blend-mode: normal"><tspan x="0" dy="0">Not Listening</tspan></text><path d="M33.10537,268.64706c-0.52807,0 -0.52807,-0.52807 -0.52807,-0.52807l0.03777,-0.31314c0.19913,-0.49507 0.44947,-0.96939 0.71443,-1.43257c0.94493,-2.52737 2.56954,-4.44742 3.80188,-6.78325c1.3535,-2.56548 2.3413,-5.06765 3.72562,-7.48117c-2.72072,-4.32191 -5.61252,-8.58081 -7.65079,-13.26881c0,0 -0.21055,-0.48429 0.27372,-0.69484c0.48428,-0.21056 0.69483,0.27372 0.69483,0.27372c1.94608,4.47597 4.67531,8.56081 7.28882,12.68191c0.4055,-0.64123 0.84726,-1.27581 1.34006,-1.90325c3.64391,-4.62016 5.47393,-10.54505 9.96473,-14.47617c0,0 0.39742,-0.34774 0.74516,0.04968c0.34774,0.39742 -0.04967,0.74516 -0.04967,0.74516c-4.41841,3.86443 -6.25563,9.76908 -9.82974,14.33385c-0.57945,0.73717 -1.0865,1.48421 -1.54618,2.2404c0.38353,0.6117 0.76295,1.22494 1.13533,1.84112c1.21144,2.00866 1.97028,4.13543 2.99525,6.23275c1.59508,3.26386 4.00763,6.63216 4.03205,10.41211v0.11702c0,0 0,0.52807 -0.52807,0.52807c-0.52807,0 -0.52807,-0.52807 -0.52807,-0.52807v-0.11702c0.02898,-3.56904 -2.4258,-6.88069 -3.92544,-9.9497c-1.011,-2.069 -1.7557,-4.16928 -2.95011,-6.1497c-0.27259,-0.45294 -0.54903,-0.90424 -0.82818,-1.35444c-1.2416,2.2493 -2.17081,4.57513 -3.42488,6.95962c-1.22531,2.32982 -2.83464,4.22549 -3.78029,6.73991c-0.25435,0.44558 -0.50031,0.89917 -0.68984,1.37595l0.03778,-0.07911c0,0 0,0.52807 -0.52807,0.52807z" fill="#000000" stroke="none" stroke-width="0.5" stroke-linecap="butt"/><path d="M58.22336,257.6092c0.1146,0.0191 0.19979,0.05921 0.26295,0.11017c0.41854,0.13047 0.94043,0.27043 1.43731,0.37324c0.0389,-0.00757 0.08158,-0.01172 0.12841,-0.01172c0.14316,0 0.24751,0.03881 0.32357,0.09539c0.61024,0.0979 1.11066,0.10838 1.21851,-0.07132c0.55347,-0.92222 0.40672,-1.40494 0.8419,-1.94426l-0.14536,-0.14536l0.43533,-0.43533l0.16113,0.16114c0.11751,-0.0875 0.25428,-0.17885 0.41436,-0.2756l0.14494,0.48788h0.18106v0.60947c-0.00217,3.22639 -0.73091,6.2184 -1.05061,9.39434c-0.31302,1.57107 -0.40277,4.38174 -1.56398,5.45918c-0.24562,0.2279 0.66368,0.09911 0.9982,0.11823c0.62073,0.0355 1.24804,-0.00045 1.86301,0.09108c2.25454,0.33559 4.33811,1.30427 6.62604,1.30019c0.23618,0 2.6673,0.11762 2.66885,0.10476c0.4193,-3.49621 -0.84213,-7.21401 -0.84609,-10.72132c0,-0.77263 -0.23692,-4.61439 0.5636,-5.09201c1.55408,-0.92721 2.24453,3.12815 2.62884,3.65722c0.04943,0.06805 0.27852,-0.14034 0.58893,-0.48386c-0.01056,-0.07566 -0.02128,-0.15129 -0.03217,-0.22689c0,0 -0.07468,-0.52276 0.44808,-0.59745c0.10681,-0.01526 0.19491,-0.00558 0.26749,0.01949c0.61271,-0.75176 1.27148,-1.61866 1.54611,-1.98269c-0.01066,-0.1526 0.01844,-0.45672 0.39676,-0.5513c0.02094,-0.00524 0.04124,-0.0094 0.06093,-0.01258c0.40087,-0.61439 0.17386,-1.14264 -0.50845,-1.96175c-0.57269,-0.68751 -1.75367,-0.81386 -2.51317,-1.16698c-1.28117,-0.59568 -2.36157,-1.40436 -3.44252,-2.26277c-0.06001,0.05087 -0.1109,0.07632 -0.1109,0.07632c-1.28542,0.64271 -6.57185,3.21202 -7.34483,0.50431c-0.08608,-0.30154 0.01135,-0.75716 0.19688,-1.27552c-1.40402,0.40966 -3.11057,0.99546 -3.86318,2.21823c-0.51142,1.02654 -1.19346,1.7403 -1.99881,2.54625c-0.07925,0.07932 -1.59606,1.63605 -1.54265,1.68154c0.05159,0.04394 0.21974,0.11628 0.45949,0.2007c0.03142,0.00065 0.06473,0.00375 0.10004,0.00963zM56.6463,271.10063c0.06638,1.7517 -0.81503,1.29865 -1.4838,2.10541c-1.04179,1.25673 2.44602,2.76836 3.21512,1.50438c0.08441,-0.13871 -0.48554,-2.67568 -0.42022,-3.32884c-0.00465,-4.13457 1.44549,-8.12893 1.55948,-12.25318c-0.32881,-0.05532 -0.65676,-0.12881 -0.96708,-0.2173c-0.43845,3.72966 -0.09029,8.9675 -1.90349,12.18953zM59.01223,271.4342c-0.10369,1.03693 0.70134,3.09983 0.27632,3.8107c-1.04014,1.73968 -4.58871,0.99003 -4.9787,-0.86172c-0.46099,-2.18893 1.26605,-1.58675 1.31182,-3.5387c1.75047,-3.4256 1.43189,-8.44341 1.90524,-12.26815l0.00748,-0.04491c-0.42509,-0.20966 -0.73499,-0.45353 -0.84063,-0.71492c-0.5699,-1.41017 2.98537,-3.95428 3.59807,-5.17552c1.13367,-1.62573 3.17827,-2.32912 5.01331,-2.85472l0.08304,-0.05164c0,0 0.0975,-0.04875 0.22605,-0.05766c0.36304,-0.76886 0.75264,-1.5225 0.9228,-2.02539c-0.00956,-0.01263 -0.01908,-0.02514 -0.02859,-0.03751c-1.6778,-2.18416 -1.52698,-3.6847 -1.51353,-6.4751c-0.05147,-0.27421 -0.07414,-0.51399 -0.07108,-0.72429c-1.24431,-0.22344 -1.84693,-1.45549 -0.66457,-2.43548c1.44793,-1.20013 4.99159,-2.36385 6.90111,-2.56881c1.1873,0.22609 2.45842,0.41559 3.61965,0.71837c0.92651,0.24157 2.14257,1.71866 2.15151,2.73475c0.0089,1.01143 -0.73211,1.48636 -1.41674,1.85102c-0.34865,0.1857 -0.51701,1.38081 -0.60856,1.61704c-0.55195,1.42415 -1.70816,2.46504 -2.2747,3.84396c-0.1345,0.13717 -0.28884,0.31597 -0.4575,0.51982c0.11444,0.1899 0.05738,0.41818 0.05738,0.41818c-0.29927,1.18589 -0.68178,1.9655 -0.27339,2.93541c0.10686,0.037 0.17805,0.09393 0.17805,0.09393c2.01642,1.6177 9.90239,4.6248 7.34164,7.74266c1.10268,4.83569 0.94437,10.48091 1.03863,15.38892c0.11613,0.68762 0.17287,1.38114 0.2594,2.07306l0.00408,0.23963c0,0 0,0.52807 -0.52807,0.52807c-0.52807,0 -0.52807,-0.52807 -0.52807,-0.52807l0.00408,-0.10864c-0.08784,-0.70305 -0.14791,-1.40704 -0.26301,-2.10618c-0.09825,-4.53819 0.07452,-9.77136 -0.8184,-14.33665c-0.38519,0.57761 -0.87862,1.28708 -1.41073,1.86059c0.53232,4.21946 0.63482,8.50992 1.10551,12.74619c0.00072,0.88041 0.00081,1.76082 0.00081,2.64123v0.5224c0,0 0,0.52807 -0.52807,0.52807c-0.52807,0 -0.52807,-0.52807 -0.52807,-0.52807v-0.5224c0,-0.86094 0.00006,-1.72188 0.00081,-2.58282c-0.44251,-3.98256 -0.5489,-8.01652 -1.01343,-11.98968c-0.4145,0.24094 -0.82781,0.31757 -1.21074,0.11748c-0.6649,-0.34744 -0.83527,-1.79639 -1.12628,-2.43819c-0.01131,-0.02494 -0.19238,-0.35377 -0.35422,-0.6638c0.14646,1.02967 -0.20283,3.1016 -0.20283,3.5827c-0.00326,2.67465 0.50479,5.394 0.69521,8.05984c0.0574,0.80357 0.37499,2.45052 0.02592,3.15984c-0.29821,0.60597 -1.18023,0.65446 -2.04085,0.59245c-0.01424,0.25034 -0.04015,0.50005 -0.08053,0.74711l0.00718,0.34852c0,0 0,0.52807 -0.52807,0.52807c-0.52807,0 -0.52807,-0.52807 -0.52807,-0.52807l0.00718,-0.52215c0.03823,-0.2243 0.06102,-0.45155 0.07196,-0.67926c-0.193,-0.01967 -0.36634,-0.03363 -0.50881,-0.03363c-2.70428,-0.00437 -5.26221,-1.05527 -7.9682,-1.3438c-0.50381,0.88583 -1.04043,1.91708 -1.17353,2.91473l-0.23643,0.38579c0,0 -0.3734,0.3734 -0.74681,0c-0.30173,-0.30173 -0.11584,-0.60345 -0.03335,-0.70817c0.17016,-0.92491 0.58275,-1.84106 1.03717,-2.68743c-0.69077,-0.08285 -1.37093,-0.31751 -1.41713,-1.23085c-0.0578,-1.14268 1.29379,-4.1318 1.57046,-5.51133c0.2409,-2.4259 0.73488,-4.73798 0.94309,-7.13527c-0.04786,0.07816 -0.09354,0.14172 -0.13449,0.18605c-0.28484,0.30842 -0.97096,0.42005 -1.77196,0.38858c-0.14008,4.10399 -1.55248,8.08077 -1.55672,12.19385zM65.85469,251.84235c0.05906,0.28865 1.44716,0.36095 1.68515,0.36149c1.40733,0.00321 2.53181,-0.57283 3.73711,-1.18771c-0.60868,-0.9875 -0.6104,-1.79378 -0.42133,-2.72522c-0.5334,0.60124 -1.07882,1.11582 -1.54053,1.25449c-0.90976,0.27325 -1.55025,-0.2756 -2.07116,-0.92918c-0.54906,1.13883 -1.47326,2.81547 -1.38924,3.22613zM65.29845,239.38864c0.44015,-0.43889 1.22379,-0.54171 2.11148,-0.6926c2.79854,-0.4757 5.66673,-1.91359 7.96653,0.68187c0.48706,-0.5223 0.67034,-0.99036 -0.47594,-2.09369c-0.55184,-0.53116 -2.9454,-0.63994 -3.78593,-0.81867c-2.06431,0.23927 -3.23476,1.56455 -5.10213,2.08773c-0.37558,0.10523 -1.14507,-0.07078 -1.39087,0.46327c-0.17173,0.37312 0.4157,0.39319 0.54778,0.37209zM74.65242,240.14755c-1.42642,-1.70347 -3.8624,-1.44932 -5.67293,-0.78848c-0.87526,0.31946 -2.13579,0.09456 -2.697,0.54932c0.00003,0.00276 0.00005,0.00553 0.00005,0.00832c0,0.26833 -0.13635,0.4003 -0.27047,0.46522c-0.03123,0.17416 -0.02294,0.38843 0.03386,0.65296c0.01034,2.56332 -0.24264,3.94986 1.26501,5.89084c0.29407,0.1057 0.31928,0.43195 0.32144,0.4871c0.34929,0.55192 0.88469,1.33285 1.34872,1.13061c0.86996,-0.37916 2.01909,-2.21772 2.7687,-2.94932c0.59795,-1.54159 1.80686,-3.68541 2.672,-5.11698c0.07177,-0.11875 0.14969,-0.22792 0.23061,-0.3296z" fill="#000000" stroke="none" stroke-width="0.5" stroke-linecap="butt"/><text transform="translate(88.57347,297.77763) scale(0.4084,0.4084)" font-size="40" xml:space="preserve" fill="#000000" fill-rule="nonzero" stroke="none" stroke-width="1" stroke-linecap="butt" stroke-linejoin="miter" stroke-miterlimit="10" stroke-dasharray="" stroke-dashoffset="0" font-family="&quot;RifficFree-Bold&quot;, Sans Serif" font-weight="normal" text-anchor="start" style="mix-blend-mode: normal"><tspan x="0" dy="0">Spy Houses</tspan></text><path d="M57.39647,336.55616l0.60947,-16.54283l-4.17924,-0.17414l8.18435,-13.66961l8.61968,13.66961l10.97051,-0.60947l-3.13443,2.9603l-0.08707,13.9308" fill="none" stroke="#000000" stroke-width="0.5" stroke-linecap="round"/><path d="M31.27623,336.73031v-17.4135l-1.56722,1.48015l-1.39308,-1.48015l9.40329,-12.27652l13.14719,12.18946l-1.30601,1.13187l-0.78361,-0.87068l-0.08707,16.97817" fill="none" stroke="#000000" stroke-width="0.5" stroke-linecap="round"/><path d="M257.03645,75.39774v-52.30882h56.52327v52.30882z" fill="#c700ff" stroke="#000000" stroke-width="1" stroke-linecap="butt"/><path d="M259.25585,110.87693c0,-15.31149 12.41241,-27.7239 27.7239,-27.7239c15.31149,0 27.7239,12.41241 27.7239,27.7239c0,15.31149 -12.41241,27.7239 -27.7239,27.7239c-15.31149,0 -27.7239,-12.41241 -27.7239,-27.7239z" fill="#00ff12" stroke="#000000" stroke-width="1" stroke-linecap="butt"/><path d="M262.85452,179.65861c0,-15.31149 12.41241,-27.7239 27.7239,-27.7239c15.31149,0 27.7239,12.41241 27.7239,27.7239c0,15.31149 -12.41241,27.7239 -27.7239,27.7239c-15.31149,0 -27.7239,-12.41241 -27.7239,-27.7239z" fill="#ff0000" stroke="#000000" stroke-width="1" stroke-linecap="butt"/><path d="M266.68028,246.02298c0,-15.31149 12.41241,-27.7239 27.7239,-27.7239c15.31149,0 27.7239,12.41241 27.7239,27.7239c0,15.31149 -12.41241,27.7239 -27.7239,27.7239c-15.31149,0 -27.7239,-12.41241 -27.7239,-27.7239z" fill="#0049ff" stroke="#000000" stroke-width="1" stroke-linecap="butt"/><path d="M266.97756,309.78795c0,-15.31149 12.41241,-27.7239 27.7239,-27.7239c15.31149,0 27.7239,12.41241 27.7239,27.7239c0,15.31149 -12.41241,27.7239 -27.7239,27.7239c-15.31149,0 -27.7239,-12.41241 -27.7239,-27.7239z" fill="#ff0000" stroke="#000000" stroke-width="1" stroke-linecap="butt"/><path d="M534.66324,41.30313c0,-15.31149 12.41241,-27.7239 27.7239,-27.7239c15.31149,0 27.7239,12.41241 27.7239,27.7239c0,15.31149 -12.41241,27.7239 -27.7239,27.7239c-15.31149,0 -27.7239,-12.41241 -27.7239,-27.7239z" fill="#ff0000" stroke="#000000" stroke-width="1" stroke-linecap="butt"/><text transform="translate(88.2023,60.25265) scale(0.21352,0.21352)" font-size="40" xml:space="preserve" fill="#000000" fill-rule="nonzero" stroke="none" stroke-width="1" stroke-linecap="butt" stroke-linejoin="miter" stroke-miterlimit="10" stroke-dasharray="" stroke-dashoffset="0" font-family="&quot;SagoMiniRounded-Bold_v2&quot;, Sans Serif" font-weight="normal" text-anchor="start" style="mix-blend-mode: normal"><tspan x="0" dy="0">Xin has Easy Inspiration from other Games</tspan><tspan x="0" dy="46.150000000000006px">as it usally Converts to take over with</tspan><tspan x="0" dy="46.150000000000006px">Houses. Somtimes making the similar</tspan></text><text transform="translate(88.2023,121.87671) scale(0.1535,0.1535)" font-size="40" xml:space="preserve" fill="#000000" fill-rule="nonzero" stroke="none" stroke-width="1" stroke-linecap="butt" stroke-linejoin="miter" stroke-miterlimit="10" stroke-dasharray="" stroke-dashoffset="0" font-family="&quot;SagoMiniRounded-Bold_v2&quot;, Sans Serif" font-weight="normal" text-anchor="start" style="mix-blend-mode: normal"><tspan x="0" dy="0">If too  many School Leaders or People Tells</tspan><tspan x="0" dy="46.150000000000006px">Xin What to do or giving directions or Asking</tspan><tspan x="0" dy="46.150000000000006px">Non Allowed Questions, you have a 4% chance</tspan><tspan x="0" dy="46.150000000000006px">of him Yelling or Snapping at you to Resist.</tspan><tspan x="0" dy="46.150000000000006px">(this can Draw attention to School Issues.)</tspan></text><text transform="translate(88.2023,187.60904) scale(0.1535,0.1535)" font-size="40" xml:space="preserve" fill="#000000" fill-rule="nonzero" stroke="none" stroke-width="1" stroke-linecap="butt" stroke-linejoin="miter" stroke-miterlimit="10" stroke-dasharray="" stroke-dashoffset="0" font-family="&quot;SagoMiniRounded-Bold_v2&quot;, Sans Serif" font-weight="normal" text-anchor="start" style="mix-blend-mode: normal"><tspan x="0" dy="0">People that makes fun of Xin or Blames Xin for the Wrost</tspan><tspan x="0" dy="46.150000000000006px">or Dumbest reasons including Dirty pranks will cause Xin to </tspan><tspan x="0" dy="46.150000000000006px">Get Triggered emotes. Leaving him very bad Emotioned for the</tspan><tspan x="0" dy="46.150000000000006px">Rest of the school day.</tspan></text><text transform="translate(85.43268,239.81639) scale(0.1575,0.1575)" font-size="40" xml:space="preserve" fill="#000000" fill-rule="nonzero" stroke="none" stroke-width="1" stroke-linecap="butt" stroke-linejoin="miter" stroke-miterlimit="10" stroke-dasharray="" stroke-dashoffset="0" font-family="&quot;SagoMiniRounded-Bold_v2&quot;, Sans Serif" font-weight="normal" text-anchor="start" style="mix-blend-mode: normal"><tspan x="0" dy="0">There is certain things that if you say, ask, or force on Xin that</tspan><tspan x="0" dy="46.150000000000006px"> he might have triggered emotions and could be very bad. And it </tspan><tspan x="0" dy="46.150000000000006px">may end up doing loud imaginative Interruption talking.</tspan><tspan x="0" dy="46.150000000000006px"> If this happens too many times he will lose trust on that person </tspan><tspan x="0" dy="46.150000000000006px">inflicting him to walk away from them.</tspan></text><text transform="translate(85.70964,306.96918) scale(0.1575,0.1575)" font-size="40" xml:space="preserve" fill="#000000" fill-rule="nonzero" stroke="none" stroke-width="1" stroke-linecap="butt" stroke-linejoin="miter" stroke-miterlimit="10" stroke-dasharray="" stroke-dashoffset="0" font-family="&quot;SagoMiniRounded-Bold_v2&quot;, Sans Serif" font-weight="normal" text-anchor="start" style="mix-blend-mode: normal"><tspan x="0" dy="0">His imaginative houses is actually spying in Xin's brain and vision</tspan><tspan x="0" dy="46.150000000000006px"> in real life. The houses records everything that Xin sees and </tspan><tspan x="0" dy="46.150000000000006px">whatever is happening. If a skill is triggered and it is a bad one. </tspan><tspan x="0" dy="46.150000000000006px">Will activate and unlock house news.</tspan></text><text transform="translate(315.26503,51.87159) scale(0.1575,0.1575)" font-size="40" xml:space="preserve" fill="#000000" fill-rule="nonzero" stroke="none" stroke-width="1" stroke-linecap="butt" stroke-linejoin="miter" stroke-miterlimit="10" stroke-dasharray="" stroke-dashoffset="0" font-family="&quot;SagoMiniRounded-Bold_v2&quot;, Sans Serif" font-weight="normal" text-anchor="start" style="mix-blend-mode: normal"><tspan x="0" dy="0">Xin Is always with the computer and using Force Volume. skill. He also does </tspan><tspan x="0" dy="46.150000000000006px">other things including classwork but mostly does the project</tspan><tspan x="0" dy="46.150000000000006px"> (YTPMV Shuric Scans.)  lose all skills of YTPMV after graduated.</tspan></text><text transform="translate(316.309,37.1712) scale(0.37022,0.37022)" font-size="40" xml:space="preserve" fill="#000000" fill-rule="nonzero" stroke="none" stroke-width="1" stroke-linecap="butt" stroke-linejoin="miter" stroke-miterlimit="10" stroke-dasharray="" stroke-dashoffset="0" font-family="&quot;RifficFree-Bold&quot;, Sans Serif" font-weight="normal" text-anchor="start" style="mix-blend-mode: normal"><tspan x="0" dy="0">I'm Loud and Music Making!</tspan></text><path d="M278.93062,50.40615c1.14595,0.38413 2.26249,0.89661 3.37282,1.44501c0.63052,-0.47221 1.2337,-0.96003 1.77915,-1.47269c-0.3735,-0.16496 -0.72762,-0.36831 -1.0528,-0.62668c-0.43633,-0.17185 -0.87277,-0.32899 -1.3112,-0.46869c-1.09813,0.23871 -2.00569,0.62879 -2.88635,1.07523c0.03294,0.01572 0.06573,0.03167 0.09839,0.04782zM278.52645,51.38191c-0.29568,-0.14953 -0.6041,-0.28521 -0.92408,-0.37254c-0.51375,0.27577 -1.0439,0.55554 -1.62181,0.82114c-0.9134,0.41978 -2.78326,0.96371 -3.33773,1.77811l-0.00925,0.00687c0.39098,0.21652 0.77208,0.43841 1.13938,0.66505c1.21042,0.18285 2.65201,0.39211 4.15081,0.67435l0.03119,-0.03037c1.05884,-0.79413 2.24745,-1.57165 3.39752,-2.38373c-0.92839,-0.43784 -1.86572,-0.84064 -2.82605,-1.15888zM291.72924,61.17788c-0.03624,-0.07248 -0.0558,-0.1394 -0.06294,-0.20075c-1.04273,-0.35682 -2.03599,-0.87895 -3.06462,-1.2728c-0.49869,0.81869 -1.47095,1.66755 -2.30397,2.29002c2.13259,0.95139 4.28215,1.94595 6.52303,2.30358c0.58716,0.09371 1.74027,-1.18005 2.09497,-1.43672c0.62122,-0.44952 1.26833,-0.83004 1.92389,-1.19306c-1.30944,-0.31861 -2.78702,-0.14593 -4.11645,-0.40187l-0.28542,0.14777c0,0 -0.47233,0.23617 -0.70849,-0.23616zM302.10938,53.48588c-0.96324,0.71869 -1.88754,1.48255 -2.79661,2.26502c1.73889,0.16332 3.47688,0.30916 5.22595,0.32297c0.33419,-0.37413 0.64194,-0.74951 0.91506,-1.11875c0.16775,-0.22678 -0.00458,-1.10913 -0.19742,-1.91789c-0.87329,0.28854 -2.01643,0.27688 -2.97836,0.24333c-0.06616,0.12846 -0.16862,0.20532 -0.16862,0.20532zM293.99555,60.34131c1.38505,0.12378 2.78512,0.13571 4.06177,0.66344c0.3589,-0.19652 0.71711,-0.39726 1.07181,-0.61053c1.46392,-0.76164 3.06402,-1.97312 4.41903,-3.28951c-1.78023,-0.06498 -3.5492,-0.23974 -5.32155,-0.40668c-1.39474,1.22818 -2.77574,2.47548 -4.23107,3.64327zM294.43586,55.09032c-0.07949,0.07997 -0.1593,0.1594 -0.23946,0.23831c1.23394,0.06194 2.46162,0.17077 3.68725,0.28649c0.92922,-0.81667 1.86653,-1.62363 2.83901,-2.39253c-1.31024,-0.08215 -2.58946,-0.17795 -3.85304,-0.30348c-0.92447,0.22782 -1.78656,1.52005 -2.43376,2.1712zM289.79163,59.0682c0.60016,0.28936 1.19138,0.58908 1.78207,0.80313c0.31745,0.11504 0.64054,0.20198 0.96734,0.2696c1.48689,-1.12482 2.87788,-2.34735 4.26345,-3.57283c-1.22359,-0.10639 -2.45066,-0.19413 -3.68599,-0.22472c-1.06273,0.95865 -2.17577,1.85011 -3.32687,2.72482zM290.63394,50.74898c0.05664,0.05664 0.09609,0.11327 0.12227,0.1686c2.03444,0.43943 4.03837,0.72793 6.08434,0.93587c0.05243,-0.00332 0.13258,-0.00225 0.21665,0.02171c1.33978,0.1323 2.69862,0.23123 4.09682,0.31644c0.69293,-0.00393 2.90908,0.27161 3.8635,-0.11549c-0.03006,-0.12158 -0.05526,-0.22717 -0.07298,-0.31083l0.01411,0.07305c0,0 -0.37341,-0.37341 0,-0.74681c0.27626,-0.27626 0.55251,-0.14375 0.67756,-0.0561c0.19814,-0.99207 0.27863,-2.51339 0.33225,-3.00649c0.36509,-3.35717 0.53939,-6.72589 0.83548,-10.08938c0.29604,-1.77436 0.4306,-3.62341 0.51239,-5.42095c0.01957,-0.43008 0.36441,-1.0781 -0.00948,-1.29154c-0.4938,-0.28189 -2.41314,-0.0145 -3.08804,-0.0145c-2.37295,0 -4.66124,-0.10191 -7.02042,-0.37156c-4.78727,-0.39901 -9.50121,-0.86683 -14.28083,-1.11395c-0.86553,-0.04475 -4.44493,-0.94775 -4.57696,0.32441c0.01058,5.79329 -0.6825,11.61369 -0.6825,17.41723c0,0 -0.00001,0.01767 -0.00324,0.04655c1.42481,0.03286 2.77811,0.27934 4.11178,0.68467c0.09336,-0.00624 0.27872,0.00096 0.41495,0.13137c0.46097,0.1517 0.92022,0.3218 1.37993,0.50801c1.40286,1.13034 3.44232,1.13259 5.13467,1.58259c0.4072,0.10828 0.81226,0.20975 1.21574,0.30497c0.08928,-0.07451 0.40564,-0.29421 0.722,0.02215zM285.15339,50.81072c-0.54797,0.54584 -1.161,1.06376 -1.80745,1.56362c1.09351,0.55413 2.18803,1.11504 3.30581,1.59404c0.81144,-0.77086 1.59771,-1.56741 2.38792,-2.36603c-0.20227,-0.05104 -0.40497,-0.1037 -0.60815,-0.15805c-1.03237,-0.27612 -2.17015,-0.40092 -3.23556,-0.68419c-0.02435,0.0324 -0.04257,0.05061 -0.04257,0.05061zM279.31706,55.23719c1.50161,0.32802 3.00686,0.7415 4.34722,1.28554c0.7593,-0.56655 1.4774,-1.17018 2.17124,-1.79716c-1.14873,-0.51772 -2.27678,-1.10306 -3.41012,-1.66447c-1.03027,0.74531 -2.10463,1.45877 -3.10833,2.17608zM285.91004,57.68455c0.24346,0.04303 0.49262,0.07858 0.74883,0.10556c0.24805,0.02612 2.1724,0.45695 2.21567,0.57734c0.00628,0.01747 0.01204,0.03505 0.01729,0.05274c0.69737,-0.55628 1.45845,-1.32294 2.25283,-2.13806c-1.48387,-0.13856 -2.8867,-0.55558 -4.25027,-1.10379c-0.68793,0.63598 -1.39581,1.25238 -2.13895,1.83699c0.41044,0.20667 0.79737,0.42919 1.15459,0.66922zM295.01605,52.71055c-1.59375,-0.20199 -3.17439,-0.465 -4.77365,-0.82225c-0.83879,0.8429 -1.66862,1.68708 -2.52036,2.50794c1.4077,0.51877 2.86203,0.86825 4.40544,0.87912c0.95044,-0.96362 1.92928,-1.90372 2.88857,-2.56481zM271.79792,52.97493c1.38322,-1.74241 4.98317,-3.33634 7.80681,-4.21493c-0.73305,-0.1261 -1.47916,-0.19418 -2.24633,-0.19235h-0.68507c-0.04141,0 -0.08171,-0.00477 -0.12037,-0.01378c-0.51376,0.61806 -1.96353,0.94575 -2.57881,1.25932c-1.53298,0.78125 -3.04506,1.52892 -4.59993,2.19836c0.75013,0.33126 1.50198,0.68521 2.2326,1.05832zM266.089,50.91972c0.31684,-0.42246 0.7393,-0.10561 0.7393,-0.10561l0.39859,0.30464c0.24096,0.09437 0.48456,0.19163 0.72995,0.29163c0.76121,-0.23298 1.51569,-0.47384 2.2282,-0.77316c2.10255,-0.88328 4.00139,-2.36155 6.15655,-3.07442l-0.05413,-0.09022l0.31473,-0.18884c0.014,-5.77849 0.67732,-11.56776 0.68742,-17.33635c0.52147,-2.16344 3.35601,-1.593 5.09692,-1.35695c4.8821,0.66198 9.97398,0.78779 14.91569,1.19953c2.54531,0.29067 5.01199,0.36645 7.57314,0.36645c0.70184,0 2.52835,-0.20495 3.04905,0.21385c1.32283,1.06396 0.18373,6.16203 -0.07271,7.70232c-0.29292,3.35647 -0.46612,6.72088 -0.83331,10.07098c-0.09125,0.83253 -0.20716,3.63437 -0.78874,4.29713c-0.01365,0.01555 -0.0276,0.03083 -0.04185,0.04585c0.25006,1.04453 0.54376,2.34368 0.16434,3.02394c-1.20282,2.15656 -4.5681,4.69131 -6.70724,5.80539c-0.24115,0.1444 -0.48906,0.30398 -0.74219,0.474c-0.00924,0.06826 -0.03463,0.14269 -0.08268,0.22278c-0.17629,0.29382 -0.42884,0.2826 -0.58447,0.23849c-1.53663,1.08642 -3.20826,2.39269 -4.70177,2.95099c-1.24014,0.46358 -3.14469,-0.56507 -4.27252,-1.03142c-1.26435,-0.52281 -2.56962,-1.04303 -3.8822,-1.53845c-0.07781,0.04967 -0.1493,0.09398 -0.2132,0.13241l-0.38587,0.07526c0,0 -0.52807,0 -0.52807,-0.52807c0,-0.03407 0.0022,-0.06593 0.00631,-0.09574c-0.48649,-0.17753 -0.97268,-0.35081 -1.45685,-0.51868c-4.47744,-1.20781 -8.71826,-2.9393 -13.16886,-4.21581c-0.27925,-0.08009 -0.56061,-0.15544 -0.84335,-0.22785c-0.03347,0.01644 -0.06697,0.03305 -0.1005,0.04984c0,0 -0.47233,0.23617 -0.70849,-0.23616c-0.00259,-0.00518 -0.0051,-0.01033 -0.00751,-0.01545c-1.87174,-0.44983 -3.7727,-0.84731 -5.49413,-1.70501c-1.75616,-1.66521 0.43059,-1.93671 1.85989,-2.64379c0.67528,-0.33406 1.39909,-0.5968 2.13836,-0.83569l-0.28217,-0.2085c0,0 -0.42246,-0.31684 -0.10561,-0.7393zM286.21148,59.15913c-0.18932,-0.13226 -0.38402,-0.25951 -0.58361,-0.382c-0.1611,-0.01224 -0.3216,-0.02856 -0.48034,-0.0552c-1.6932,-0.28417 -3.18885,-1.21486 -4.75462,-1.84489c-3.62991,-0.92007 -6.73188,-1.39846 -10.02128,-0.28047c4.2949,1.26392 8.40777,2.92041 12.74052,4.09147c0.66398,0.23004 1.32601,0.49708 1.98834,0.78062c0.63294,-0.58675 1.5798,-1.61244 2.24162,-2.15725c-0.36756,-0.08371 -0.74329,-0.13843 -1.13063,-0.15229zM266.22013,53.22239c-0.85793,0.28614 -3.90898,1.18697 -3.21149,1.21114c1.75683,0.88205 3.74415,1.2432 5.66464,1.70669c1.43929,-0.65945 2.83334,-1.0189 4.22864,-1.15962c-1.55888,-0.88015 -3.24289,-1.68613 -4.90579,-2.40238c-0.58265,0.2278 -1.17359,0.44326 -1.77599,0.64418z" fill="#000000" stroke="none" stroke-width="0.5" stroke-linecap="butt"/><path d="M305.57603,33.30278c0.21864,0.43728 -0.16998,0.67214 -0.22885,0.70459c-0.32784,1.96062 0.0825,3.87084 -0.05974,5.85493c-0.17073,2.38138 -0.76814,4.75026 -1.03324,7.12383c-0.19641,0.86214 -0.19376,3.2878 -0.78276,3.87959c-0.3088,0.31026 -2.4946,-0.12909 -2.93487,-0.12868c-3.44298,0.00316 -7.17791,-1.10872 -10.44303,-2.19648c-1.80521,-0.60232 -4.0835,-1.1264 -6.00012,-1.22972c-1.04015,-0.05607 -3.1165,0.37509 -3.94996,-0.42515c-0.14643,-0.14059 -0.11616,-1.5659 -0.11616,-1.81475c0,-2.39252 -0.56403,-4.72265 -0.57089,-7.07905c0,-1.44442 -0.27439,-5.27475 0.88816,-6.3535c0.31123,-0.28879 1.9685,-0.15143 2.42375,-0.11005c2.41589,0.21962 4.75743,0.56733 7.20171,0.57166c5.07677,0.9952 9.38925,1.36395 14.47383,1.3678l0.42368,-0.40119c0,0 0.47233,-0.23617 0.70849,0.23616zM304.21927,34.52133c-5.01082,-0.03212 -9.33563,-0.34409 -14.3533,-1.37031c-2.16782,0.00401 -4.4181,-0.07044 -6.55132,-0.46279c-0.27789,-0.05111 -2.24736,-0.30892 -2.32009,-0.21737c-0.77213,0.97182 -0.48198,4.27449 -0.48198,5.52104c-0.00687,2.05252 0.57089,4.08183 0.57089,6.16562c0,0.69019 -0.6823,1.67254 -0.11616,2.06732c0.52279,0.36455 2.58412,-0.00279 3.18618,0.03156c2.00546,0.11444 4.38447,0.65294 6.27405,1.28221c2.81585,0.93916 6.34944,2.1494 9.3098,2.14229c0.79716,-0.00192 1.53092,0.04966 2.321,0.11551c0.27354,0.0228 0.71029,0.47343 0.79558,0.21252c0.27029,-0.82684 0.13714,-2.23932 0.35903,-3.19946c0.25904,-2.34392 0.85472,-4.68322 1.02197,-7.03427c0.1269,-1.78382 -0.17273,-3.49883 -0.01563,-5.25386z" fill="#000000" stroke="none" stroke-width="0.5" stroke-linecap="butt"/><text transform="translate(316.74935,107.56202) scale(0.1575,0.1575)" font-size="40" xml:space="preserve" fill="#000000" fill-rule="nonzero" stroke="none" stroke-width="1" stroke-linecap="butt" stroke-linejoin="miter" stroke-miterlimit="10" stroke-dasharray="" stroke-dashoffset="0" font-family="&quot;SagoMiniRounded-Bold_v2&quot;, Sans Serif" font-weight="normal" text-anchor="start" style="mix-blend-mode: normal"><tspan x="0" dy="0">The volume is way turned up and louder when more people and more students are crowded near Xin. Otherwise he turns down the volume himself</tspan><tspan x="0" dy="46.150000000000006px"> when less people or classroom activity is going on near him. He is not allowed to be in classrooms so he has to be in the Porches or the commons. </tspan><tspan x="0" dy="46.150000000000006px">(Tall areas).However telling or asking or forcing Xin to turn volume down can the trigger Xin's emotions really upset and extremely. And lose trust on that </tspan><tspan x="0" dy="46.150000000000006px">person, Marking that person that sounds sensitive.</tspan><tspan x="0" dy="46.150000000000006px">If this happens too many times will avoid that person and leave and then come back to  retry again.</tspan></text><text transform="translate(318.82092,100.96829) scale(0.37022,0.37022)" font-size="40" xml:space="preserve" fill="#000000" fill-rule="nonzero" stroke="none" stroke-width="1" stroke-linecap="butt" stroke-linejoin="miter" stroke-miterlimit="10" stroke-dasharray="" stroke-dashoffset="0" font-family="&quot;RifficFree-Bold&quot;, Sans Serif" font-weight="normal" text-anchor="start" style="mix-blend-mode: normal"><tspan x="0" dy="0">Force Volume</tspan></text><path d="M273.79805,122.32139c-1.66093,-0.89408 -1.99649,-3.6899 -2.74739,-5.16552c-0.65772,-1.78969 -1.52081,-5.34624 -0.5558,-7.18788c0.67323,-1.2848 3.66833,-2.06957 5.44221,-2.42274c0.80867,-2.47545 2.19476,-4.8367 3.73914,-6.9009c0,0 0.05958,-0.07944 0.16151,-0.14358c0.182,-0.44592 0.3816,-0.88273 0.60204,-1.30704c-0.01672,-0.00426 -0.03383,-0.00928 -0.05137,-0.01512c-0.50097,-0.16699 -0.33399,-0.66797 -0.33399,-0.66797c1.8929,-5.6787 10.65065,-5.70848 14.0728,-1.15059c1.75838,3.07115 1.7698,6.41805 2.13938,9.82892c0.41898,3.86684 1.0331,7.46938 1.02832,11.3935c-0.27419,1.68419 -0.63632,3.71991 -1.85545,5.00658c-3.70523,3.9105 -9.90415,3.10863 -13.05086,-0.77507c-1.22268,-0.12219 -2.5904,-0.1148 -3.62844,-0.4681c-0.19,-0.06467 -0.34424,-0.18446 -0.47226,-0.3349c-1.33198,0.3079 -3.42278,0.88485 -4.48986,0.31043zM277.30839,107.83924c0.08682,0.52089 -0.43407,0.6077 -0.43407,0.6077c-0.03343,0.00557 -0.06964,0.0117 -0.10841,0.01838c-0.52892,1.89544 -0.67896,3.85299 -0.25273,5.79709c-0.00671,1.91062 1.27127,3.60028 1.91196,5.35654c0.07413,0.20321 0.19283,0.81441 0.36406,1.25702c0.13673,0.01829 0.45786,0.10396 0.4672,0.50507c0.76493,0.11165 1.54165,0.17427 2.31995,0.25429c-3.17228,-5.25847 -2.83254,-11.83387 -2.80112,-17.75573c-0.67819,1.15029 -1.26285,2.35547 -1.69681,3.59365c0.10409,0.06109 0.19746,0.17093 0.22997,0.36598zM271.43396,110.45126c-0.73675,1.63576 0.00561,4.71671 0.58598,6.28515c0.60084,1.22058 0.95151,3.91172 2.27646,4.6538c0.69073,0.38686 2.36601,-0.0516 3.50213,-0.33948c-0.04953,-0.1391 -0.09369,-0.27056 -0.13674,-0.38343c-0.76129,-1.99579 -2.19127,-4.13094 -2.19845,-6.28963c-0.42692,-1.8928 -0.3206,-3.81377 0.14406,-5.68662c-1.56506,0.3378 -3.81202,0.95778 -4.17344,1.76021zM284.05209,122.42669c0,0.2377 -0.10699,0.36841 -0.22466,0.44028c4.24637,4.33674 11.35898,1.9126 12.41486,-4.37069c-0.00832,-3.85873 -0.6182,-7.3996 -1.0267,-11.20326c-0.34588,-3.2206 -0.31616,-6.4507 -1.97104,-9.35303c-2.09241,-2.7938 -6.62805,-3.58849 -9.61752,-2.04057c0.08334,0.03748 0.16551,0.10608 0.23563,0.22294c0.27169,0.45282 -0.18113,0.72451 -0.18113,0.72451l-0.5176,0.30595c-1.80305,1.81843 -2.70795,4.35579 -3.34039,6.84152c0.03745,5.85935 -0.45212,12.4388 2.95107,17.56197c0.05646,0.08545 0.11377,0.16924 0.17193,0.25138c0.18927,0.03006 0.37827,0.06346 0.56687,0.10118l0.01061,-0.01026c0,0 0.52807,0 0.52807,0.52807z" fill="#000000" stroke="none" stroke-width="0.5" stroke-linecap="butt"/><path d="M282.32087,106.82854c-0.16619,0.05539 -0.29563,0.03728 -0.39441,-0.01167c-0.28641,0.83679 -0.04376,2.04386 -0.04376,2.79331c0,2.28476 -0.05204,5.88351 1.57983,7.6708c2.91193,3.18926 5.30485,0.55874 5.70005,-2.65123c-0.00078,-2.9044 0.00466,-6.11341 -1.71883,-8.66591c-0.0341,-0.05051 -0.07379,-0.0979 -0.11853,-0.14231c-1.08428,0.57613 -2.83734,-0.36206 -4.22533,-0.00468c-0.09364,0.06216 -0.17143,0.1287 -0.23008,0.19903c0,0 -0.0867,0.0867 -0.21832,0.13477l0.00335,0.00991c0,0 0.16699,0.50097 -0.33398,0.66797zM282.13307,105.10954c0.11051,-0.04837 0.23175,-0.09492 0.3608,-0.13918c0.45204,-0.30724 0.73102,-0.25204 1.38372,-0.39138c-0.93176,-1.31845 -1.25578,-4.30646 -2.37519,-1.48064c-0.33197,0.73978 0.18426,1.3635 0.63067,2.0112zM285.5264,104.38602c0.58011,0.01756 1.08866,0.13921 1.53445,0.34605c0.47512,-0.48094 0.90284,-1.9592 1.34859,-3.06464c-0.83156,0.87939 -1.92541,1.76323 -2.57099,2.40744c-0.0427,0.04261 -0.16439,0.16443 -0.31205,0.31115zM281.32177,105.71908c-0.56781,-1.02187 -1.30459,-1.65057 -0.79997,-3.01299c0.45092,-1.11466 0.9581,-2.62381 2.60926,-1.72813c0.29432,0.15966 1.00744,1.43297 1.19586,1.77971c0.11987,0.22059 0.22473,0.74003 0.27411,1.08556c0.16223,-0.49608 1.09656,-0.97969 1.33659,-1.3459c0.91006,-1.38846 2.38272,-2.73243 4.0608,-2.99215c0.23944,1.45292 -0.75539,4.46346 -2.04909,5.81689c2.13589,1.92389 2.26816,6.38565 2.26737,9.37331c-0.52063,4.11353 -3.99925,7.14193 -7.54462,3.28604c-1.83219,-1.99266 -1.84551,-5.81177 -1.84551,-8.37124c0,-1.2218 -0.31788,-2.86348 0.49521,-3.89111z" fill="#000000" stroke="none" stroke-width="0.5" stroke-linecap="butt"/><path d="M300.96242,114.00838c-0.37341,-0.37341 0,-0.74681 0,-0.74681l0.24362,-0.20529c0.15538,-0.31046 0.31075,-0.62092 0.46612,-0.93138c3.03596,-5.06021 0.66987,-9.40401 -2.57554,-13.45992c0,0 -0.32989,-0.41235 0.08247,-0.74224c0.41236,-0.32989 0.74224,0.08247 0.74224,0.08247c3.50169,4.37806 5.93593,9.19612 2.67666,14.62792c-0.1491,0.29849 -0.2982,0.59699 -0.4473,0.89548l-0.44145,0.47978c0,0 -0.3734,0.37341 -0.74681,0z" fill="#000000" stroke="none" stroke-width="0.5" stroke-linecap="butt"/><path d="M302.67509,122.11503c-0.37341,-0.37341 0,-0.74681 0,-0.74681l0.44706,-0.4468c3.7077,-4.10009 6.44449,-12.8733 5.01863,-18.22721c-0.98265,-4.24058 -3.89983,-12.1891 -9.31687,-12.16607c0,0 -0.52807,0 -0.52807,-0.52807c0,-0.52807 0.52807,-0.52807 0.52807,-0.52807c5.9827,0.02202 9.23669,8.19653 10.34175,12.96712c1.52286,5.72079 -1.34203,14.82117 -5.27738,19.20928l-0.46637,0.46663c0,0 -0.3734,0.37341 -0.74681,0z" fill="#000000" stroke="none" stroke-width="0.5" stroke-linecap="butt"/><text transform="translate(320.25706,175.19765) scale(0.1575,0.1575)" font-size="40" xml:space="preserve" fill="#000000" fill-rule="nonzero" stroke="none" stroke-width="1" stroke-linecap="butt" stroke-linejoin="miter" stroke-miterlimit="10" stroke-dasharray="" stroke-dashoffset="0" font-family="&quot;SagoMiniRounded-Bold_v2&quot;, Sans Serif" font-weight="normal" text-anchor="start" style="mix-blend-mode: normal"><tspan x="0" dy="0">When Xin's emotions are triggered, he obviously will be extremely freezing and probably not doing as much as usual as he is less excited and might be </tspan><tspan x="0" dy="46.150000000000006px">more of a Snappy person oftenly if the person continues to offension or decides to tell directions or whatever is not allowed by Word count.</tspan><tspan x="0" dy="46.150000000000006px"> This usually happens when Xin it's imagining something and someone Ruined it by Direction telling. This is how he marks people as sensitive.</tspan></text><text transform="translate(322.70298,165.4219) scale(0.37022,0.37022)" font-size="40" xml:space="preserve" fill="#000000" fill-rule="nonzero" stroke="none" stroke-width="1" stroke-linecap="butt" stroke-linejoin="miter" stroke-miterlimit="10" stroke-dasharray="" stroke-dashoffset="0" font-family="&quot;RifficFree-Bold&quot;, Sans Serif" font-weight="normal" text-anchor="start" style="mix-blend-mode: normal"><tspan x="0" dy="0">Triggered Emotion</tspan></text><path d="M270.80784,175.3242c0.06093,0.06686 0.10879,0.16131 0.12753,0.29442c0.07362,0.52292 -0.44929,0.59654 -0.44929,0.59654l-0.77993,0.10981c-0.02689,0.00422 -0.05446,0.00641 -0.08254,0.00641c-0.29165,0 -0.52807,-0.23643 -0.52807,-0.52807c0,-0.13791 0.05287,-0.26348 0.13944,-0.35753l0.71134,-0.77832l0.00856,0.00783l0.02295,-0.03951c1.28824,-1.00552 3.9531,-3.13954 6.52008,-4.33586c-1.62351,-1.99632 -2.1845,-4.39654 -2.12109,-7.34962c0.10442,-4.86287 2.7955,-6.91587 6.54736,-2.98731c0.68061,0.72061 1.33044,1.50224 1.95272,2.33083c3.54569,-0.64469 7.20091,-0.85204 10.53758,-0.38442c1.68864,0.23857 5.35806,0.72754 6.20789,2.51529c0.55863,1.17515 -0.31935,2.94408 -0.72829,3.98586c-0.31492,0.80226 -0.64063,1.60001 -0.97623,2.39347c0.70997,0.31491 1.34891,0.93566 1.89706,1.71093c0.68975,-0.70965 1.37787,-1.42213 2.06592,-2.13708c1.28611,-1.33642 2.76881,-2.95801 4.67579,-3.25702c0,0 0.52277,-0.07468 0.59745,0.44809c0.07468,0.52277 -0.44809,0.59745 -0.44809,0.59745c-1.61121,0.19943 -2.99947,1.83666 -4.06402,2.94369c-0.74984,0.77976 -1.49995,1.55644 -2.25225,2.32966c0.21018,0.38264 0.40135,0.78426 0.57184,1.19198c2.63647,-1.26743 5.34686,-2.32862 8.08601,-2.91861c0,0 0.51636,-0.11064 0.627,0.40571c0.11065,0.51635 -0.40571,0.627 -0.40571,0.627c-2.68556,0.57231 -5.34814,1.6195 -7.93824,2.87096c0.39983,1.20078 0.60993,2.36512 0.58779,3.1673c-0.0125,0.45316 -0.06819,0.87768 -0.16132,1.27706c1.7985,1.37909 2.95782,3.47861 2.77189,6.21497c-0.26095,0.79331 -0.4754,1.46519 -0.81987,2.13291c0.25234,0.01705 0.50485,0.03223 0.75753,0.04547c1.91228,0.10021 3.69781,-0.28328 5.36737,0.27602l0.10429,-0.2294l0.86561,0.39353c0.18841,0.08066 0.32042,0.26775 0.32042,0.48568c0,0.22566 -0.14155,0.41827 -0.3407,0.49387l-0.96711,0.39289c-3.65086,1.48316 -7.41492,2.46179 -11.28243,3.14093c0.18657,0.84511 0.29291,1.68049 0.29591,2.49941c0,0 0,0.52807 -0.52807,0.52807c-0.52807,0 -0.52807,-0.52807 -0.52807,-0.52807c0.00318,-0.75812 -0.09171,-1.53619 -0.26323,-2.32692c-0.05127,0.00829 -0.10256,0.01652 -0.15387,0.02471c-2.79601,0.44627 -5.62512,0.81174 -8.46265,0.86461c-0.37306,0.00695 -1.15021,0.10698 -1.63973,-0.1697c-1.71018,1.48388 -3.54833,2.83081 -5.14424,4.41401c-1.99717,1.98127 -2.72354,4.1163 -5.62108,5.17667c0,0 -0.49628,0.18047 -0.67675,-0.31582c-0.18047,-0.49628 0.31582,-0.67675 0.31582,-0.67675c2.69949,-0.97479 3.38283,-3.0672 5.23521,-4.93091c1.70703,-1.71748 3.72116,-3.14533 5.54434,-4.76815c0.14531,-0.36894 0.46615,-0.7814 0.80463,-1.1629c-0.15642,-0.03192 -0.31357,-0.06686 -0.47151,-0.10489c-1.18334,-0.28491 -3.17722,-0.4695 -3.52738,-1.31423c-1.60246,1.53111 -3.26965,2.93356 -5.04245,4.07717c-0.32866,0.15539 -0.65733,0.31078 -0.98599,0.46617l-0.49852,0.1359c0,0 -0.51204,0.12915 -0.64118,-0.38289c-0.12915,-0.51204 0.38289,-0.64118 0.38289,-0.64118l0.30637,-0.0671c0.30819,-0.1449 0.61637,-0.28981 0.92456,-0.43471c2.49432,-1.59691 4.78288,-3.73897 6.97606,-6.03246l-0.72369,-0.24453c-0.10874,-0.06819 -0.2271,-0.13707 -0.35178,-0.20699c-2.09891,0.62507 -4.19411,1.2621 -6.28056,1.91773c-1.93628,0.60844 -3.78243,1.45672 -5.66569,1.02253l-0.05082,0.20327l-0.73799,-0.1845c-0.23516,-0.05337 -0.41072,-0.26368 -0.41072,-0.51499c0,-0.22669 0.14283,-0.42001 0.34341,-0.49488l0.51853,-0.20737c0.31538,-0.14883 0.63077,-0.29765 0.94615,-0.44648c2.76836,-1.18065 5.51736,-2.33218 8.23592,-3.53628c-0.93783,-0.23116 -1.87521,-0.46419 -2.81223,-0.69882l-0.37416,-0.09354c0,0 -0.51231,-0.12808 -0.38423,-0.64039c0.12808,-0.51231 0.64039,-0.38423 0.64039,-0.38423l0.37455,0.09364c0.44499,0.11143 0.89006,0.22249 1.33521,0.33317c-2.81394,-2.06798 -5.4709,-4.40122 -7.39758,-6.79095c0,0 -0.32989,-0.41236 0.08247,-0.74224c0.41236,-0.32989 0.74224,0.08247 0.74224,0.08247c2.02174,2.54957 4.96305,5.04628 8.01734,7.20353c0.14768,-1.79306 1.17042,-3.83666 1.6564,-5.16232c0.23261,-0.41311 0.46138,-0.8731 0.69391,-1.35939c-0.05954,-0.11929 -0.11794,-0.2388 -0.17517,-0.35851c-0.31643,-0.66191 -0.53861,-1.35965 -0.75752,-2.05419c-1.38709,-0.55915 -2.71551,-1.32037 -3.9366,-2.18347c-0.45117,-0.31958 -0.8606,-0.65118 -1.23107,-0.99572c-2.32481,1.17614 -4.54712,2.43681 -6.62397,4.0296zM281.65772,170.22466c0.92097,1.02526 1.34706,2.21509 1.75087,3.43659c0.48366,0.1781 0.9742,0.32859 1.46911,0.44625c0.57769,-1.09573 1.23485,-2.14146 2.04491,-2.9377c-1.33324,-2.7152 -2.80535,-5.39554 -4.48591,-7.71833c-2.33725,0.46168 -4.61333,1.11331 -6.69432,1.87999c0,0 -0.10459,0.03853 -0.23536,0.03214c0.20944,1.78719 0.86456,3.25396 1.99924,4.5162c1.64735,-0.5977 3.16922,-0.6762 4.15144,0.34485zM301.98583,186.52503c0.08241,-1.6848 -0.34531,-3.23065 -0.9345,-4.73445c-0.43463,0.72155 -1.00603,1.34867 -1.65323,1.91866l0.08698,0.3124c0,0 0,0.52807 -0.52807,0.52807c-0.19405,0 -0.31679,-0.07131 -0.39443,-0.16151c-0.91955,0.69581 -1.92667,1.31945 -2.88277,1.95573c-0.00722,0.00481 -0.01443,0.00961 -0.02165,0.01442c0.09281,0.17382 0.18492,0.34801 0.27614,0.5225c1.18106,0.09762 2.27236,0.27891 3.08542,0.47351c0.63442,0.24394 1.04674,0.48401 1.28503,0.71831c0.52752,0.06749 1.05583,0.12846 1.5849,0.1821c0.11013,-0.66567 0.08302,-1.46034 0.0962,-1.72975zM300.59581,178.07925c0.07246,0.16989 0.15345,0.35934 0.24077,0.56565c0.00407,-0.15664 0.0023,-0.31718 -0.00559,-0.4818c-0.01877,-0.39159 -0.20587,-1.16321 -0.51111,-2.0463c-0.1823,0.09222 -0.3642,0.18528 -0.54569,0.2791c0.29732,0.54768 0.57499,1.10658 0.82163,1.68334zM299.43244,190.42569c-0.34346,-0.02664 -0.69168,-0.08 -1.03963,-0.15139c-0.2495,0.10771 -0.50002,0.21034 -0.73913,0.30739c0.11562,0.29582 0.22475,0.59136 0.32644,0.88635c0.931,-0.10491 1.83233,-0.43699 2.68543,-1.07468c-0.36248,0.0555 -0.77203,0.06809 -1.23312,0.03233zM280.87665,170.93556c-0.67928,-0.81982 -1.60299,-0.53147 -2.42818,-0.14498c0.25778,0.21853 0.53266,0.43092 0.82488,0.6379c0.90049,0.63932 1.86789,1.22412 2.87728,1.70258c-0.29787,-0.79258 -0.67319,-1.54558 -1.27398,-2.1955zM284.39325,175.06878c-0.18835,-0.04875 -0.37604,-0.10175 -0.56296,-0.15878c0.08884,0.24614 0.18322,0.49174 0.28696,0.73573c0.0905,-0.19138 0.18237,-0.38405 0.276,-0.57696zM293.91652,179.90327c-0.23025,0.22127 -0.4599,0.44626 -0.68907,0.67451c-0.12663,0.23386 -0.25406,0.46714 -0.38204,0.70004c0.31392,0.58162 0.64501,1.17568 0.98379,1.77945c1.0192,-0.37693 2.0253,-0.66499 3.03884,-0.64566c0.4717,-0.69364 1.34493,-1.84201 1.71396,-2.82312c-1.26958,-0.38153 -2.65323,-0.49412 -3.98175,-0.32298c-0.01979,0.01145 -0.03958,0.02289 -0.05935,0.03434c-0.20761,0.20146 -0.41572,0.4026 -0.62437,0.60342zM281.84733,185.85195c-0.00982,-0.01107 -0.01952,-0.02219 -0.0291,-0.03337c-2.30897,1.02895 -4.64024,2.01714 -6.98717,3.01377c0.76794,-0.12899 1.49266,-0.24334 1.89841,-0.38321c1.97708,-0.68158 3.98292,-1.30698 5.99842,-1.90612c-0.34524,-0.213 -0.65888,-0.44124 -0.88056,-0.69107zM288.61194,170.02856c1.96491,-0.79041 4.11337,0.40906 5.9483,1.99986c0.27799,-0.29883 0.5675,-0.58655 0.86995,-0.86179c-1.45238,-2.72229 -2.48981,-5.62442 -3.84856,-8.38729c-2.59114,-0.18249 -5.32975,0.00966 -8.0166,0.46502c1.5504,2.21914 2.92615,4.71456 4.18245,7.24569c0.27194,-0.18323 0.55944,-0.3388 0.86445,-0.4615zM296.85013,170.57864c0.22448,-0.52627 0.44544,-1.05438 0.66293,-1.5844c0.38547,-0.93939 1.6428,-3.02702 1.15297,-4.12137c-0.59706,-1.33391 -4.18382,-1.74884 -5.39813,-1.91754c-0.15191,-0.02129 -0.30452,-0.04112 -0.45778,-0.05953c1.21439,2.56613 2.19795,5.23231 3.53618,7.74443c0.17063,-0.03877 0.33864,-0.05881 0.50384,-0.06159zM298.27732,175.99758c0.0163,-0.0087 0.0326,-0.0174 0.04891,-0.02609c-0.05242,-0.08914 -0.10523,-0.17807 -0.15837,-0.26681c-0.02378,0.02402 -0.04756,0.04803 -0.07135,0.07205c0.05776,0.07239 0.11834,0.14603 0.18082,0.22086zM299.94622,175.13133c-0.11744,-0.28407 -0.24425,-0.56952 -0.37898,-0.84865c-0.21269,0.21734 -0.42561,0.4344 -0.6388,0.65116c0.11071,0.18231 0.22032,0.36523 0.32837,0.54903c0.22916,-0.11839 0.45898,-0.23564 0.68941,-0.35154zM297.54885,171.6656c-0.08843,0.20397 -0.1775,0.40766 -0.26719,0.61108c0.35179,0.58123 0.71498,1.15549 1.07489,1.73137c0.22923,-0.23345 0.45817,-0.46723 0.68687,-0.70133c-0.45549,-0.75699 -0.9666,-1.37316 -1.49457,-1.64112zM296.52255,173.96032c0.32117,0.3501 0.61967,0.68999 0.89079,1.00452c0.06197,-0.06261 0.12392,-0.12524 0.18584,-0.1879c-0.27833,-0.44618 -0.56025,-0.89045 -0.83851,-1.33688c-0.07894,0.17362 -0.15831,0.34704 -0.23812,0.52026zM299.78863,178.93235c0.0105,0.00437 0.02098,0.00876 0.03146,0.01317c-0.00927,-0.02113 -0.01853,-0.04226 -0.02777,-0.06339c-0.00106,0.01671 -0.00229,0.03345 -0.00369,0.05022zM288.75109,192.91542c-0.22132,0.22132 -0.44721,0.43787 -0.67671,0.65064c0.23763,-0.03952 0.59695,-0.14192 0.78376,-0.15179c0.69714,-0.03683 1.39298,-0.09521 2.08947,-0.14265c2.10983,-0.14373 4.15434,-0.37606 6.24263,-0.70937c0.01933,-0.00308 0.03866,-0.00618 0.05798,-0.00928c-0.00032,-0.00111 -0.00065,-0.00222 -0.00097,-0.00333c-1.08879,-0.0288 -2.20449,-0.29404 -3.32526,-0.70125c-1.48184,0.36389 -2.97098,0.53365 -4.5185,0.42155c-0.21659,0.21224 -0.4341,0.42717 -0.65239,0.64547zM298.72213,178.5202c-0.10235,-0.40523 -0.38125,-0.81117 -0.69304,-1.19482c-0.51124,0.27956 -1.01862,0.56275 -1.52171,0.84728c0.7559,0.05035 1.50493,0.18083 2.22419,0.38873c-0.00286,-0.01387 -0.006,-0.02759 -0.00943,-0.04118zM296.0419,174.99054c-0.41245,0.87316 -0.83533,1.74139 -1.2674,2.60499c0.63537,-0.62418 1.26642,-1.2513 1.89428,-1.88111c-0.18977,-0.22298 -0.39986,-0.46722 -0.62687,-0.72388zM289.01539,171.00461c-0.28008,0.12023 -0.54401,0.27332 -0.7936,0.45378c0.42985,0.88871 0.84589,1.77804 1.25051,2.65764c0.32133,-0.0852 0.64129,-0.19071 0.95919,-0.31792l0.64388,0.08292c0,0 0.50098,0.16699 0.33399,0.66797c-0.16699,0.50097 -0.66797,0.33399 -0.66797,0.33399l0.08235,-0.10426c-0.30083,0.12029 -0.60316,0.2233 -0.90653,0.30994c0.35567,0.78135 0.70286,1.55179 1.04327,2.30386c0.85771,-1.6439 1.79328,-3.21193 2.9248,-4.59082c-1.57533,-1.38687 -3.37244,-2.43988 -4.86988,-1.79709zM283.79734,178.68817c-0.40775,1.12407 -1.76769,3.74145 -1.60448,5.41926c0.11442,0.07751 0.22888,0.1545 0.34333,0.23096c1.51076,-0.68526 3.01136,-1.39185 4.49989,-2.13397c-1.09195,-1.32033 -2.07216,-2.72311 -2.89201,-4.16974c-0.11533,0.22984 -0.23054,0.44877 -0.34674,0.65349zM288.76716,181.32162c0.18773,-0.24369 0.38853,-0.47283 0.60094,-0.6876c0.32405,-0.681 0.64838,-1.36152 0.98067,-2.03423c-0.478,-1.05286 -0.96912,-2.15299 -1.47857,-3.27624c-1.14427,0.18873 -2.29602,0.16236 -3.43156,-0.03038c-0.25746,0.52638 -0.49922,1.05605 -0.73372,1.5636c0.89323,1.6932 2.02046,3.33449 3.30023,4.85846c0.25437,-0.13004 0.50838,-0.26122 0.76201,-0.3936zM288.1225,187.70817c0.03217,0.01863 0.06437,0.03731 0.09662,0.05604c0.10311,-0.28466 0.24559,-0.59326 0.39095,-0.88255c-0.20776,-0.04833 -0.41548,-0.09679 -0.62317,-0.14538c-0.00551,0.04163 -0.01073,0.08337 -0.01563,0.12523l0.16311,0.45781c0,0 0.0658,0.1999 -0.01188,0.38885zM303.49266,186.07225c0.11787,-1.81183 -0.47052,-3.28708 -1.47636,-4.40049c0.61867,1.7855 1.15167,3.7977 1.11386,5.4443c0.1236,-0.32672 0.23543,-0.66871 0.3625,-1.04381zM286.70058,188.11478c-0.05656,-0.03137 -0.11326,-0.06294 -0.17009,-0.0947c-0.55115,0.81438 -1.14871,1.58171 -1.81168,2.28247c-0.67323,-0.05423 2.50646,0.52565 3.9173,0.74139c0.01983,-0.02273 0.0384,-0.04451 0.05554,-0.06527c0.33114,-0.40103 0.67196,-0.78399 1.02223,-1.15172c-1.0301,-0.5763 -2.04052,-1.17295 -3.01329,-1.71216zM291.67435,178.96054c0.00837,0.01824 0.01678,0.03649 0.02522,0.05477c0.46026,-0.21223 0.94042,-0.38469 1.43329,-0.51822c0.74038,-1.44011 1.45033,-2.89196 2.1311,-4.3572c-0.20436,-0.21528 -0.41699,-0.43243 -0.63625,-0.6471c-1.23868,1.47807 -2.24234,3.19985 -3.16344,5.00883c0.07028,0.15398 0.1403,0.30697 0.21008,0.45892zM295.31792,172.72173c0.1396,0.13423 0.27673,0.26952 0.41111,0.40505c0.11988,-0.26432 0.23884,-0.52908 0.35686,-0.79429c-0.04537,-0.07683 -0.09047,-0.15383 -0.13525,-0.231c-0.2175,0.19992 -0.42822,0.40686 -0.63272,0.62024zM288.41462,174.32449c-0.32561,-0.70961 -0.65898,-1.42548 -1.00138,-2.14171c-0.55833,0.60219 -1.03718,1.34096 -1.46679,2.12505c0.81949,0.11147 1.6459,0.12468 2.46817,0.01666zM280.15847,160.69041c-0.45536,-0.48215 -0.96819,-0.9142 -1.51435,-1.2904c-3.26985,-2.25233 -3.20847,2.37033 -3.21133,4.62032c-0.00013,0.10044 0.00091,0.19996 0.00311,0.29856c1.96935,-0.72231 4.10332,-1.34204 6.29791,-1.80147c-0.50608,-0.64568 -1.03062,-1.25734 -1.57534,-1.82702zM290.17943,186.16048c0.00186,0.00043 0.00372,0.00086 0.00559,0.00128c0.33584,0.07715 0.67205,0.15371 1.00863,0.22946c-0.2654,-0.22264 -0.52842,-0.4507 -0.78865,-0.68384c-0.07664,0.15028 -0.15151,0.30148 -0.22557,0.4531zM293.96707,186.23573c0.09594,-0.10741 0.1914,-0.21561 0.28637,-0.3247c-0.29562,-0.53412 -0.59509,-1.06359 -0.89197,-1.58623c-0.66979,0.2755 -1.34163,0.57009 -2.01231,0.80798c0.63792,0.56003 1.29216,1.08815 1.9561,1.57906c0.21812,-0.16037 0.43874,-0.31893 0.66182,-0.47612zM297.83048,183.62308c-0.14136,-0.04328 -0.28317,-0.07739 -0.42539,-0.10314c-0.17592,0.26663 -0.35442,0.52672 -0.53538,0.78097c0.32809,-0.2205 0.65041,-0.44508 0.96077,-0.67783zM294.32953,183.94773c0.20902,0.37217 0.41917,0.74743 0.62833,1.12515c0.40842,-0.50418 0.80647,-1.02988 1.19297,-1.58471c-0.60242,0.06767 -1.21034,0.24027 -1.8213,0.45956zM289.70587,187.13528c-0.00978,0.01975 -0.01958,0.03949 -0.0294,0.05922c-0.16823,0.33795 -0.99149,1.1302 -0.70005,0.89024c0.40148,-0.33056 0.9044,-0.58526 1.47392,-0.7771c-0.16927,-0.03971 -0.33658,-0.0786 -0.50179,-0.11655c-0.0809,-0.01858 -0.16179,-0.03719 -0.24268,-0.05582zM308.26161,189.74029c-1.70841,0.23883 -3.56039,0.21558 -5.45737,0.03341c-0.91429,1.14356 -1.89479,1.88159 -2.91993,2.30745c2.85283,-0.56719 5.64645,-1.31776 8.3773,-2.34086zM300.01423,189.40672c-0.00121,0.00092 -0.00243,0.00183 -0.00364,0.00275c0.00777,0.00016 0.01553,0.00031 0.02329,0.00045c-0.00655,-0.00106 -0.0131,-0.00213 -0.01965,-0.0032zM296.70472,190.95991c-0.33601,0.12882 -0.67077,0.25059 -1.00486,0.3643c0.40419,0.08704 0.80578,0.14533 1.20342,0.16912c-0.06346,-0.17752 -0.12972,-0.35536 -0.19856,-0.53342zM298.76612,182.85387c0.74794,-0.68429 1.36232,-1.4588 1.72298,-2.40295c-0.00509,-0.01156 -0.01018,-0.02312 -0.01527,-0.03468c-0.29635,-0.17794 -0.60742,-0.33699 -0.92992,-0.47686c-0.34945,0.92485 -0.99528,1.86828 -1.51791,2.63892c0.24573,0.06829 0.49235,0.15913 0.74013,0.27557zM291.31514,184.03224c0.52001,-0.18625 1.03277,-0.39396 1.54076,-0.5969c-0.20651,-0.36382 -0.40989,-0.72358 -0.60784,-1.07853c-0.31079,0.55838 -0.62281,1.11605 -0.93292,1.67544zM289.12729,185.91755c0.0315,-0.05758 0.0567,-0.10463 0.0738,-0.13899c0.0003,-0.00061 0.00061,-0.00121 0.00091,-0.00182c-0.10087,0.02928 -0.20175,0.05857 -0.30262,0.08788c0.07596,0.01766 0.15193,0.03531 0.22791,0.05294zM291.05047,188.53246c-0.09785,0.01914 -0.19595,0.03859 -0.29432,0.05834c-0.15154,0.03042 -0.486,0.09296 -0.86719,0.14948c0.19188,0.11125 0.38466,0.22218 0.57819,0.33214c0.19186,-0.18354 0.38631,-0.36339 0.58332,-0.53996zM298.06875,189.05544c-0.23525,-0.04625 -0.46995,-0.09362 -0.7039,-0.14193c0.20444,0.06204 0.41292,0.12201 0.62409,0.17753c0.02662,-0.012 0.05323,-0.02387 0.07981,-0.03561zM291.90497,189.85587c0.70154,0.36213 1.40787,0.69172 2.11204,0.95946c0.3265,-0.08571 0.65678,-0.18523 0.99314,-0.29893c0.39019,-0.13189 0.82307,-0.33973 1.27676,-0.57135c-0.04553,-0.10458 -0.09179,-0.20918 -0.13874,-0.3138c-1.0045,-0.35037 -1.72264,-0.8388 -2.57596,-1.43267c-0.54413,0.56051 -1.10064,1.10848 -1.66723,1.65728zM292.25257,191.14892c-0.37304,-0.17474 -0.74544,-0.36002 -1.1164,-0.55236c-0.2152,0.20663 -0.43167,0.41421 -0.64928,0.62345c0.59932,0.01825 1.18325,-0.00472 1.76568,-0.0711zM289.78679,181.97857c-0.17849,0.37768 -0.35753,0.75489 -0.53841,1.13032c0.02367,0.025 0.04738,0.04996 0.07112,0.07488c0.58698,-0.64476 1.17214,-1.28148 1.75783,-1.90176c-0.42905,0.23603 -0.85925,0.4681 -1.29055,0.69657zM290.33782,183.6103c-0.09619,0.10461 -0.19241,0.20945 -0.28867,0.3145c0.02566,0.02522 0.05136,0.0504 0.0771,0.07552c0.0702,-0.13016 0.14074,-0.26016 0.21157,-0.39003zM284.1817,184.74543c0.86544,0.20913 1.73135,0.41641 2.5978,0.62162c0.07888,-0.02255 0.15776,-0.04509 0.23662,-0.06762c0.14765,-0.2609 0.29241,-0.52454 0.43481,-0.79042c0.13821,-0.43418 0.29387,-0.86286 0.45847,-1.2924c-0.05545,-0.06164 -0.11066,-0.1235 -0.16564,-0.18556c-1.18006,0.59173 -2.36772,1.16087 -3.56206,1.71437z" fill="#000000" stroke="none" stroke-width="0.5" stroke-linecap="butt"/><text transform="translate(324.8429,248.80518) scale(0.1575,0.1575)" font-size="40" xml:space="preserve" fill="#000000" fill-rule="nonzero" stroke="none" stroke-width="1" stroke-linecap="butt" stroke-linejoin="miter" stroke-miterlimit="10" stroke-dasharray="" stroke-dashoffset="0" font-family="&quot;SagoMiniRounded-Bold_v2&quot;, Sans Serif" font-weight="normal" text-anchor="start" style="mix-blend-mode: normal"><tspan x="0" dy="0">Example like if the last day of seniors is June 10 (Latest) on Xin's Senior year. But the other 2024 seniors re able to Finish at May 31st.  </tspan><tspan x="0" dy="46.150000000000006px">this will be related to a unfair date and administration. When this usually happens Xin well either make it exactly the same to him. </tspan><tspan x="0" dy="46.150000000000006px">Or reduce his finishing timing much earlier than anyone else. Otherwise if a team that's Xin is having negative effects on negative feelings.</tspan><tspan x="0" dy="46.150000000000006px"> Xin instantly leaves the team.</tspan></text><text transform="translate(327.00806,241.55632) scale(0.37022,0.37022)" font-size="40" xml:space="preserve" fill="#000000" fill-rule="nonzero" stroke="none" stroke-width="1" stroke-linecap="butt" stroke-linejoin="miter" stroke-miterlimit="10" stroke-dasharray="" stroke-dashoffset="0" font-family="&quot;RifficFree-Bold&quot;, Sans Serif" font-weight="normal" text-anchor="start" style="mix-blend-mode: normal"><tspan x="0" dy="0">Unfair or Very Defeated</tspan></text><path d="M276.64617,232.96854c0,-0.52807 0.52807,-0.52807 0.52807,-0.52807l0.59074,0.00081c0.28077,0.0312 0.56153,0.06239 0.8423,0.09359c6.40163,-0.00972 12.77577,1.39325 18.96796,2.81497c4.65265,0.60253 9.74563,-0.09943 14.42706,0.82969c-3.969,-2.8604 -7.2786,-6.68225 -11.02023,-9.73087c0,0 -0.40568,-0.33806 -0.06761,-0.74374c0.33806,-0.40568 0.74374,-0.06761 0.74374,-0.06761c3.99831,3.43112 7.77115,7.6635 12.25382,10.57036c1.17228,1.64552 -1.06317,2.22667 -2.30549,2.9855c-3.06882,1.87448 -6.15364,3.93187 -9.10547,5.97277l-0.33959,0.34256c0,0 -0.3734,0.3734 -0.74681,0c-0.3734,-0.3734 0,-0.74681 0,-0.74681l0.40912,-0.40615c2.41853,-1.68533 4.96457,-3.32403 7.44452,-4.91676c0.89771,-0.57655 1.78699,-1.15667 2.71431,-1.68512c0.15126,-0.0862 0.4164,-0.22102 0.673,-0.35232c-4.86896,-1.2592 -10.34839,-0.41446 -15.26487,-1.01157c-6.15035,-1.42676 -12.48309,-2.79165 -18.84188,-2.80035c-0.28077,-0.0312 -0.56153,-0.06239 -0.8423,-0.09359l-0.53233,0.00081c0,0 -0.52807,0 -0.52807,-0.52807z" fill="#000000" stroke="none" stroke-width="0.5" stroke-linecap="butt"/><path d="M294.58174,249.50028c-0.52807,0 -0.52807,-0.52807 -0.52807,-0.52807v-0.56153c0,-2.10864 0.02407,-4.24297 0.28484,-6.33594c0,0 0.0655,-0.524 0.5895,-0.4585c0.524,0.0655 0.4585,0.5895 0.4585,0.5895c-0.257,2.04906 -0.27669,4.14032 -0.27669,6.20494v0.56153c0,0 0,0.52807 -0.52807,0.52807z" fill="#000000" stroke="none" stroke-width="0.5" stroke-linecap="butt"/><path d="M284.78838,258.05032c0,-0.52807 0.52807,-0.52807 0.52807,-0.52807l0.01891,0.00531c3.19363,-0.45004 6.27029,0.06292 9.4378,0.32941c1.09109,0.09179 2.69419,0.53914 3.90699,0.33079c-0.47241,-0.97497 -1.94066,-2.68888 -2.46293,-3.09427c0,0 -0.41236,-0.32989 -0.08247,-0.74224c0.32989,-0.41236 0.74224,-0.08247 0.74224,-0.08247c0.59555,0.48718 2.25384,2.38605 2.81642,3.62528c0.14143,0.00744 0.30384,0.07325 0.41445,0.29446c0.23616,0.47232 -0.23616,0.70849 -0.23616,0.70849c-0.015,0.00715 -0.03006,0.01419 -0.04518,0.02112c-0.35206,1.12045 -2.25508,2.0718 -3.10131,2.57986l0.00812,0.01417c0,0 -0.3734,0.3734 -0.74681,0c-0.3734,-0.3734 0,-0.74681 0,-0.74681l0.1953,-0.173c0.31709,-0.19012 1.4492,-0.78221 2.12548,-1.31068c-1.73274,0.13397 -3.76749,-0.42513 -5.30224,-0.6493c-2.40237,-0.35089 -5.12217,-0.40708 -7.52034,-0.05928l-0.16827,0.00531c0,0 -0.52807,0 -0.52807,-0.52807z" fill="#000000" stroke="none" stroke-width="0.5" stroke-linecap="butt"/><path d="M315.6392,242.29395c-0.52807,0 -0.52807,-0.52807 -0.52807,-0.52807l0.00719,-0.1804c0.51935,-3.06473 -0.05588,-6.30037 0.76013,-9.31741c0,0 0.13895,-0.50947 0.64841,-0.37052c0.50947,0.13895 0.37052,0.64841 0.37052,0.64841c-0.81551,2.96319 -0.24093,6.19086 -0.73729,9.21315l0.00719,0.00677c0,0 0,0.52807 -0.52807,0.52807z" fill="#000000" stroke="none" stroke-width="0.5" stroke-linecap="butt"/><path d="M314.90786,245.65186c0.22398,-0.07065 0.4415,0.05986 0.4415,0.05986c3.23864,2.45504 -4.65481,2.03383 -0.51253,-0.15168z" fill="#000000" stroke="none" stroke-width="0.5" stroke-linecap="butt"/><text transform="translate(323.88361,304.09271) scale(0.1575,0.1575)" font-size="40" xml:space="preserve" fill="#000000" fill-rule="nonzero" stroke="none" stroke-width="1" stroke-linecap="butt" stroke-linejoin="miter" stroke-miterlimit="10" stroke-dasharray="" stroke-dashoffset="0" font-family="&quot;SagoMiniRounded-Bold_v2&quot;, Sans Serif" font-weight="normal" text-anchor="start" style="mix-blend-mode: normal"><tspan x="0" dy="0">Some of Xin's senior friends uses Xin as a protective blame. (Xin is being used as a protective blame even though it was their fault that did it.) when people </tspan><tspan x="0" dy="46.150000000000006px">are seniors uses Xin as the blame person, you have a 65% chance of him Ruining the secret Trust. Telling the payback on the person that's using Xin as a</tspan><tspan x="0" dy="46.150000000000006px"> blame. ( this is usually not allowed to Xin as this can break friendship).</tspan></text><text transform="translate(325.95519,296.65668) scale(0.37022,0.37022)" font-size="40" xml:space="preserve" fill="#000000" fill-rule="nonzero" stroke="none" stroke-width="1" stroke-linecap="butt" stroke-linejoin="miter" stroke-miterlimit="10" stroke-dasharray="" stroke-dashoffset="0" font-family="&quot;RifficFree-Bold&quot;, Sans Serif" font-weight="normal" text-anchor="start" style="mix-blend-mode: normal"><tspan x="0" dy="0">Taunting Xin</tspan></text><path d="M311.26612,326.95063c0.47232,0.23616 0.23616,0.70849 0.23616,0.70849l-0.29422,0.40384c-0.64977,0.38925 -1.31672,0.71966 -2.01827,1.0048c-5.56319,2.25543 -11.92075,5.82298 -17.97629,6.90903l0.01818,0.05817l-0.99632,0.31135c-0.05314,0.01797 -0.11006,0.02771 -0.16926,0.02771c-0.29165,0 -0.52807,-0.23643 -0.52807,-0.52807c0,-0.07968 0.01765,-0.15524 0.04925,-0.22298l0.23199,-0.52803l0.01534,0.00674l0.00786,-0.0532c0.2113,-0.30335 0.42261,-0.60669 0.63391,-0.91004c1.49237,-2.11419 3.29003,-3.95648 4.87306,-5.99865c0.53683,-0.69253 0.88309,-1.53627 1.40167,-2.24317c0.13477,-0.1837 0.70395,-0.57177 0.5052,-0.46039c-1.93337,1.08344 -4.86107,1.65783 -7.0399,2.32458c-0.52207,-0.13283 -1.28076,0.05836 -1.56621,-0.3985c-0.35675,-0.57097 1.06523,-1.70106 1.33763,-1.95277c1.22916,-1.13581 2.56485,-2.15922 3.84119,-3.24356c0.36575,-0.31073 1.10034,-0.50822 1.04965,-0.98546c-0.03905,-0.36769 -0.68913,0.28117 -1.05218,0.35127c-1.04312,0.2014 -3.18857,0.94477 -4.231,0.48785c-1.79306,-0.78593 0.24159,-1.91825 0.90187,-2.42324c0.48212,-0.36873 0.96756,-0.7334 1.46201,-1.08541c2.04453,-1.45523 4.20107,-2.46203 6.34781,-3.7051c0.28988,-0.16786 2.11326,-1.46535 1.78683,-1.90026c-0.36741,-0.48951 -2.67184,-0.69043 -3.26633,-0.83106c-1.61671,-0.38243 -2.84045,-0.78018 -4.03178,-1.61405l-0.06334,0.09953l-0.88353,-0.56225c-0.15122,-0.09289 -0.25206,-0.25981 -0.25206,-0.45029c0,-0.24869 0.1719,-0.45722 0.40337,-0.51326l1.00255,-0.26654l0.0005,0.00186l0.00825,-0.00411c0.58656,-0.13443 3.03391,-0.80456 4.50238,-0.92666c-2.07822,-0.98413 -5.22525,-2.43501 -6.04171,-4.31253c-0.74338,-1.70946 2.7275,-2.15261 5.07139,-1.89282c-1.75408,-0.97405 -3.63071,-2.46554 -0.70472,-3.1984c1.91587,-0.47782 3.89732,-0.7392 5.87237,-0.73986c0.36791,-0.00012 1.0784,0.01225 1.64681,0.03862c-0.57418,-0.34223 -0.9961,-1.15732 -1.40134,-1.56649c-2.1888,-2.21003 -4.46637,-3.74568 -5.51387,-6.82201c3.55806,-0.80649 8.23215,2.07832 11.49695,3.32976c1.53916,0.58998 3.15952,0.88118 4.63648,1.61309c0,0 0.47232,0.23616 0.23616,0.70849c-0.23616,0.47232 -0.70849,0.23616 -0.70849,0.23616c-3.14761,-1.58969 -7.27588,-3.1145 -10.68761,-4.08732c-0.5298,-0.15106 -2.47098,-0.2994 -3.46633,-0.71339c0.35453,0.44733 0.57608,0.97297 0.97626,1.45547c1.32477,1.5973 3.11769,2.79129 4.49763,4.33736c0.54249,0.6078 1.74835,0.97109 1.67245,1.78224c-0.08668,0.92644 -1.88893,0.74249 -2.32896,0.74418c-2.266,0.0087 -4.46613,0.15538 -6.67237,0.70833c-1.96746,0.49091 0.75332,1.20638 2.09712,1.82507l0.01687,0.01611l0.00303,-0.00532l0.90859,0.51799c0.16412,0.08957 0.27546,0.26371 0.27546,0.46385c0,0.29165 -0.23643,0.52807 -0.52807,0.52807c-0.00311,0 -0.00621,-0.00003 -0.0093,-0.00008l-1.05471,-0.01594l0.00188,-0.12461c-1.8616,0.16871 -3.73339,-0.03146 -5.57801,0.1843c-0.37654,0.04404 0.56128,0.50976 0.84156,0.76504c0.48638,0.44302 0.99511,0.8644 1.53338,1.24268c1.37361,0.96533 2.7546,1.70887 4.25398,2.46037l0.02249,0.02625l0.00576,-0.00861l0.54602,0.36545c0.14511,0.09411 0.2411,0.25753 0.2411,0.44337c0,0.26506 -0.19528,0.48451 -0.44982,0.52232l-0.55297,0.09216l-0.01344,-0.08065c-1.6292,0.56436 -3.46077,0.69884 -5.14255,1.05818c2.04212,0.34974 5.10632,1.41002 6.70637,2.12348c0.7781,0.34695 1.12149,0.60854 0.83358,1.58491c-0.76738,2.60243 -6.38249,4.43324 -8.48163,5.92735c-0.4847,0.34492 -0.96031,0.70258 -1.4329,1.06392c-3.19079,2.43969 3.71543,-1.48152 4.59654,0.12761c0.262,0.47847 -0.07712,1.1175 -0.3234,1.60425c-0.63733,1.25963 -5.84032,4.77136 -5.30909,4.54353c1.86236,-0.61044 3.67061,-1.53801 5.60343,-1.84591c0.36387,-0.05797 2.09902,-0.32997 2.1226,-0.31602c1.18193,0.69883 -0.42307,2.28978 -0.76211,2.83297c-1.65393,2.64976 -3.92779,4.81587 -5.72647,7.364c-0.03601,0.05116 -0.07202,0.10232 -0.10802,0.15349c1.22166,-0.71994 2.9542,-1.02169 4.18931,-1.53977c4.41257,-1.85092 8.93632,-3.47036 13.37108,-5.27043c0.65125,-0.26364 1.26958,-0.56975 1.87191,-0.93176l-0.10704,0.02948c0,0 0.23616,-0.47232 0.70849,-0.23616z" fill="#000000" stroke="none" stroke-width="0.5" stroke-linecap="butt"/><path d="M319.31564,301.41526c-0.10356,0.51782 -0.62138,0.41426 -0.62138,0.41426l-0.5118,-0.10433c-1.40234,-0.40973 -3.09113,-1.07143 -4.78035,-1.85778c0.02866,0.15565 0.03128,0.31489 0.00402,0.47761c-0.16958,1.01209 -3.82288,1.47526 -4.59779,1.65609c-0.47669,0.11124 -1.58564,0.30247 -2.10188,0.38627c0.19234,-0.00304 0.37335,0.0672 0.54296,0.18178l0.13154,-0.13154l0.74681,0.74681c0.09556,0.09556 0.15467,0.22758 0.15467,0.3734c0,0.27369 -0.20821,0.49876 -0.47488,0.52543l-0.93025,0.10574c-0.3601,0.04837 -0.69145,0.13421 -1.01372,0.20538c1.70014,0.3534 4.44597,0.89222 4.56166,2.25923c0.0305,0.36033 -1.75572,0.88957 -1.87179,0.92784c-1.37776,0.45434 -2.63585,1.00341 -3.97059,1.5344c-0.5674,0.22573 1.21611,0.14504 1.80802,0.29519c0.54753,0.1389 1.08384,0.31873 1.6257,0.47832c0.47989,0.18261 2.14662,0.74724 2.32106,1.18634c0.17135,0.43131 -1.47089,1.28776 -1.5961,1.364c-1.31336,0.79971 -3.06766,3.08611 -4.59617,3.23727c-0.42617,0.04215 0.86591,-0.09064 1.28475,-0.00137c0.62198,0.13255 2.75102,0.56745 2.56473,1.63075c-0.0634,0.36188 -0.46119,0.65335 -0.97566,0.86257c0.51792,0.13576 0.93559,0.35825 1.06654,0.73116c0.06299,0.17939 -0.65284,1.01375 -0.83591,1.23579c-0.8332,1.01061 -1.38872,2.4564 -2.34201,3.37273l0.02544,0.01272c3.57967,-0.17498 6.66088,-2.68359 10.21462,-2.70973c0,0 0.52807,0 0.52807,0.52807c0,0.52807 -0.52807,0.52807 -0.52807,0.52807c-3.57962,-0.03221 -6.71921,2.72627 -10.39049,2.70908l-0.58977,0.1685c-0.04954,0.01538 -0.1022,0.02367 -0.1568,0.02367c-0.29165,0 -0.52807,-0.23643 -0.52807,-0.52807c0,-0.08869 0.02187,-0.17228 0.0605,-0.24566l0.46757,-0.93515l0.10691,0.05345c0.42326,-0.98057 0.97371,-1.87685 1.62039,-2.80067c0.18738,-0.26768 0.58758,-0.78479 0.89752,-1.09925c-0.68273,0.00819 -1.99276,-0.217 -2.21672,-0.24548l-0.49864,0.08311c-0.03133,0.00579 -0.06362,0.00882 -0.09663,0.00882c-0.29165,0 -0.52807,-0.23643 -0.52807,-0.52807c0,-0.23755 0.15685,-0.43846 0.37263,-0.50483l0.83075,-0.27692l0.0535,0.1605c0.62572,-0.35176 1.35381,-0.72158 1.84581,-0.84998c-0.15486,-0.07212 -0.30825,-0.14658 -0.41158,-0.18368c-0.46657,-0.16754 -2.77911,-0.29148 -2.85913,-0.91821c-0.06633,-0.51954 0.55504,-0.89504 0.90621,-1.28363c1.076,-1.19066 3.49947,-3.20029 5.05076,-3.67621c0.44914,-0.13779 -0.96624,0.05858 -1.4052,-0.10884c-0.97341,-0.28589 -4.82867,-0.62907 -4.05338,-2.22132c0.46327,-0.95144 2.69303,-1.48804 3.5918,-1.77647c0.21143,-0.06785 1.24272,-0.26974 1.80453,-0.3752c-1.15125,0.02382 -3.56869,-1.08137 -4.4055,-1.32792l-1.00407,-0.27384c-0.22986,-0.05717 -0.4002,-0.26494 -0.4002,-0.51249c0,-0.24398 0.16546,-0.44931 0.39028,-0.50992l1.00186,-0.29488l0.02426,0.08241c0.57255,-0.23866 1.13772,-0.39043 1.87434,-0.50425c-3.16236,-1.06848 3.46788,-2.33549 4.53999,-2.73764c0.44125,-0.16551 1.42048,0.0601 1.35411,-0.40647c-0.06393,-0.44946 -0.59743,-0.90065 -1.30073,-1.31777c-0.20886,-0.11208 -0.41556,-0.22524 -0.6195,-0.33921c-1.20636,-0.61584 -2.62251,-1.12488 -3.11596,-1.39184l-0.89477,-0.31729c-0.21089,-0.06926 -0.36317,-0.26776 -0.36317,-0.50182c0,-0.27857 0.2157,-0.50676 0.4892,-0.52667l1.04752,-0.08729l0.02496,0.29951c3.64175,0.01703 7.34362,3.85814 10.81241,4.86116l0.42408,0.08285c0,0 0.51782,0.10356 0.41426,0.62138z" fill="#000000" stroke="none" stroke-width="0.5" stroke-linecap="butt"/><path d="M290.15872,312.35612c0.3734,0.3734 0,0.74681 0,0.74681l-0.08768,0.08768c0.42357,0.34643 0.86526,0.67064 1.32449,0.97608l0.00559,0.00682l0.00138,-0.00193l0.64939,0.46385c0.13712,0.09539 0.22686,0.25411 0.22686,0.4338c0,0.28387 -0.22398,0.51542 -0.50485,0.52757l-1.05168,0.05258l-0.00474,-0.0949c-1.71489,0.28256 -3.54891,0.31856 -5.23724,0.32358h-0.56153c-0.29165,0 -0.52807,-0.23643 -0.52807,-0.52807c0,-0.23258 0.15036,-0.43005 0.35918,-0.50049l0.98099,-0.35672l0.04764,0.131c0.90984,-0.46951 1.84199,-0.87251 2.67571,-1.45544c-0.08708,-0.0831 -0.17337,-0.16729 -0.25889,-0.25261c0,0 -0.3734,-0.3734 0,-0.74681c0.3734,-0.3734 0.74681,0 0.74681,0c0.10954,0.10982 0.22056,0.21764 0.33305,0.32352c0.01445,-0.01415 0.02886,-0.0284 0.04321,-0.04275l0.09359,-0.09359c0,0 0.3734,-0.3734 0.74681,0zM288.42436,314.54121c0.58039,-0.04951 1.15352,-0.06403 1.68359,0.01252c-0.28201,-0.20757 -0.55713,-0.42283 -0.82545,-0.64655c-0.26565,0.21908 -0.55499,0.43638 -0.85814,0.63403z" fill="#000000" stroke="none" stroke-width="0.5" stroke-linecap="butt"/><path d="M279.77571,310.06005c0.12636,0.25271 0.04989,0.43782 -0.04853,0.55532c0.01736,0.07059 0.0201,0.154 0.00043,0.25235c-0.10356,0.51782 -0.62138,0.41426 -0.62138,0.41426c-0.00476,-0.00095 -0.00952,-0.00191 -0.01428,-0.00286c-0.2484,0.34459 -0.46182,0.69561 -0.67041,1.10405c-0.59828,0.61071 -1.07655,1.83289 -2.11212,1.70852c-0.9859,-0.1184 -3.23971,-2.88088 -2.93276,-3.8759c0.35137,-1.13901 3.69131,-0.45896 5.28891,-0.10976c0.01489,-0.01806 0.02988,-0.03616 0.04496,-0.05429l0.35669,-0.22785c0,0 0.47232,-0.23616 0.70849,0.23616zM277.95099,311.07501c-0.7138,-0.11256 -1.42541,-0.196 -2.15395,-0.25252c-0.48074,-0.03729 -1.67363,-0.67074 -1.42323,-0.25867c1.29779,2.13572 1.61766,2.73568 3.19093,1.20181c0.11987,-0.2459 0.24807,-0.47307 0.38625,-0.69062z" fill="#000000" stroke="none" stroke-width="0.5" stroke-linecap="butt"/><path d="M269.39205,313.9613c0.45282,-0.27169 0.72451,0.18113 0.72451,0.18113l0.33686,0.59867c0.00185,0.10413 -0.01144,0.29985 -0.03115,0.5505c1.15315,0.61762 2.26239,1.29471 3.48859,1.79071l0.51057,0.08509c0.25454,0.03781 0.44982,0.25726 0.44982,0.52232c0,0.17969 -0.08975,0.33842 -0.22686,0.4338l-0.64939,0.46385l-0.14486,-0.2028c-1.20181,0.821 -3.06583,1.7644 -3.86102,1.1813c-0.79356,-0.5819 -0.70313,-2.36626 -0.61163,-3.62825c-0.01448,-0.00725 -0.02898,-0.01449 -0.04349,-0.02171c0,0 -0.47232,-0.23616 -0.23616,-0.70849c0.07696,-0.15391 0.17899,-0.23259 0.28159,-0.26873l-0.16849,-0.25289c0,0 -0.27169,-0.45282 0.18113,-0.72451zM273.09931,317.87661c-0.95589,-0.4266 -1.85155,-0.94216 -2.76535,-1.4375c-0.0621,0.93996 -0.08627,1.94693 0.12748,2.18213c0.05956,0.06554 1.63412,-0.52071 2.63787,-0.74463z" fill="#000000" stroke="none" stroke-width="0.5" stroke-linecap="butt"/><path d="M279.44417,320.24773c0.94304,-0.38799 2.30171,-0.29003 3.41664,-0.22294c-0.88059,-0.5955 -2.36416,-1.57034 -2.43975,-1.53364c-0.18574,0.09018 -0.63332,1.03478 -0.97689,1.75658zM284.28948,320.22872c0.07365,0.07814 0.12783,0.19311 0.12783,0.36225c0,0.52807 -0.52807,0.52807 -0.52807,0.52807h-0.09359c-1.5336,0 -3.00677,0.07941 -4.50533,0.19173l-0.91803,0.33383c-0.0595,0.02323 -0.12424,0.03597 -0.19196,0.03597c-0.29165,0 -0.52807,-0.23643 -0.52807,-0.52807c0,-0.14582 0.05911,-0.27784 0.15467,-0.3734l0.43315,-0.43315c0.42098,-0.71801 1.22288,-2.68032 2.00459,-2.89612c0.77196,-0.2131 3.32615,1.75296 3.86783,2.15715c0,0 0.34587,0.25941 0.17699,0.62174z" fill="#000000" stroke="none" stroke-width="0.5" stroke-linecap="butt"/><text transform="translate(591.14959,40.4533) scale(0.1575,0.1575)" font-size="40" xml:space="preserve" fill="#000000" fill-rule="nonzero" stroke="none" stroke-width="1" stroke-linecap="butt" stroke-linejoin="miter" stroke-miterlimit="10" stroke-dasharray="" stroke-dashoffset="0" font-family="&quot;SagoMiniRounded-Bold_v2&quot;, Sans Serif" font-weight="normal" text-anchor="start" style="mix-blend-mode: normal"><tspan x="0" dy="0">Students that used to be friends with Xin and was fond</tspan><tspan x="0" dy="46.150000000000006px"> of Xin stays like that. If they say or breaks Xin's</tspan><tspan x="0" dy="46.150000000000006px"> friendship, Xin will mark them as a not trusted person.</tspan><tspan x="0" dy="46.150000000000006px"> Which can lead that if they re serious Xin re'll have to </tspan><tspan x="0" dy="46.150000000000006px">avoid that person for all costs. But if it's on pretend or</tspan><tspan x="0" dy="46.150000000000006px"> joke. Xin does not mind for once. Too many times will just</tspan><tspan x="0" dy="46.150000000000006px"> Mark that person as a friendships griefer.</tspan></text><text transform="translate(592.0981,31.70702) scale(0.31344,0.31344)" font-size="40" xml:space="preserve" fill="#000000" fill-rule="nonzero" stroke="none" stroke-width="1" stroke-linecap="butt" stroke-linejoin="miter" stroke-miterlimit="10" stroke-dasharray="" stroke-dashoffset="0" font-family="&quot;RifficFree-Bold&quot;, Sans Serif" font-weight="normal" text-anchor="start" style="mix-blend-mode: normal"><tspan x="0" dy="0">Friendship is Unforgivable.</tspan></text><path d="M563.42039,59.14237c0.70005,-0.85148 1.31999,-1.79129 2.06241,-2.59853c2.24633,-2.44244 4.94417,-4.1391 6.7008,-7.06682c4.49104,-5.15032 7.55955,-8.74469 7.57515,-15.92606c-1.07818,-5.87388 -3.97692,-10.54497 -10.45991,-10.56597c-3.56468,0.7881 -5.24224,5.09735 -6.84389,7.76552l-0.08238,0.65904c-0.02913,0.26409 -0.25301,0.46953 -0.52487,0.46953c-0.24304,0 -0.44773,-0.16419 -0.50921,-0.3877l-0.27736,-0.92452l0.10678,-0.03204c-1.1195,-2.37018 -1.95615,-5.37697 -3.78354,-7.02019c-1.55788,-1.40087 -5.34639,-0.45049 -7.03318,0.18203c-5.82688,2.64745 -7.57164,7.19247 -6.51925,13.33925c1.26889,4.48335 3.39377,8.75654 5.64768,12.76241c0.90557,1.60948 1.40107,3.07883 2.90908,4.29018c1.76231,2.0477 2.63719,4.73909 3.84806,7.1619c0.29619,0.59265 0.61474,2.20681 0.97107,2.56691c0.34118,0.34478 0.74659,-0.61995 1.10567,-0.94604c0.72835,-0.66144 1.50402,-1.12957 2.29331,-1.7222c0.95431,-0.6311 1.87898,-1.32828 2.81356,-2.00669zM561.57804,61.76556c-0.12003,0.08263 -0.24041,0.16456 -0.3612,0.24567c-0.81768,0.61259 -3.4481,3.20475 -4.46247,2.7599c-0.56716,-0.24873 -0.93536,-1.9532 -1.1882,-2.50086c-1.14002,-2.46925 -2.16676,-5.37751 -3.91307,-7.42396c-1.56654,-1.26939 -2.13583,-2.82707 -3.0806,-4.50716c-2.31007,-4.10801 -4.44906,-8.47873 -5.77015,-13.06807c-1.15426,-6.64485 0.85602,-11.69056 7.14471,-14.55019c2.07653,-0.77872 6.23132,-1.70818 8.12819,-0.00515c1.09685,0.98477 1.38496,2.46436 2.07655,3.69052c0.53094,0.94134 1.56711,2.0194 1.79861,3.14295c1.68865,-3.0037 3.51361,-6.78431 7.23322,-7.61408c7.10403,-0.01806 10.45982,5.04728 11.62703,11.52097c0.01475,7.4431 -3.09218,11.31377 -7.7734,16.64281c-1.77541,2.95901 -4.51217,4.68759 -6.77597,7.15867c-0.40154,0.43831 -0.76832,0.90473 -1.12943,1.3733c0.20407,0.36703 -0.14657,0.64754 -0.14657,0.64754l-0.4793,0.38319c-0.14421,0.10305 -0.28804,0.20664 -0.43161,0.31054c-0.56572,0.67236 -1.18195,1.29319 -1.94676,1.77503c0,0 -0.29034,0.18146 -0.54956,0.01838z" fill="#000000" stroke="none" stroke-width="0.5" stroke-linecap="butt"/><path d="M570.82478,32.98551c0.08201,-0.01369 0.51302,-0.06242 0.61655,0.40346c0.11456,0.5155 -0.40094,0.63005 -0.40094,0.63005c-1.9125,0.40745 -3.29055,1.86008 -5.05985,2.59286c-0.0175,0.00725 -1.26292,0.398 -1.27536,0.552c-0.12936,1.60183 2.95956,1.94602 3.84116,1.44171c1.48334,-1.51383 3.19751,-2.40952 3.09194,-4.72835c-0.02377,-0.52213 0.75968,-1.33442 0.28033,-1.54274c-0.10152,-0.04412 -0.54057,0.23963 -1.09382,0.651zM566.83749,35.00007c0.0439,-0.2519 0.2958,-0.37785 0.2958,-0.37785l0.04993,0.00533c0.75514,-0.74859 4.22866,-3.85157 5.37031,-3.13701c0.11333,0.07093 0.1266,2.04805 0.13982,2.33932c0.12398,2.73207 -1.7387,3.87517 -3.50594,5.61507c-1.49048,0.85108 -6.031,0.26253 -5.51771,-2.48902c0.16339,-0.87586 1.2493,-1.05082 1.90666,-1.31977c0.44086,-0.18037 0.85651,-0.40002 1.26113,-0.63607z" fill="#000000" stroke="none" stroke-width="0.5" stroke-linecap="butt"/><path d="M550.61707,29.60627c0.52807,0 0.52807,0.52807 0.52807,0.52807v0.18718c-0.00001,0.00591 -0.00002,0.01182 -0.00003,0.01773c2.23501,0.76061 4.28181,3.30473 5.51668,5.10304c0.26395,0.38439 1.27146,1.08645 1.21779,1.58855c-0.1305,1.22065 -3.10841,3.40582 -4.16965,3.5444c-4.64222,-2.21565 -3.74744,-5.39117 -3.63192,-9.47779c-0.11107,-0.08684 -0.20562,-0.23306 -0.17088,-0.47625c0.02431,-0.17016 0.09609,-0.27702 0.18187,-0.34376v-0.14309c0,0 0,-0.52807 0.52807,-0.52807zM551.11087,31.4168c-0.19148,3.37777 -0.98978,6.11334 2.77737,8.11745c0.89539,-0.09942 1.3615,-1.18728 1.87964,-1.83109c0.19398,-0.24102 0.56419,-0.73936 0.81952,-0.87702c-0.13809,-0.11125 -0.29649,-0.26215 -0.37414,-0.34994c-0.50722,-0.57346 -0.81292,-1.15649 -1.35254,-1.7286c-0.92625,-0.98202 -2.33553,-2.73414 -3.74986,-3.3308z" fill="#000000" stroke="none" stroke-width="0.5" stroke-linecap="butt"/></g></g></svg>