<svg version="1.1" xmlns="http://www.w3.org/2000/svg" xmlns:xlink="http://www.w3.org/1999/xlink" width="744.57978" height="338.5775" viewBox="0,0,744.57978,338.5775"><g transform="translate(-8.82396,-3.4138)"><g data-paper-data="{&quot;isPaintingLayer&quot;:true}" fill-rule="nonzero" stroke-linecap="butt" stroke-linejoin="miter" stroke-miterlimit="10" stroke-dasharray="" stroke-dashoffset="0" style="mix-blend-mode: normal"><path d="M8.82396,341.9913v-338.5775h744.57978v338.5775z" fill="#aeaeae" stroke="none" stroke-width="NaN"/><text transform="translate(18.82663,29.97531) scale(0.52807,0.52807)" font-size="40" xml:space="preserve" fill="#000000" fill-rule="nonzero" stroke="none" stroke-width="1" stroke-linecap="butt" stroke-linejoin="miter" stroke-miterlimit="10" stroke-dasharray="" stroke-dashoffset="0" font-family="&quot;RifficFree-Bold&quot;, Sans Serif" font-weight="normal" text-anchor="start" style="mix-blend-mode: normal"><tspan x="0" dy="0">Actions &amp; Skills</tspan></text><path d="M26.70743,89.12767v-52.30882h56.52327v52.30882z" fill="#ff0000" stroke="#000000" stroke-width="1"/><path d="M26.85454,136.65861c0,-15.31149 12.41241,-27.7239 27.7239,-27.7239c15.31149,0 27.7239,12.41241 27.7239,27.7239c0,15.31149 -12.41241,27.7239 -27.7239,27.7239c-15.31149,0 -27.7239,-12.41241 -27.7239,-27.7239z" fill="#ff0000" stroke="#000000" stroke-width="1"/><text transform="translate(86.54054,49.41848) scale(0.40788,0.40788)" font-size="40" xml:space="preserve" fill="#000000" fill-rule="nonzero" stroke="none" stroke-width="1" stroke-linecap="butt" stroke-linejoin="miter" stroke-miterlimit="10" stroke-dasharray="" stroke-dashoffset="0" font-family="&quot;RifficFree-Bold&quot;, Sans Serif" font-weight="normal" text-anchor="start" style="mix-blend-mode: normal"><tspan x="0" dy="0">Unfair Naming</tspan></text><text transform="translate(88.20231,61.25265) scale(0.21352,0.21352)" font-size="40" xml:space="preserve" fill="#000000" fill-rule="nonzero" stroke="none" stroke-width="1" stroke-linecap="butt" stroke-linejoin="miter" stroke-miterlimit="10" stroke-dasharray="" stroke-dashoffset="0" font-family="&quot;SagoMiniRounded-Bold_v2&quot;, Sans Serif" font-weight="normal" text-anchor="start" style="mix-blend-mode: normal"><tspan x="0" dy="0">If a person says hi to Xin but does not say his name. Could make them as forgot Xin. But if a person says hi to Xin but does not say his name but does say hi with someone else's </tspan><tspan x="0" dy="46.150000000000006px">name next to Xin it's called name hater. This is extremely effective with house news</tspan></text><text transform="translate(86.54054,125.41848) scale(0.40788,0.40788)" font-size="40" xml:space="preserve" fill="#000000" fill-rule="nonzero" stroke="none" stroke-width="1" stroke-linecap="butt" stroke-linejoin="miter" stroke-miterlimit="10" stroke-dasharray="" stroke-dashoffset="0" font-family="&quot;RifficFree-Bold&quot;, Sans Serif" font-weight="normal" text-anchor="start" style="mix-blend-mode: normal"><tspan x="0" dy="0">Forgot about XIN?!</tspan></text><text transform="translate(89.03564,137.25265) scale(0.21352,0.21352)" font-size="40" xml:space="preserve" fill="#000000" fill-rule="nonzero" stroke="none" stroke-width="1" stroke-linecap="butt" stroke-linejoin="miter" stroke-miterlimit="10" stroke-dasharray="" stroke-dashoffset="0" font-family="&quot;SagoMiniRounded-Bold_v2&quot;, Sans Serif" font-weight="normal" text-anchor="start" style="mix-blend-mode: normal"><tspan x="0" dy="0">People that says hi to Xin but does not say his name marks them as forgot Xin. There is a certain code that Xin does if a person does not know his name.</tspan><tspan x="0" dy="46.150000000000006px">People that Waves hi but not say hi or say hi with his name. Calls as not knowing Xin.</tspan><tspan x="0" dy="46.150000000000006px">People that does not respond after Xin greet it's called forgotten Xin.</tspan><tspan x="0" dy="46.150000000000006px">People that does say hi and with his name reset the forgot Xin meter on them.</tspan><tspan x="0" dy="46.150000000000006px">People that says hi and says his name first before Xin Greets them also reset the forgot Xin meter on them.</tspan><tspan x="0" dy="46.150000000000006px">People that ignores Xin greet causes them as a Shy and not trustworthy person</tspan></text><path d="M30.34768,66.6299c0,-0.41244 0.34021,-0.48467 0.45937,-0.49732c0.83448,-1.21419 1.79834,-2.33528 2.70022,-3.50129c1.25941,-1.62761 2.51971,-3.25274 3.7839,-4.87477c-2.04058,-3.12022 -4.25929,-6.12292 -6.40035,-9.17606c0,0 -0.28673,-0.40962 0.12289,-0.69635c0.40961,-0.28673 0.69635,0.12288 0.69635,0.12288c2.07739,2.9734 4.23185,5.89415 6.22828,8.91991c1.98138,-2.53771 3.97355,-5.0676 5.98808,-7.58729c0,0 0.31235,-0.39044 0.70278,-0.07809c0.39043,0.31235 0.07809,0.70278 0.07809,0.70278c-2.08499,2.60471 -4.14465,5.22108 -6.19257,7.84632c1.011,1.56916 1.97405,3.1702 2.85707,4.82466c1.02929,1.93244 2.0133,4.17545 2.71343,6.24768l0.14905,0.56176c0,0 0.128,0.48334 -0.35534,0.61134c-0.48334,0.128 -0.61134,-0.35534 -0.61134,-0.35534l-0.14007,-0.52998c-0.67486,-2.00978 -1.63689,-4.19304 -2.63794,-6.06461c-0.81486,-1.52675 -1.69821,-3.00842 -2.62477,-4.4616c-1.19144,1.53013 -2.37939,3.06318 -3.56652,4.59858c-0.94143,1.21712 -1.9556,2.38368 -2.80818,3.66413l-0.6424,0.22265c0,0 -0.5,0 -0.5,-0.5z" fill="#000000" stroke="none" stroke-width="0.5"/><path d="M47.14649,63.39475c-0.5,0 -0.5,-0.5 -0.5,-0.5l0.01924,-0.36374c0.62661,-2.14113 0.20932,-4.78591 0.32094,-7.01833c0,0 0.02497,-0.49938 0.52435,-0.47441c0.49938,0.02497 0.4744,0.52435 0.4744,0.52435c-0.11664,2.33289 0.27078,4.99582 -0.35817,7.24312l0.01924,0.08901c0,0 0,0.5 -0.5,0.5z" fill="#000000" stroke="none" stroke-width="0.5"/><path d="M62.20024,69.50681c-0.5,-0.00002 -0.49999,-0.50002 -0.49999,-0.50002l0.00002,-0.61219c0.00014,-3.26833 0.22635,-6.52264 0.22635,-9.78111c0,-1.1871 -0.25395,-2.74122 0.05638,-3.95124c-2.44882,2.61447 -4.05577,5.873 -6.44727,8.51718c-0.94376,1.04347 -1.55753,2.23635 -2.69875,2.83375l0.07923,0.15846l-0.44374,0.22187c-0.06948,0.03658 -0.14863,0.05728 -0.2326,0.05728c-0.27614,0 -0.5,-0.22386 -0.5,-0.5c0,-0.05796 0.00986,-0.11362 0.028,-0.16539l0.20442,-0.63012c-0.01505,-3.84381 1.55524,-8.44917 0.13898,-12.15853c0,0 -0.17556,-0.46817 0.2926,-0.64373c0.46816,-0.17556 0.64372,0.2926 0.64372,0.2926c1.35675,3.67516 0.11624,8.02363 -0.06606,11.8905c0.57485,-0.77569 1.5271,-1.71168 1.81245,-2.02737c2.51931,-2.78716 4.18066,-6.24316 6.85138,-8.93263l0.03509,-0.01432l-0.00657,-0.00876l0.4487,-0.33653c0.08425,-0.06462 0.18966,-0.10303 0.30404,-0.10303c0.27614,0 0.5,0.22386 0.5,0.5v1h-0.05221c0.5441,4.48554 -0.17395,9.30576 -0.17414,13.78115l-0.00002,0.61219c0,0 -0.00001,0.5 -0.50001,0.49998z" fill="#000000" stroke="none" stroke-width="0.5"/><path d="M67.24952,71.31537c-0.15245,-0.00844 -0.36608,-0.07677 -0.44096,-0.37632c-0.12127,-0.48507 0.3638,-0.60634 0.3638,-0.60634c1.06128,-0.26108 4.71123,0.06182 3.24336,2.24885c-0.96273,1.4344 -3.66781,0.4164 -3.1662,-1.26619zM68.32996,71.2766l-0.0704,0.18074c-0.73907,0.60467 0.8779,0.93331 1.34492,0.53951c0.40901,-0.34489 -0.46044,-0.63888 -1.27451,-0.72025z" fill="#000000" stroke="none" stroke-width="0.5"/><path d="M66.72217,49.31518c0.22361,0.44721 -0.22361,0.67082 -0.22361,0.67082l-0.08682,0.04124c-0.0171,0.06036 -0.04656,0.13018 -0.09732,0.19159c1.5588,-0.07348 1.46901,-1.60117 3.42991,-2.28805c1.29175,-0.45248 3.87669,0.5397 4.99438,1.10599c1.5145,1.83976 2.27371,8.51683 -0.57574,9.79248c-1.27217,0.56952 -3.15165,-0.19199 -4.38385,-0.42876c-0.5017,-0.1444 -1.1242,-0.99079 -1.4528,-0.58512c-0.00274,0.00339 -0.06279,2.16009 -0.08119,2.39836c-0.18936,2.45221 -0.51055,5.44288 -0.24326,7.86731c0.06088,0.55225 0.72991,0.26649 1.17549,0.3977c-0.00602,-2.32592 0.27226,-4.81059 -0.1132,-7.08639c0,0 -0.0822,-0.4932 0.41099,-0.5754c0.0299,-0.00498 0.0583,-0.00785 0.08526,-0.00884c0.02232,-0.15564 0.05332,-0.2683 0.09614,-0.30426c0.76037,-0.63846 1.85822,0.09459 2.59865,0.20213c3.00708,0.43677 4.20538,-1.24646 4.92683,-3.92662c0.60286,-2.22345 1.60809,-5.20861 1.07238,-7.52204c-0.86709,-3.7445 -4.65137,-5.62348 -8.10964,-3.92431c-1.93106,0.71978 -3.01883,2.00479 -3.54506,3.81471c0.04475,0.04095 0.0865,0.09552 0.12247,0.16746zM70.16195,68.54949l0.19498,0.48747c0.02573,0.06024 0.03998,0.12657 0.03998,0.19622c0,0.27614 -0.22386,0.5 -0.5,0.5c-0.06965,0 -0.13598,-0.01424 -0.19623,-0.03997l-0.35866,-0.14347c-0.6633,-0.02596 -1.42902,-0.08915 -1.77049,-0.3606c-0.84626,-0.67273 -0.60014,-2.07693 -0.55083,-3.00132c0.12001,-2.24974 0.02603,-4.64765 0.34388,-6.87255c0.0423,-0.29612 0.05463,-2.04435 0.2546,-2.20701c0.65203,-0.53037 1.75859,0.13997 2.39552,0.32037c1.02114,0.21108 2.72345,0.93254 3.76556,0.47673c2.02265,-0.88469 1.34817,-6.76753 0.32975,-8.09094c-0.83826,-0.41114 -3.12859,-1.2744 -4.06052,-0.93136c-2.29601,0.84515 -1.64951,2.75661 -4.48441,2.28757h-0.76156c-0.27614,0 -0.5,-0.22386 -0.5,-0.5c0,-0.13807 0.05597,-0.26307 0.14645,-0.35355l0.56593,-0.56594l0.0797,0.0797c0.12414,-0.13717 0.25576,-0.2664 0.39622,-0.38432c0.53742,-2.40225 1.86803,-4.10495 4.25548,-5.03115c4.00527,-1.93871 8.49546,0.27004 9.48186,4.6187c0.56655,2.49773 -0.4304,5.60379 -1.08199,8.00696c-0.57957,2.12344 -1.48731,4.3562 -3.92777,4.65244c-0.68006,0.08255 -3.41364,-0.74735 -3.85575,-0.48254c-0.39199,0.23479 0.1465,0.906 0.14644,1.36292c-0.00019,1.54274 0.11318,3.07768 0.11318,4.62196c0,0 0,0.45838 -0.43888,0.49737c-0.00918,0.28794 -0.0171,0.57364 -0.02245,0.8563z" fill="#000000" stroke="none" stroke-width="0.5"/><path d="M50.43953,144.34652c0.02695,0.02695 0.04979,0.0539 0.069,0.0807c0.72055,-0.30473 1.41875,-0.56441 2.23895,-0.64036c5.7653,-0.53386 2.12512,9.7608 -3.01678,6.83205c-0.60501,-0.34461 -1.01234,-0.99062 -1.33145,-1.60946c-0.94532,-1.9358 -0.16549,-3.1621 1.21999,-4.54973l0.11318,-0.11319c0,0 0.35356,-0.35356 0.70711,0zM49.88137,145.62099c-0.81551,0.86646 -1.26129,1.63519 -0.5877,2.94124c2.76521,5.75512 9.08475,-5.42924 2.64606,-3.63837c-0.18729,0.05209 -1.44674,0.59849 -1.65679,0.68852c0,0 -0.20621,0.08838 -0.40157,0.00861z" fill="#000000" stroke="none" stroke-width="0.5"/><path d="M53.72305,142.88452c-1.20116,0.03525 -2.39279,-0.06349 -3.63708,-0.06136c-0.5085,0.00087 -2.30263,0.27763 -2.50352,-0.54557c-0.28955,-1.18652 1.31212,-4.57524 1.5674,-5.8548c0.39384,-1.18167 0.72254,-5.24655 1.84437,-5.75227c0.64121,-0.28906 1.80678,-0.035 2.52042,-0.15952c2.73286,-0.47684 2.97025,-4.1667 2.97662,-6.26696c-0.5299,-4.20136 -7.13989,-3.461 -8.90554,-0.36378l-0.21692,0.43384c-0.08017,0.16912 -0.25246,0.28608 -0.45206,0.28608c-0.22492,0 -0.41515,-0.14851 -0.47798,-0.35282l-0.22273,-0.66818l0.02849,-0.0095c-1.18477,-2.05679 -1.92606,-4.24651 -2.17188,-6.6397c-0.06224,-0.60596 -0.60681,-1.38649 -0.17765,-1.81879c1.27159,-1.28087 5.61972,-1.35451 7.33209,-1.51411c6.29763,-0.57957 12.09389,2.27004 14.34521,8.4233c1.19925,5.96094 -0.34055,14.60015 -7.83894,14.5751c-0.20699,-0.04431 -0.66944,-0.00629 -0.81264,-0.25312c0.07627,0.41693 0.22998,1.31731 0.23006,1.45334c0.00061,1.14105 0.50777,3.84485 -0.19206,4.79699c-0.62606,0.85178 -2.11368,0.45729 -3.23566,0.29182zM56.2051,141.64418c0.17203,-1.68469 -0.90898,-6.00854 0.44398,-6.48563c0.39693,-0.13996 0.76826,0.36913 1.18282,0.44181c6.70548,-0.0259 7.81765,-8.06058 6.77761,-13.30973c-2.08053,-5.70852 -7.49083,-8.23997 -13.29007,-7.69782c-2.22794,0.20552 -4.44251,0.74367 -6.58749,1.06569c-0.72677,0.1091 0.34521,1.43341 0.4184,2.16466c0.11499,1.14879 1.66694,3.71918 1.86444,5.11177c2.59112,-3.49092 9.84963,-3.79402 10.4746,1.24777c-0.00071,2.51158 -0.30783,5.90936 -3.02419,7.05741c-1.00496,0.42474 -2.00831,0.13692 -3.02376,0.32483c-0.22785,0.04217 -1.13574,4.54635 -1.32485,5.1136c-0.35965,1.83132 -0.73768,3.58439 -1.60181,5.23745c-0.10379,0.19855 0.44166,-0.09079 0.66569,-0.09283c0.50688,-0.00462 1.0162,-0.04695 1.52069,0.00243c0.58819,0.05758 1.1767,0.10068 1.76433,0.11552c0.1467,-0.11885 0.33931,-0.11795 0.33931,-0.11795l0.31805,0.00155c0.10486,0.00186 0.45531,0.03751 0.88145,0.08124c0.61796,-0.04769 1.2338,-0.14035 1.84607,-0.29423c0,0 0.18475,-0.04619 0.35471,0.03247z" fill="#000000" stroke="none" stroke-width="0.5"/><path d="M26.85454,228.32528c0,-15.31149 12.41241,-27.7239 27.7239,-27.7239c15.31149,0 27.7239,12.41241 27.7239,27.7239c0,15.31149 -12.41241,27.7239 -27.7239,27.7239c-15.31149,0 -27.7239,-12.41241 -27.7239,-27.7239z" fill="#d9ff00" stroke="#000000" stroke-width="1"/><text transform="translate(86.54054,217.08515) scale(0.40788,0.40788)" font-size="40" xml:space="preserve" fill="#000000" fill-rule="nonzero" stroke="none" stroke-width="1" stroke-linecap="butt" stroke-linejoin="miter" stroke-miterlimit="10" stroke-dasharray="" stroke-dashoffset="0" font-family="&quot;RifficFree-Bold&quot;, Sans Serif" font-weight="normal" text-anchor="start" style="mix-blend-mode: normal"><tspan x="0" dy="0">Rapid Popularity</tspan></text><text transform="translate(89.03564,228.91932) scale(0.21352,0.21352)" font-size="40" xml:space="preserve" fill="#000000" fill-rule="nonzero" stroke="none" stroke-width="1" stroke-linecap="butt" stroke-linejoin="miter" stroke-miterlimit="10" stroke-dasharray="" stroke-dashoffset="0" font-family="&quot;SagoMiniRounded-Bold_v2&quot;, Sans Serif" font-weight="normal" text-anchor="start" style="mix-blend-mode: normal"><tspan x="0" dy="0">Xin might not have all the followers but receives the highest known person as the highest rank.</tspan></text><path d="M61.51832,249.31809c-4.00601,0.39072 -7.97516,1.0747 -12.0059,1.07845c-2.40631,-0.26585 -4.67207,-0.68357 -7.03565,-1.08006c-0.5471,-0.09178 -1.30221,0.22907 -1.76589,-0.27833c-0.49495,-0.54163 -0.53475,-2.66566 -0.79252,-3.42559c-0.73786,-2.17522 -1.73334,-4.2586 -2.53803,-6.40983c-0.87048,-1.73789 -2.03673,-3.43886 -2.57721,-5.30551c-1.08508,-3.74754 -1.3103,-8.21338 -3.2132,-11.65814c-0.14886,-0.57951 -0.26273,-1.16397 -0.40399,-1.74507l-0.24594,-0.49187c-0.03658,-0.06948 -0.05729,-0.14863 -0.05729,-0.23261c0,-0.27614 0.22386,-0.5 0.5,-0.5c0.11961,0 0.22941,0.042 0.31546,0.11205l0.66938,0.53551l-0.11858,0.14823c1.64389,1.23195 2.49394,3.17408 3.83456,4.78003c1.76002,2.10834 5.052,3.87087 7.27958,5.53817c0.63969,0.38709 1.51264,1.73313 2.11434,1.93318c0.0816,0.02713 0.53866,-3.48056 0.57168,-3.77881c0.38067,-3.4375 0.14106,-6.76829 0.17548,-10.2079c0.88908,-2.29573 1.6778,-4.68184 2.10348,-7.11222l0.02208,-0.03011l-0.01231,-0.00401l0.18519,-0.56931c0.06175,-0.20607 0.25285,-0.35624 0.47903,-0.35624c0.24578,0 0.45013,0.17733 0.4921,0.41102l0.13269,0.66341l-0.0431,0.00862c1.68682,3.63658 2.13121,7.92722 3.65214,11.61447c0.6653,1.61291 1.60503,2.90956 2.03469,4.62808c0.4244,1.71365 2.42011,-1.51847 3.4888,-2.41967c3.16992,-2.67311 6.58797,-5.03583 9.68784,-7.79094c1.52547,-1.26993 3.25463,-2.23062 4.38228,-3.84368l0.03894,-0.02128l-0.01011,-0.01011l0.67249,-0.6725c0.09048,-0.09048 0.21548,-0.14645 0.35355,-0.14645c0.27614,0 0.5,0.22386 0.5,0.5c0,0.09704 -0.02764,0.18761 -0.07548,0.2643l-0.38798,0.64664c-1.12942,5.38445 -2.34202,10.62606 -3.02652,16.14557c-0.70558,6.28254 -0.77549,12.64296 -3.12624,18.5491c-1.94946,0.58164 -4.17138,0.53721 -6.24984,0.53341zM66.61412,248.12084c0.15923,-0.02099 0.31748,-0.04421 0.47459,-0.06988c0.25881,-1.13783 0.89528,-2.15682 1.20283,-3.26347c1.25846,-4.52836 1.08646,-9.98431 1.60981,-14.66959c0.53562,-4.25367 0.78643,-8.88924 1.97574,-13.03463c0.10183,-0.35495 0.20136,-0.87298 0.33509,-1.40275c-0.97385,0.86578 -2.08333,1.59184 -3.11257,2.45047c-2.8558,2.53948 -5.95441,4.77758 -8.94149,7.16156c-1.33356,1.06431 -2.69797,3.16376 -4.18475,3.92351c-1.28468,0.65648 -1.44048,-0.46772 -1.67292,-1.38982c-1.04203,-4.16844 -3.28039,-8.21067 -4.49463,-12.42622c-0.13994,-0.48581 -0.56774,-1.4595 -0.82814,-2.35584c-0.43122,1.8687 -1.04384,3.72964 -1.77112,5.47491c0.04762,3.76041 0.18815,7.37451 -0.26362,11.12911c-0.1071,0.89007 -0.04259,3.56808 -1.4102,3.66697c-0.71841,0.05194 -2.08297,-1.7186 -2.72762,-2.10179c-3.14852,-2.36537 -6.67347,-4.56782 -8.92793,-7.7758c-0.32921,-0.46846 -0.89456,-1.02567 -1.36704,-1.60771c0.00343,0.01436 0.00688,0.02872 0.01033,0.04309c1.91396,3.46479 2.16414,7.97197 3.24275,11.74468c0.51931,1.81643 1.68875,3.49257 2.53375,5.18541c0.81925,2.18049 1.82648,4.29535 2.57293,6.50207c0.23714,0.70106 0.18359,2.51971 0.55247,3.03036c0.42142,0.58338 1.43413,0.13782 2.14319,0.26095c2.00108,0.34749 3.96397,0.57378 6.00214,0.80164c3.57037,0.00384 7.09499,-0.53993 10.64009,-0.93733c0.1467,-0.13768 0.35709,-0.13941 0.35709,-0.13941l0.1721,-0.00141c0.27363,-0.00223 0.55013,-0.00272 0.82869,-0.00269c1.58783,-0.15593 3.18144,-0.26492 4.78677,-0.26492c0,0 0.13291,0 0.26168,0.06852z" fill="#000000" stroke="none" stroke-width="0.5"/><path d="M26.70743,315.9266v-52.30882h56.52327v52.30882z" fill="#00b7ff" stroke="#000000" stroke-width="1"/><text transform="translate(86.54054,276.21741) scale(0.40788,0.40788)" font-size="40" xml:space="preserve" fill="#000000" fill-rule="nonzero" stroke="none" stroke-width="1" stroke-linecap="butt" stroke-linejoin="miter" stroke-miterlimit="10" stroke-dasharray="" stroke-dashoffset="0" font-family="&quot;RifficFree-Bold&quot;, Sans Serif" font-weight="normal" text-anchor="start" style="mix-blend-mode: normal"><tspan x="0" dy="0">Leader &amp; Manager</tspan></text><text transform="translate(88.20231,288.05158) scale(0.21352,0.21352)" font-size="40" xml:space="preserve" fill="#000000" fill-rule="nonzero" stroke="none" stroke-width="1" stroke-linecap="butt" stroke-linejoin="miter" stroke-miterlimit="10" stroke-dasharray="" stroke-dashoffset="0" font-family="&quot;SagoMiniRounded-Bold_v2&quot;, Sans Serif" font-weight="normal" text-anchor="start" style="mix-blend-mode: normal"><tspan x="0" dy="0">Xin is a extreme Club manager. And leader of all the houses that he makes. However the houses that he makes is a real house that he gets from.</tspan></text><path d="M44.09989,310.54539c0,0.10448 -0.02183,0.18713 -0.05637,0.25251c3.18442,0.39886 6.50731,0.21238 9.59774,0.83322c5.45443,0.49327 10.49547,-0.93232 15.2992,-3.37137c2.91767,-0.97597 2.21956,-2.837 2.42818,-5.77008c0.25445,-3.57755 0.6749,-7.7047 1.54207,-11.18362c1.1079,-2.78711 0.2063,-6.36298 1.31648,-9.04809c-0.91034,-0.13068 -1.79165,-0.40191 -2.52951,-0.84424c-1.23794,1.30812 -1.54673,2.80512 -2.51319,4.36134c-1.61983,2.60828 -3.15243,5.35853 -5.34668,7.54811c-0.56478,0.73246 -2.6255,4.09116 -3.53567,4.31956c-1.51254,0.37957 -1.34778,-1.61212 -1.49568,-2.47559c-0.46859,-2.73566 -0.92789,-5.39364 -1.46944,-8.09862c-0.28285,-1.13632 -0.56512,-2.24361 -0.86102,-3.35532c-1.61533,0.43653 -3.1056,-0.02588 -4.3459,-0.97407c-0.89763,4.75633 -1.15245,9.66924 -2.08247,14.4089l-0.11976,0.59882c-0.04197,0.23369 -0.24633,0.41102 -0.49211,0.41102c-0.18532,0 -0.3471,-0.10082 -0.43346,-0.25061l-0.36003,-0.60004l0.14405,-0.08643c-0.36256,-0.57808 -0.62463,-1.16336 -1.14852,-1.73775c-1.22208,-1.33987 -3.00902,-2.1395 -4.16487,-3.57207c-1.62694,-2.01643 -1.52312,-4.81654 -3.48689,-6.7647c-0.64488,-0.64488 -1.08024,-1.20965 -1.53625,-1.95677c-1.22581,1.03713 -2.70367,1.0757 -4.04984,0.50317c1.5269,4.47507 1.19162,10.68113 1.1876,15.26135c0.36767,2.17573 0.52808,4.48489 0.72875,6.6789c0.07203,0.78755 -0.19342,1.86678 0.18643,2.60969c0.23038,0.45056 1.18291,0.79931 2.21754,1.07033c0.13431,0.00293 0.24,0.05578 0.24,0.05578c0.0071,0.00357 0.0142,0.00714 0.02131,0.0107c0.9834,0.2432 1.99208,0.41921 2.49095,0.54816c0.68145,-0.00237 1.32259,0.11953 2.00578,0.11783h0.12158c0,0 0.5,0 0.5,0.5zM35.62105,308.71445c-0.49364,-0.85114 -0.21726,-2.06764 -0.29989,-2.98301c-0.19872,-2.20144 -0.37047,-4.50855 -0.73021,-6.69496c-0.00398,-4.65252 0.47804,-11.48909 -1.42024,-15.77133c0,0 -0.06423,-0.14988 -0.03374,-0.31514c-2.39487,-1.82711 -3.79839,-5.52372 -1.30282,-8.15377c0.2702,-0.22272 0.5404,-0.44544 0.8106,-0.66816l0.14121,-0.05787c-0.08017,-0.07391 -0.14201,-0.18791 -0.14201,-0.36373c0,-0.5 0.5,-0.5 0.5,-0.5c1.58888,0 3.91194,-0.40788 5.35273,0.42964c3.05634,1.77662 2.44807,6.2271 0.81134,8.59357c-0.04976,0.07183 -0.10027,0.14133 -0.15147,0.20853c0.48337,0.79459 0.86853,1.33286 1.53658,2.00091c1.8093,1.82212 2.29939,4.04367 3.24148,6.32739c0.57108,1.38435 2.62168,2.57469 3.74347,3.45888c0.44565,0.35126 1.21208,1.05697 1.57276,1.7784c0.84909,-4.6194 1.0828,-9.39708 2.00465,-14.00632c0,0 0.00279,-0.01397 0.0098,-0.03673c-1.66442,-1.74106 -2.69832,-4.34629 -2.6809,-6.42386c0.79462,-1.64743 1.42462,-2.52672 2.57558,-3.3189c-0.11541,-0.04863 -0.22761,-0.15074 -0.26921,-0.35875c-0.09806,-0.49029 0.39223,-0.58835 0.39223,-0.58835c5.0927,-1.01731 10.53548,1.32712 8.98684,7.48267c-0.49418,1.51582 -1.37095,3.62539 -2.86978,4.56234c0.31193,1.17271 0.6135,2.34225 0.91257,3.5331c0.64168,3.20512 1.59282,6.556 1.69776,9.85588c0.01772,0.55714 0.6165,-0.92887 0.92534,-1.39292c0.6435,-0.9669 1.44602,-1.73475 2.15101,-2.64906c3.35328,-3.36 4.55989,-8.59546 7.79921,-11.86648c-0.70336,-0.68044 -1.15015,-1.60927 -1.15992,-2.83464c0,-1.68285 -0.2434,-3.84545 1.6333,-4.71177c2.91659,-1.34636 8.37594,-0.24187 7.48834,3.89296c-0.56343,1.4127 -1.29858,3.18763 -2.30097,4.32351c-0.00412,0.00467 -0.00869,0.00951 -0.01371,0.01454c0.08425,0.07362 0.15048,0.18937 0.15048,0.37134c0,0.5 -0.5,0.5 -0.5,0.5h-0.6079c-0.09841,0 -0.19714,-0.00146 -0.29604,-0.00443c-0.01178,0.01341 -0.02035,0.0256 -0.02527,0.03638c-1.24479,2.72478 -0.22155,6.31351 -1.39197,9.22913c-0.9357,3.72999 -1.30182,8.10397 -1.56698,11.94358c-0.08354,1.20976 0.19944,3.94434 -0.78376,4.82518c-0.43519,0.38988 -1.62178,0.61322 -2.18839,0.8014c-5.01922,2.47514 -10.14698,3.95583 -15.82542,3.43714c-4.92798,-0.98139 -10.31951,-0.03908 -14.98467,-2.35764c0,0 -0.00618,-0.00309 -0.01672,-0.00927c-1.25652,-0.35062 -2.46578,-0.83332 -2.87529,-1.5394zM38.01837,281.98515c0.11978,-0.11978 0.23956,-0.1584 0.34559,-0.1571c0.04123,-0.05388 0.08187,-0.10972 0.12188,-0.16756c1.27634,-1.84172 2.08894,-5.73236 -0.48185,-7.15416c-1.04342,-0.57708 -2.68342,-0.41234 -4.01454,-0.33192c0.1386,0.43075 -0.29506,0.60421 -0.29506,0.60421l-0.53755,0.20839c-0.21612,0.18255 -0.43224,0.3651 -0.64836,0.54765c-3.48945,3.16339 2.12559,9.63117 5.35462,6.8307c-0.01067,-0.11419 0.02226,-0.2472 0.15527,-0.38021zM56.01229,281.37725c0.35355,-0.35355 0.70711,0 0.70711,0l0.24996,0.34195c0.05318,0.19441 0.10598,0.38844 0.15843,0.58219c1.12746,-0.86481 1.80504,-2.6691 2.18139,-3.8256c1.15378,-4.51966 -2.06502,-6.43653 -5.6788,-6.43985c-0.07673,0.05495 -0.14594,0.07802 -0.14594,0.07802l-0.29925,0.09445c-2.02622,1.0118 -2.59802,1.58831 -3.62756,3.55824c0.03767,3.11674 3.01053,7.91675 6.65776,6.97971c-0.069,-0.25275 -0.13892,-0.50622 -0.2099,-0.7608l0.0068,0.09879c0,0 -0.35355,-0.35355 0,-0.70711zM72.31226,280.19491c0.15742,0.18891 0.14452,0.36233 0.09075,0.48981c0.77036,0.40301 1.71261,0.59671 2.61868,0.65114c0.31353,-0.1989 0.65964,-0.40169 0.79856,-0.55657c0.90541,-1.00941 1.56689,-2.67576 2.07593,-3.94397c1.08329,-3.28516 -4.2859,-3.44046 -6.12868,-2.67239c-1.41512,0.58983 -1.04147,2.6551 -1.04147,3.79887c-0.00942,0.94741 0.33552,1.65306 0.8835,2.16789c0.02607,-0.02092 0.39415,-0.30509 0.70273,0.06521z" fill="#000000" stroke="none" stroke-width="0.5"/></g></g></svg>