<svg version="1.1" xmlns="http://www.w3.org/2000/svg" xmlns:xlink="http://www.w3.org/1999/xlink" width="764.31094" height="363.38192" viewBox="0,0,764.31094,363.38192"><defs><linearGradient x1="385.54168" y1="51.25" x2="752.60517" y2="51.25" gradientUnits="userSpaceOnUse" id="color-1"><stop offset="0" stop-color="#fff400"/><stop offset="1" stop-color="#00e9ff"/></linearGradient></defs><g transform="translate(3.45834,1.23524)"><g data-paper-data="{&quot;isPaintingLayer&quot;:true}" fill-rule="nonzero" stroke-linejoin="miter" stroke-miterlimit="10" stroke-dasharray="" stroke-dashoffset="0" style="mix-blend-mode: normal"><path d="M-3.45834,362.14668v-363.38192h764.31094v363.38192z" fill="#dadada" stroke="none" stroke-width="0" stroke-linecap="butt"/><path d="M29.51185,69.23628c0,-24.78032 20.08841,-44.86874 44.86874,-44.86874c24.78032,0 44.86874,20.08842 44.86874,44.86874c0,24.78032 -20.08841,44.86873 -44.86873,44.86873c-24.78032,0 -44.86873,-20.08841 -44.86873,-44.86873z" fill="#2cff00" stroke="#000000" stroke-width="1.5" stroke-linecap="butt"/><path d="M38.10372,69.23628c0,-20.03515 16.2417,-36.27685 36.27685,-36.27685c20.03515,0 36.27685,16.2417 36.27685,36.27685c0,20.03515 -16.2417,36.27685 -36.27685,36.27685c-20.03515,0 -36.27685,-16.2417 -36.27685,-36.27685z" fill="#1b9d00" stroke="#000000" stroke-width="1.5" stroke-linecap="butt"/><path d="M49.08226,69.23628c0,-13.97188 11.32645,-25.29833 25.29833,-25.29833c13.97188,0 25.29833,11.32645 25.29833,25.29833c0,13.97188 -11.32645,25.29833 -25.29833,25.29833c-13.97188,0 -25.29833,-11.32645 -25.29833,-25.29833z" fill="#1f009e" stroke="#000000" stroke-width="1.5" stroke-linecap="butt"/><path d="M58.15147,69.23628c0,-8.96309 7.26603,-16.22912 16.22912,-16.22912c8.96309,0 16.22912,7.26603 16.22912,16.22912c0,8.96309 -7.26602,16.22912 -16.22912,16.22912c-8.96309,0 -16.22912,-7.26602 -16.22912,-16.22912z" fill="#9e007c" stroke="#000000" stroke-width="1.5" stroke-linecap="butt"/><text transform="translate(122.69471,49.39299) scale(0.5887,0.5887)" font-size="40" xml:space="preserve" fill="#000000" fill-rule="nonzero" stroke="none" stroke-width="1" stroke-linecap="butt" stroke-linejoin="miter" stroke-miterlimit="10" stroke-dasharray="" stroke-dashoffset="0" font-family="&quot;RifficFree-Bold&quot;, Sans Serif" font-weight="normal" text-anchor="start" style="mix-blend-mode: normal"><tspan x="0" dy="0">Xin Xin McKenzie</tspan></text><path d="M178.26975,80.32282c0,-9.76995 7.92011,-17.69005 17.69006,-17.69005c9.76995,0 17.69006,7.92011 17.69006,17.69006c0,9.76995 -7.92011,17.69006 -17.69006,17.69006c-9.76995,0 -17.69006,-7.92011 -17.69006,-17.69006z" fill="#07ff00" stroke="#000000" stroke-width="1.5" stroke-linecap="butt"/><path d="M128.26975,81.49241c0,-9.76995 7.92011,-17.69005 17.69006,-17.69005c9.76995,0 17.69006,7.92011 17.69006,17.69006c0,9.76995 -7.92011,17.69006 -17.69006,17.69006c-9.76995,0 -17.69006,-7.92011 -17.69006,-17.69006z" fill="#fff400" stroke="#000000" stroke-width="1.5" stroke-linecap="butt"/><path d="M136.37553,71.94015c0,-0.5 0.5,-0.5 0.5,-0.5c1.6237,0 3.39728,0 5.02098,0c5.32075,0 10.64148,0 15.96223,0c0,0 0.5,0 0.5,0.5c0,0.5 -0.5,0.5 -0.5,0.5c-5.32075,0 -10.64148,0 -15.96223,0c-1.6237,0 -3.2474,0 -4.8711,0h-0.14988c0,0 -0.5,0 -0.5,-0.5z" fill="#000000" stroke="none" stroke-width="0.5" stroke-linecap="butt"/><path d="M130.72633,89.56605c0,-0.5 0.5,-0.5 0.5,-0.5c3.02958,0 6.10283,0 9.1324,0c5.86331,0 11.72662,0 17.58993,0c0,0 0.5,0 0.5,0.5c0,0.5 -0.5,0.5 -0.5,0.5c-5.86331,0 -11.72662,0 -17.58993,0c-3.02958,0 -6.05915,0 -9.08872,0h-0.04368c0,0 -0.5,0 -0.5,-0.5z" fill="#000000" stroke="none" stroke-width="0.5" stroke-linecap="butt"/><path d="M131.49072,87.28788c0,-0.5 0.5,-0.5 0.5,-0.5c3.11391,0 6.60252,0 9.71643,0c0.71735,0 1.43468,0 2.15203,0c-0.14272,-0.78025 -0.00335,-2.17068 -0.00335,-2.55756c0,-2.60267 -0.13804,-5.21252 -0.17247,-7.80487c-0.11948,-0.40563 -0.20847,-0.80632 -0.26169,-1.21982l-0.07358,0.02759l-0.08067,-0.21513c-0.78628,0 -1.57256,0 -2.35883,0c-1.6237,0 -3.2474,0 -4.8711,0h-0.14988c0,0 -0.5,0 -0.5,-0.5c0,-0.5 0.5,-0.5 0.5,-0.5c1.6237,0 3.39728,0 5.02098,0c5.42067,0 10.84133,0 16.26199,0c0,0 0.5,0 0.5,0.5c0,0.5 -0.5,0.5 -0.5,0.5c-4.06891,0 -8.13784,0 -12.20675,0c2.3079,1.66977 4.53116,3.44936 6.70316,5.29522l0.00024,-0.00044l0.77033,0.41479c0.1615,0.0829 0.272,0.2511 0.272,0.44511c0,0.21847 -0.14011,0.4042 -0.33537,0.47226l-0.45674,0.17128c-2.3849,1.08624 -4.72527,3.12677 -6.59652,4.97157c4.44949,0 8.89897,0 13.34846,0c0,0 0.5,0 0.5,0.5c0,0.5 -0.5,0.5 -0.5,0.5c-5.65407,0 -11.30815,0 -16.96223,0c-3.11391,0 -6.22782,0 -9.34173,0h-0.3747c0,0 -0.5,0 -0.5,-0.5zM144.70523,77.57759c0.0511,1.81385 0.1506,3.63749 0.1506,5.45369c0,0.54045 -0.15479,2.52442 -0.2341,3.04683c1.8186,-1.83221 4.15776,-3.82722 6.50989,-4.99402c-1.10072,-0.28954 -1.95331,-1.56529 -2.77235,-2.27721c-1.14323,-0.99371 -2.40909,-1.8794 -3.65948,-2.75949c0.05829,0.30269 0.10585,0.60573 0.18417,0.81312l0.03184,0.29547c0,0 0,0.2809 -0.21055,0.42161z" fill="#000000" stroke="none" stroke-width="0.5" stroke-linecap="butt"/><path d="M144.88557,77.11613l-0.03064,-0.29635c-0.07831,-0.20739 -0.12363,-0.51194 -0.18192,-0.81464c1.25039,0.8801 2.55346,1.75914 3.69669,2.75284c0.81904,0.71192 1.71117,2.0369 2.8119,2.32644c-2.35213,1.1668 -4.76851,3.20341 -6.58711,5.03562c0.07932,-0.52241 0.21943,-2.52102 0.21943,-3.06147c0,-1.8162 -0.09125,-3.70412 -0.14236,-5.51797c0.21055,-0.14071 0.214,-0.42448 0.214,-0.42448z" data-paper-data="{&quot;noHover&quot;:false,&quot;origItem&quot;:[&quot;Path&quot;,{&quot;applyMatrix&quot;:true,&quot;segments&quot;:[[[94.79991,329.15518],[0.42109,-0.28142],[0.10221,3.62771]],[[95.1011,340.06256],[0,-3.63241],[0,1.0809]],[[94.63289,346.15622],[0.15863,-1.04483],[3.63719,-3.66442]],[[107.65267,336.16819],[-4.70426,2.33359],[-2.20144,-0.57907]],[[102.10796,331.61377],[1.63808,1.42383],[-2.28647,-1.98741]],[[94.789,326.09478],[2.50079,1.76019],[0.11658,0.60538]],[[95.15733,327.72102],[-0.15662,-0.41478],[0,0]],[95.221,328.31196]],&quot;closed&quot;:true}]}" fill="#8c8600" stroke="none" stroke-width="0.5" stroke-linecap="butt"/><path d="M199.81208,75.79096c-0.03552,0.05345 -0.14293,0.17948 -0.32225,0.08983c-0.10457,-0.05229 -0.13579,-0.12902 -0.13939,-0.19591c-1.73929,0.07141 -3.54577,0.29281 -5.28967,0.27984c-1.03699,0.29628 -2.11672,-0.00504 -3.15304,0.22552c-1.85234,0.4121 0.58736,1.94456 1.17063,2.11165c0.49085,0.26034 1.96672,-0.24012 2.24442,0.05622c0.39678,0.42342 0.31358,4.04684 -0.06401,4.3743c-0.40708,0.35303 -1.06568,0.48488 -1.54076,0.71849c-2.77794,0.30466 -3.63052,4.85857 -3.66493,7.03519c1.51304,2.81358 2.78802,4.37406 5.91388,5.48812c1.89306,-0.02552 6.08441,0.44673 7.5384,-1.08962c2.25046,-1.36357 2.91831,-4.88367 2.60492,-7.37681c-0.50987,-2.59267 -2.08048,-3.80917 -4.53847,-4.29131c-0.58371,-0.11681 -2.47451,0.1514 -2.69993,-0.44923c-0.40314,-1.07418 0.17694,-2.39317 -0.3147,-3.45981l-0.20152,-0.15114c-0.06204,-0.04549 -0.10233,-0.11891 -0.10233,-0.20174c0,-0.13807 0.11193,-0.25 0.25,-0.25h0.29976v0.0566c0.89953,-0.11619 1.9088,0.04691 2.70136,-0.38757c1.2091,-0.66282 1.11952,-2.26073 -0.29236,-2.5312c-0.13156,-0.0269 -0.26563,-0.04427 -0.4,-0.05141zM200.95151,75.56213c1.80629,0.87031 0.58115,3.35476 -1.44514,3.52129c-0.28641,0.02354 -1.01668,0.22567 -1.44893,0.1551c0.42467,1.04729 0.20772,2.18499 0.27637,3.33738c0.0464,0.77891 1.57089,-0.00266 2.33604,0.15028c2.66891,0.54263 4.36546,1.89708 4.93395,4.7015c0.3278,2.63579 -0.37972,6.42222 -2.79076,7.85101c-1.67244,1.6025 -5.82018,1.21006 -7.92924,1.18855c-3.28256,-1.11646 -4.79518,-2.87151 -6.31633,-5.862c-0.02802,-2.39867 0.9715,-7.29208 4.00892,-7.63387c1.93861,-0.98723 1.3148,-2.17853 1.39283,-4.25972c0.00881,-0.23499 -0.42339,0.24913 -0.65852,0.25305c-0.43602,0.00726 -1.02113,-0.00961 -1.41361,-0.19683c-1.13801,-0.32427 -3.48326,-2.42462 -1.1422,-3.0537c1.04899,-0.28188 2.17928,0.05745 3.23653,-0.24462c2.25659,-0.01382 4.54071,-0.26676 6.74931,-0.30218c0,0 0.25,0 0.25,0.25c0,0.06264 -0.01569,0.10958 -0.03921,0.14476z" fill="#000000" stroke="none" stroke-width="0.5" stroke-linecap="butt"/><path d="M200.22684,75.7946c1.41187,0.27048 1.46607,1.9617 0.25697,2.62452c-0.79256,0.43448 -1.78601,0.27561 -2.68554,0.3918l0.00003,-0.0566l-0.29768,0.00016c-0.13807,0 -0.24829,0.11199 -0.24829,0.25006c0,0.08283 0.04304,0.0563 0.10509,0.10179l0.20309,0.15122c0.49164,1.06664 -0.07992,2.38694 0.32322,3.46113c0.22542,0.60064 2.14409,0.35066 2.72781,0.46747c2.45798,0.48214 4.03783,1.73911 4.54769,4.33178c0.31339,2.49314 -0.37781,6.04605 -2.62827,7.40962c-1.45399,1.53635 -5.68134,1.07007 -7.5744,1.09558c-3.12586,-1.11406 -4.4338,-2.69854 -5.94684,-5.51212c0.03442,-2.17662 0.88648,-6.77939 3.66442,-7.08406c0.47509,-0.23361 1.14379,-0.37837 1.55087,-0.7314c0.37759,-0.32746 0.51204,-3.86717 0.11526,-4.29058c-0.27769,-0.29633 -1.74329,0.19886 -2.23413,-0.06148c-0.58326,-0.16709 -3.07775,-1.7832 -1.22541,-2.1953c1.03632,-0.23056 2.12832,0.06506 3.1653,-0.23122c1.7439,0.01297 3.57587,-0.2095 5.31516,-0.2809c0.0036,0.06689 0.03566,0.14381 0.14024,0.1961c0.17932,0.08965 0.28809,-0.03603 0.32361,-0.08948c0.13437,0.00714 0.27027,0.02504 0.40183,0.05194z" data-paper-data="{&quot;noHover&quot;:false,&quot;origItem&quot;:[&quot;Path&quot;,{&quot;applyMatrix&quot;:true,&quot;segments&quot;:[[[205.0136,325.58191],[0.26873,0.01428],[-0.07104,0.1069]],[[204.3691,325.76157],[0.35863,0.17931],[-0.20915,-0.10457]],[[204.09032,325.36975],[0.0072,0.13377],[-3.47859,0.14282]],[[193.51098,325.92943],[3.4878,0.02593],[-2.07397,0.59256]],[[187.2049,326.38047],[2.07264,-0.46111],[-3.70468,0.8242]],[[189.54615,330.60376],[-1.16653,-0.33418],[0.9817,0.52068]],[[194.03499,330.7162],[-0.55539,-0.59267],[0.79356,0.84683]],[[193.90696,339.46481],[0.75519,-0.65492],[-0.81415,0.70606]],[[190.82544,340.9018],[0.95017,-0.46722],[-5.55588,0.60933]],[[183.49557,354.97218],[0.06884,-4.35324],[3.02608,5.62717]],[[195.32332,365.94841],[-6.25171,-2.22812],[3.78612,-0.05103]],[[210.40011,363.76917],[-2.90798,3.07271],[4.50091,-2.72714]],[[215.60995,349.01555],[0.62678,4.98628],[-1.01973,-5.18534]],[[206.53302,340.43294],[4.91597,0.96428],[-1.16743,-0.23362]],[[201.13316,339.53447],[0.45084,1.20127],[-0.80628,-2.14836]],[[200.50376,332.61485],[0.98328,2.13328],[0,0]],[[200.10072,332.31257],[0,0],[-0.12409,-0.09098]],[[199.89606,331.90908],[0,0.16566],[0,-0.27614]],[[200.39606,331.40908],[-0.27614,0],[0,0]],[200.99558,331.40908],[[200.99558,331.52229],[0,0],[1.79906,-0.23237]],[[206.3983,330.74714],[-1.58513,0.86896],[2.41819,-1.32564]],[[205.81359,325.68474],[2.82375,0.54095],[-0.26312,-0.05381]]],&quot;closed&quot;:true}]}" fill="#009118" stroke="none" stroke-width="0.5" stroke-linecap="butt"/><path d="M192.52964,67.74452c1.01015,0.15348 2.19178,1.06009 2.5562,1.79949c0.31587,0.64089 -0.88268,1.61919 -1.24268,2.0933c-2.40915,1.77163 -3.67145,-1.90169 -2.51841,-3.47975c0.02201,-0.0667 0.06653,-0.11121 0.06653,-0.11121c0.03715,-0.03715 0.07612,-0.0708 0.11674,-0.10111c0.10612,-0.10387 0.2267,-0.1934 0.36231,-0.26519l0.4771,-0.00669c0,0 0.10817,0 0.18221,0.07116zM191.66739,68.45273c-0.68257,1.0703 -0.12118,4.34275 1.82222,2.83103c0.13962,-0.18877 1.24876,-1.40707 1.15539,-1.50382c-0.49143,-0.50921 -1.47738,-1.54724 -2.27369,-1.60832c-0.01475,0.00174 -0.02388,0.00174 -0.02388,0.00174l-0.1141,-0.00211c-0.17782,0.01352 -0.34345,0.08358 -0.4885,0.22864c0,0 -0.02992,0.02992 -0.07744,0.05283z" fill="#000000" stroke="none" stroke-width="0.5" stroke-linecap="butt"/><path d="M191.71275,68.36156c0.14505,-0.14506 0.32229,-0.2224 0.50011,-0.23591l0.11664,0.00105c0,0 0.0097,-0.00021 0.02445,-0.00196c0.79631,0.06108 1.84943,1.1416 2.34086,1.65081c0.09337,0.09674 -1.04926,1.36671 -1.18888,1.55548c-1.9434,1.51172 -2.55495,-1.84479 -1.87238,-2.9151c0.04753,-0.02291 0.0792,-0.05437 0.0792,-0.05437z" data-paper-data="{&quot;noHover&quot;:false,&quot;origItem&quot;:[&quot;Path&quot;,{&quot;applyMatrix&quot;:true,&quot;segments&quot;:[[[188.72422,310.90546],[0.09506,-0.04582],[-1.36515,2.14061]],[[192.36865,316.56752],[-3.8868,3.02343],[0.27924,-0.37754]],[[194.67944,313.55988],[0.18674,0.19349],[-0.98286,-1.01842]],[[190.13206,310.34325],[1.59262,0.12216],[-0.02951,0.00348]],[190.08431,310.34673],[[189.85611,310.34252],[0,0],[-0.35565,0.02703]],[[188.87911,310.7998],[0.29011,-0.29011],[0,0]]],&quot;closed&quot;:true}]}" fill="#009118" stroke="none" stroke-width="0.5" stroke-linecap="butt"/><path d="M197.18825,71.20519c0.58122,0.07101 0.99633,0.73257 0.92404,1.53357c-0.12526,1.38795 -3.01171,3.41367 -3.01725,0.94001c0,-1.3516 0.47933,-1.863 1.637,-2.44183l0.2126,-0.07352c0,0 0.1427,-0.04756 0.24361,0.04178zM196.36998,72.01007c-0.55969,0.3665 -0.77494,0.76729 -0.77494,1.6687c-0.00436,1.7346 1.99314,-0.23054 2.01873,-0.97846c0.01646,-0.48098 -0.19794,-1.08084 -0.58038,-1.04068l-0.07774,0.02452c-0.0672,0.0336 -0.13151,0.06642 -0.19301,0.09877c-0.05189,0.04041 -0.10582,0.09142 -0.16168,0.15416c0,0 -0.10332,0.10332 -0.23098,0.07299z" fill="#000000" stroke="none" stroke-width="0.5" stroke-linecap="butt"/><path d="M196.60077,71.88707c0.05586,-0.06274 0.11632,-0.11334 0.16821,-0.15375c0.0615,-0.03235 0.1322,-0.06393 0.1994,-0.09753l0.08008,-0.02384c0.38244,-0.04016 0.62949,0.59245 0.61303,1.07342c-0.02559,0.74792 -2.11261,2.75543 -2.10825,1.02082c0,-0.90141 0.24568,-1.37832 0.80537,-1.74482c0.12765,0.03033 0.24216,-0.07431 0.24216,-0.07431z" data-paper-data="{&quot;noHover&quot;:false,&quot;origItem&quot;:[&quot;Path&quot;,{&quot;applyMatrix&quot;:true,&quot;segments&quot;:[[[198.12939,318.02013],[0.2553,0.06065],[-1.11937,0.733]],[[196.57951,321.35752],[0,-1.80281],[-0.00871,3.46921]],[[200.61697,319.40061],[-0.05119,1.49584],[0.03292,-0.96195]],[[199.45621,317.31925],[0.76488,-0.08032],[0,0]],[[199.30072,317.36828],[0,0],[-0.1344,0.0672]],[[198.9147,317.56583],[0.12301,-0.06471],[-0.10378,0.08082]],[[198.59134,317.87414],[0.11173,-0.12548],[0,0]]],&quot;closed&quot;:true}]}" fill="#009118" stroke="none" stroke-width="0.5" stroke-linecap="butt"/><path d="M195.9038,63.79112c2.33706,-0.88879 3.71827,2.33782 1.40413,3.882c-0.65224,0.30106 -1.3902,1.0016 -2.17699,0.78016c-2.50137,-0.70399 -2.28387,-3.83892 -0.01233,-4.59644c0.28813,-0.09049 0.5182,-0.07623 0.78518,-0.06572zM195.08584,64.40448c-1.60416,0.70101 -1.83815,3.05157 0.17857,3.56696c0.60895,0.15562 1.29592,-0.50231 1.79935,-0.73463c1.61817,-1.0778 0.97013,-3.28557 -0.53796,-3.10796c-0.04768,0.16783 -0.23936,0.16783 -0.23936,0.16783h-0.14202c-0.05921,-0.00009 -0.11615,-0.00274 -0.17155,-0.00627c-0.15696,0.07194 -0.31996,0.16802 -0.48787,0.29107c0,0 -0.20343,0.14532 -0.34874,-0.05812c-0.03029,-0.04242 -0.04543,-0.0823 -0.05042,-0.11888z" fill="#000000" stroke="none" stroke-width="0.5" stroke-linecap="butt"/><path d="M195.11367,64.47874c0.14531,0.20344 0.35741,0.05471 0.35741,0.05471c0.16791,-0.12305 0.34654,-0.22108 0.5035,-0.29302c0.05541,0.00353 0.11717,0.00658 0.17638,0.00668l0.14587,0.00066c0,0 0.19644,0.00126 0.24412,-0.16657c1.5081,-0.17762 2.17589,2.1136 0.55772,3.1914c-0.50342,0.23233 -1.24134,0.90182 -1.85029,0.7462c-2.01672,-0.51539 -1.78907,-2.95802 -0.18491,-3.65903c0.00498,0.03657 0.01991,0.07656 0.05021,0.11898z" data-paper-data="{&quot;noHover&quot;:false,&quot;origItem&quot;:[&quot;Path&quot;,{&quot;applyMatrix&quot;:true,&quot;segments&quot;:[[[195.56112,302.80895],[0.00996,0.07314],[-3.20831,1.40202]],[[195.91826,309.94286],[-4.03344,-1.03077],[1.21791,0.31125]],[[199.51695,308.4736],[-1.00685,0.46465],[3.23633,-2.15559]],[[198.44102,302.25768],[3.0162,-0.35523],[-0.09536,0.33567]],[197.96231,302.59335],[[197.67828,302.59335],[0,0],[-0.11841,-0.00019]],[[197.33517,302.5808],[0.11082,0.00706],[-0.31392,0.14388]],[[196.35943,303.16294],[0.33582,-0.2461],[0,0]],[[195.66195,303.0467],[0.29062,0.40687],[-0.06059,-0.08483]]],&quot;closed&quot;:true}]}" fill="#009118" stroke="none" stroke-width="0.5" stroke-linecap="butt"/><path d="M385.54168,97.5v-92.5h367.06349v92.5z" fill="url(#color-1)" stroke="none" stroke-width="0" stroke-linecap="butt"/><text transform="translate(401.00525,29.37769) scale(0.51597,0.51597)" font-size="40" xml:space="preserve" fill="#000000" fill-rule="nonzero" stroke="none" stroke-width="1" stroke-linecap="butt" stroke-linejoin="miter" stroke-miterlimit="10" stroke-dasharray="" stroke-dashoffset="0" font-family="&quot;SagoMiniRounded-Bold_v2&quot;, Sans Serif" font-weight="normal" text-anchor="start" style="mix-blend-mode: normal"><tspan x="0" dy="0">Creative, Eternal Support, Shy, Golden</tspan><tspan x="0" dy="46.150000000000006px">Brain, House Pathologist, Extreme </tspan><tspan x="0" dy="46.150000000000006px">Designer, Positive Population</tspan></text><text transform="translate(22.40761,135.62132) scale(0.47492,0.47492)" font-size="40" xml:space="preserve" fill="#000000" fill-rule="nonzero" stroke="none" stroke-width="1" stroke-linecap="butt" stroke-linejoin="miter" stroke-miterlimit="10" stroke-dasharray="" stroke-dashoffset="0" font-family="&quot;SagoMiniRounded-Bold_v2&quot;, Sans Serif" font-weight="normal" text-anchor="start" style="mix-blend-mode: normal"><tspan x="0" dy="0">skepticism Skills &amp; Passive Skills</tspan></text><path d="M200.26623,271.57648c0,-12.15638 9.8547,-22.01109 22.0111,-22.01109c12.15638,0 22.01111,9.8547 22.01111,22.01109c0,12.15638 -9.85471,22.01109 -22.01111,22.01109c-12.15638,0 -22.0111,-9.8547 -22.0111,-22.01109z" fill="#830000" stroke="#000000" stroke-width="1" stroke-linecap="butt"/><path d="M217.56091,284.74908l0.85011,-19.80741l-4.50554,0.42504l7.31089,-12.58153l9.69118,12.58153l10.45627,-0.76509l-3.57043,3.14538l-1.10514,16.407z" fill="none" stroke="#ffffff" stroke-width="2" stroke-linecap="round"/><path d="M225.90415,261.189c0.60729,0.60727 0,1.21456 0,1.21456l-0.19337,0.14401c-2.2652,4.02875 -6.37349,6.81289 -9.93617,9.83098c2.42185,2.57049 4.78134,5.20093 6.75142,8.15368c0,0 0.47639,0.71457 -0.2382,1.19097c-0.71459,0.47639 -1.19097,-0.23819 -1.19097,-0.23819c-1.92806,-2.89447 -4.22344,-5.47858 -6.58675,-7.99849c-0.55636,0.5073 -1.09034,1.0257 -1.5914,1.56167c-1.83246,1.96015 -2.92046,4.47892 -5.0354,6.1311c0,0 -0.68071,0.52364 -1.20433,-0.15708c-0.52364,-0.68072 0.15708,-1.20436 0.15708,-1.20436c2.02672,-1.52976 3.0759,-4.07933 4.82579,-5.94037c0.52231,-0.55548 1.08967,-1.09334 1.68656,-1.62115c-3.10409,-3.27118 -6.24068,-6.50144 -8.74356,-10.23868l0.0223,0.04588c0,0 -0.60729,-0.60727 0,-1.21455c0.60729,-0.60727 1.21454,0 1.21454,0l0.19232,0.21591c2.44615,3.68835 5.52908,6.8816 8.59473,10.10446c3.48922,-2.86421 7.55479,-5.58254 9.57413,-9.44426l0.48672,-0.53607c0,0 0.60729,-0.60727 1.21456,0z" fill="#ff0000" stroke="none" stroke-width="0.5" stroke-linecap="butt"/><path d="M199.72552,325.13867c0,-13.41114 10.87188,-24.28302 24.28302,-24.28302c13.41114,0 24.28304,10.87188 24.28304,24.28302c0,13.41114 -10.8719,24.28302 -24.28304,24.28302c-13.41114,0 -24.28302,-10.87188 -24.28302,-24.28302z" fill="#830000" stroke="#000000" stroke-width="1" stroke-linecap="butt"/><path d="M224.97569,312.45586c-0.93793,-0.13399 -0.80396,-1.07194 -0.80396,-1.07194l0.08177,-0.56363c0.49586,-4.00953 4.68416,-4.49411 7.95809,-3.98753c7.09255,1.98196 5.29883,11.93516 5.13233,17.99123c1.50502,0.02611 2.77311,0.19984 3.2414,0.6806c0.99042,1.0168 0.31289,3.23151 0.14762,4.42647c-0.49751,3.5971 -0.60687,7.22061 -0.91127,10.84835c-3.1004,1.86195 -9.8256,0.37176 -13.70762,0.55025c-0.99205,0.04561 -3.21385,0.51136 -3.9415,-0.45757c-0.24666,-0.32843 -0.2088,-1.04329 -0.10322,-1.72885c-1.31044,1.30085 -2.79086,2.56281 -4.25657,2.87733c-1.39086,0.29845 -3.94476,-1.56437 -5.11633,-2.22659c-5.53005,-6.87058 -11.70949,-13.86577 -10.52227,-23.28483l-0.12135,0.01103l-0.08633,-0.94964c-0.00328,-0.03208 -0.00496,-0.06464 -0.00496,-0.09759c0,-0.52326 0.4242,-0.94746 0.94746,-0.94746c0.26163,0 0.49852,0.10606 0.66997,0.27751l0.58687,0.58687c3.41084,1.17028 5.86824,-0.33288 7.23535,-2.94156v-0.55893c0,-0.52326 0.4242,-0.94746 0.94746,-0.94746c0.28337,0 0.53768,0.12438 0.7113,0.32155l0.62317,0.70107c4.75141,2.78262 7.10343,2.71892 11.7571,1.613c1.48884,-0.79286 3.8337,-2.43905 5.0062,-1.44579c1.22196,1.03518 0.9418,6.59187 0.94237,8.06105c-0.00047,1.81119 -0.12357,3.44846 -0.38888,4.96396c1.05638,-0.06937 2.76136,-0.23281 4.45406,-0.30317c0.19286,-4.88817 1.90156,-14.71068 -3.63634,-16.16729c-1.91058,-0.29197 -5.58793,-0.40792 -5.67697,2.30557l-0.09304,0.66004c0,0 -0.13399,0.93795 -1.07192,0.80394zM223.27418,336.11436c0.0266,0 0.05247,0.00076 0.07761,0.0022c3.80829,-4.11604 6.14327,-11.38455 6.14206,-15.92377c0.00087,-2.13181 -0.70635,-4.57628 -0.28128,-6.62286c0.09067,-0.43661 -0.37347,0.08366 -0.87496,0.59097c-0.02397,0.65735 -0.72564,0.83278 -0.72564,0.83278c-0.35619,0.08823 -0.70163,0.17274 -1.03741,0.25309c-0.42213,0.16075 -0.85915,0.31478 -1.1411,0.4174l-0.06045,0.07273c0,0 -0.56984,0.37989 -1.06356,0.00923c-4.06774,0.79134 -6.80466,0.57782 -11.05228,-1.85811c-0.25879,1.11187 -2.04819,2.49156 -2.82179,2.81129c-1.90631,0.78791 -4.29792,1.03036 -6.34375,0.56518c0.91563,2.38435 1.39474,8.60906 1.67134,10.09504c0.87813,4.71764 5.46617,7.35678 8.16076,10.99073c3.16619,1.63655 6.02559,0.82895 8.40433,-1.23758l-0.00135,-0.05086c0,0 0,-0.94746 0.94746,-0.94746zM224.22164,337.06182l-0.0184,1.05985c-0.11064,0.54976 -0.60558,1.04257 -0.52666,1.59778c0.06585,0.46327 0.92266,-0.17483 1.39016,-0.19535c1.28525,-0.05639 2.57122,-0.03799 3.85719,-0.08785c2.67057,-0.10354 6.86687,0.96264 9.2683,0.3759c-0.56541,-3.09562 0.23546,-7.02797 0.66201,-10.12869c0.12654,-0.91982 1.23824,-2.18125 0.49721,-2.74067c-0.92253,-0.69644 -6.93596,0.03968 -8.78148,0.13173c-1.00474,3.62744 -2.99438,6.60825 -6.2961,9.8138c-0.02049,0.01988 -0.04104,0.03996 -0.06175,0.06026c0.00951,0.06917 0.00951,0.11324 0.00951,0.11324z" fill="#ffffff" stroke="none" stroke-width="0.5" stroke-linecap="butt"/><path d="M6.12566,310.47621c0,-14.02837 11.37225,-25.40062 25.40065,-25.40062c14.02837,0 25.40064,11.37225 25.40064,25.40062c0,14.02837 -11.37225,25.40062 -25.40064,25.40062c-14.02837,0 -25.40065,-11.37225 -25.40065,-25.40062z" fill="#830000" stroke="#000000" stroke-width="1" stroke-linecap="butt"/><path d="M17.27851,304.1993c1.60012,0.14567 3.31076,0.25677 4.38128,-0.14014c1.65962,-0.61531 6.25406,-8.03106 7.87531,-7.45069c2.23321,0.79941 1.6001,4.55683 1.47158,6.22764c0.00097,5.86334 -0.33871,11.69074 -0.09171,17.56246c0.04515,1.07362 0.82992,5.62154 -0.44115,6.13541c-1.86392,0.75357 -3.26438,-2.24632 -4.10877,-3.22611c-2.15121,-1.27148 -3.05206,-3.76919 -4.90208,-5.03041c-2.31918,-1.58105 -7.33075,2.06224 -9.34332,0.38164c-2.3961,-2.00087 -0.01124,-10.9877 -0.00286,-13.9281c-0.05663,-3.80063 1.74747,-1.90123 3.97563,-1.12722l0.7407,0.27772c0,0 0.25312,0.09492 0.44539,0.3178zM13.98436,305.81153c-0.39682,3.27556 -1.74367,10.01548 -0.63072,11.29639c0.637,0.73313 1.85124,-0.62824 2.81416,-0.75488c1.53986,-0.20251 3.34216,-0.28109 4.88628,-0.09659c2.55842,0.30568 4.29927,4.14155 6.57938,5.52826c0.17017,0.19005 1.04502,1.05711 1.59873,1.81663c-0.20759,-1.87175 -0.27046,-5.34979 -0.29617,-5.74362c-0.33005,-5.0573 0.08915,-10.04806 0.08999,-15.09768c0.0467,-0.60693 -0.15895,-2.09611 -0.08559,-3.1667c-0.05988,0.11397 -0.12048,0.21157 -0.17621,0.27607c-0.97862,1.13212 -2.09393,2.15221 -3.21887,3.1292c-3.79803,3.29853 -5.9923,2.98478 -10.98014,2.98478c0,0 -0.30818,0 -0.58082,-0.17185z" fill="#ffffff" stroke="none" stroke-width="0.5" stroke-linecap="butt"/><path d="M33.3692,316.14088c-0.63446,-0.76136 0.12687,-1.39584 0.12687,-1.39584l0.40073,-0.30422c2.16773,-2.78667 2.7409,-6.55881 -0.39385,-9.04719c0,0 -0.76705,-0.62756 -0.13947,-1.39461c0.62759,-0.76705 1.39463,-0.13946 1.39463,-0.13946c3.88257,3.24979 3.57245,8.10868 0.70328,11.79817l-0.6964,0.61003c0,0 -0.76136,0.63448 -1.39582,-0.12688z" fill="#ffffff" stroke="none" stroke-width="0.5" stroke-linecap="butt"/><path d="M34.63303,321.51061c-0.79285,-0.59464 -0.19821,-1.3875 -0.19821,-1.3875l0.36636,-0.47185c0.27429,-0.27427 0.54856,-0.54857 0.82283,-0.82284c5.50582,-5.48877 7.44978,-14.87287 -0.59192,-19.18052c0,0 -0.87261,-0.46988 -0.40273,-1.34248c0.46987,-0.8726 1.34246,-0.40275 1.34246,-0.40275c9.2072,4.98085 7.48693,15.87624 1.05379,22.32732c-0.27429,0.27427 -0.54856,0.54858 -0.82285,0.82285l-0.18222,0.25956c0,0 -0.59464,0.79286 -1.3875,0.19822z" fill="#ffffff" stroke="none" stroke-width="0.5" stroke-linecap="butt"/><path d="M37.81759,327.71228c-0.59464,-0.79285 0.19821,-1.3875 0.19821,-1.3875l0.78306,-0.45651c4.58008,-0.80324 7.07762,-5.15387 8.37489,-9.28984c1.82277,-6.35172 -0.26049,-19.86517 -8.03955,-21.40545c0,0 -0.96907,-0.20767 -0.76142,-1.17674c0.20767,-0.96907 1.17673,-0.7614 1.17673,-0.7614c8.95898,2.03006 11.69843,16.26727 9.52248,23.91412c-1.55657,4.90632 -4.54982,9.66517 -9.91855,10.66944l0.05163,0.09205c0,0 -0.79285,0.59464 -1.38749,-0.19821z" fill="#ffffff" stroke="none" stroke-width="0.5" stroke-linecap="butt"/><path d="M201.3416,218.17824c0,-12.13497 9.83734,-21.97231 21.97231,-21.97231c12.13497,0 21.97233,9.83734 21.97233,21.97231c0,12.13498 -9.83734,21.97233 -21.97233,21.97233c-12.13497,0 -21.97231,-9.83734 -21.97231,-21.97233z" fill="#830000" stroke="#000000" stroke-width="1" stroke-linecap="butt"/><path d="M228.20016,206.09305c-0.14094,0.84563 -0.98658,0.70471 -0.98658,0.70471l-0.55915,-0.09763c-4.21339,-1.15794 -11.62393,-2.10902 -15.95268,-1.09898c0,0 -0.83534,0.19277 -1.02811,-0.64257c-0.19277,-0.83536 0.64257,-1.02813 0.64257,-1.02813c4.58733,-1.04821 12.28566,-0.10442 16.78937,1.11547l0.38988,0.06054c0,0 0.84564,0.14094 0.7047,0.98658z" fill="#ffffff" stroke="none" stroke-width="0.5" stroke-linecap="butt"/><path d="M209.96802,209.74829c0,-0.8573 0.8573,-0.85731 0.8573,-0.85731h0.07908c2.49033,0.00773 4.93174,-0.10415 7.42581,0.31928c7.30982,0.01121 14.47683,2.38958 21.75733,2.36969c0,0 0.85731,0 0.85731,0.85731c0,0.8573 -0.85731,0.8573 -0.85731,0.8573c-7.33343,-0.01759 -14.54056,-2.38721 -21.89875,-2.37554c-2.44901,-0.40137 -4.83648,-0.32238 -7.28439,-0.31341h-0.07908c0,0 -0.8573,0 -0.8573,-0.8573z" fill="#ffffff" stroke="none" stroke-width="0.5" stroke-linecap="butt"/><path d="M211.35244,216.49719c0.02193,0.02193 0.04227,0.04386 0.06113,0.06576c1.5964,0.00048 3.18912,-0.00052 4.78967,-0.00052c3.98377,0.00168 7.86693,0.86824 11.83705,1.10887c4.03079,0.2443 8.18502,-0.24541 12.07128,0.9882c0,0 0.81652,0.26129 0.55523,1.0778c-0.26129,0.81651 -1.0778,0.55523 -1.0778,0.55523c-3.71283,-1.19867 -7.79464,-0.67597 -11.65484,-0.90991c-3.93333,-0.23838 -7.78554,-1.10731 -11.73092,-1.10558c-1.92991,0 -3.84609,-0.00136 -5.77334,0l-0.28987,-1.77985c0,0 0.60622,-0.60622 1.21242,0z" fill="#ffffff" stroke="none" stroke-width="0.5" stroke-linecap="butt"/><path d="M210.20528,223.114c0,-0.8573 0.8573,-0.85731 0.8573,-0.85731l0.30846,0.00297c5.71246,0.48069 11.52069,-0.42624 17.17204,0.64486c0,0 0.84215,0.16042 0.68175,1.00258c-0.1604,0.84216 -1.00258,0.68175 -1.00258,0.68175c-5.57527,-1.06755 -11.3494,-0.15442 -16.99358,-0.62052l-0.16608,0.00297c0,0 -0.8573,0 -0.8573,-0.8573z" fill="#ffffff" stroke="none" stroke-width="0.5" stroke-linecap="butt"/><path d="M223.46661,228.25467c0,0.8573 -0.8573,0.8573 -0.8573,0.8573h-0.31636c-3.73334,-0.00221 -7.49546,0.13489 -11.17273,-0.65172c0,0 -0.83829,-0.17962 -0.65865,-1.01789c0.17964,-0.83827 1.01791,-0.65865 1.01791,-0.65865c3.5537,0.7629 7.20446,0.61568 10.81347,0.61367h0.31636c0,0 0.8573,0 0.8573,0.85731z" fill="#ffffff" stroke="none" stroke-width="0.5" stroke-linecap="butt"/><path d="M234.89024,233.51966c0.2711,0.81331 -0.54221,1.0844 -0.54221,1.0844l-0.50836,0.12308c-7.19654,0 -16.12359,-0.19622 -23.06408,-1.92369c0,0 -0.83171,-0.20793 -0.62378,-1.03963c0.20793,-0.8317 1.03963,-0.62379 1.03963,-0.62379c6.79852,1.70765 15.59271,1.87249 22.64824,1.87249l-0.03385,-0.0351c0,0 0.81332,-0.2711 1.08442,0.54221z" fill="#ffffff" stroke="none" stroke-width="0.5" stroke-linecap="butt"/><path d="M198.23432,168.21399c0,-13.54766 10.98256,-24.53022 24.53022,-24.53022c13.54766,0 24.53024,10.98256 24.53024,24.53022c0,13.54768 -10.98256,24.53024 -24.53024,24.53024c-13.54766,0 -24.53022,-10.98256 -24.53022,-24.53024z" fill="#830000" stroke="#000000" stroke-width="1" stroke-linecap="butt"/><path d="M227.76885,149.25358c-3.2515,0.57132 -7.36153,1.05381 -9.97761,2.49368c-0.56933,0.31334 -0.01005,3.35394 0.01453,3.57794c0.31374,2.86081 0.83068,5.71718 1.01009,8.58613c0.47348,2.59246 0.87675,5.22035 0.97765,7.85142c0.03781,0.98572 -0.80297,2.33411 -0.03974,2.95907c0.27352,0.22396 2.51308,0.05565 2.79198,-0.36872c1.37285,-2.08896 2.09811,-9.11587 2.22439,-11.81825c0.53588,-4.50439 2.25929,-8.79379 2.99871,-13.28126zM229.84976,148.51517c-0.00764,0.07163 -0.0187,0.11588 -0.0187,0.11588l-0.06933,0.25639c-0.67045,4.67821 -2.54139,9.13398 -3.08399,13.80623c-0.14669,2.85951 -0.8992,10.52175 -2.54347,12.7275c-1.01783,1.36537 -4.6125,1.8154 -5.86085,0.51421c-1.36518,-1.42299 -0.96319,-9.61328 -1.35773,-11.79279c-0.22519,-3.60531 -2.1809,-8.85344 -1.2169,-12.34619c0.90121,-3.26523 10.18447,-4.05844 13.09151,-4.68657c0,0 0.93586,-0.20053 1.13641,0.73533c0.06164,0.28759 0.01594,0.50573 -0.07693,0.66997z" fill="#ffffff" stroke="none" stroke-width="0.5" stroke-linecap="butt"/><path d="M222.60482,179.3083c-1.11128,0.10053 -2.30827,0.15702 -2.86054,0.4649c-0.32907,0.18346 0.13805,4.28533 0.13811,4.42895c0.00025,0.51892 -0.48202,1.09082 -0.22331,1.54064c0.57629,1.00203 2.94062,0.82918 3.4619,-0.20256c0.59347,-1.17466 -0.31175,-4.6944 -0.45625,-6.01494c-0.01997,-0.07232 -0.03995,-0.14468 -0.05991,-0.217zM224.48808,178.95559c0.01899,0.07037 0.03798,0.14071 0.05697,0.2111c0.18053,1.60344 0.57111,3.57895 0.43079,5.18494c-0.22492,2.5745 -4.70353,5.18226 -6.96093,2.37145c-0.83311,-1.03735 -0.4303,-7.67284 0.62118,-8.51064c0.67111,-0.53474 2.44589,-0.58701 3.82567,-0.75342c0.10237,-0.26575 0.33761,-0.57113 0.87822,-0.57113c0.33238,0 0.54932,0.11543 0.69093,0.26611c0.29222,-0.01401 0.71657,0.07341 0.91678,0.63397c0.24695,0.69145 -0.22596,1.04191 -0.45962,1.16763z" fill="#ffffff" stroke="none" stroke-width="0.5" stroke-linecap="butt"/><path d="M461.8908,241.87583c-13.87818,0 -25.1287,-11.2505 -25.1287,-25.12868c0,-13.87818 11.25052,-25.12868 25.1287,-25.12868c13.87818,0 25.12868,11.2505 25.12868,25.12868c0,13.87818 -11.2505,25.12868 -25.12868,25.12868z" fill="#830000" stroke="#000000" stroke-width="1" stroke-linecap="butt"/><path d="M463.3908,294.92169c-13.87818,0 -25.1287,-11.2505 -25.1287,-25.12868c0,-13.87818 11.25052,-25.12868 25.1287,-25.12868c13.87818,0 25.12868,11.2505 25.12868,25.12868c0,13.87818 -11.2505,25.12868 -25.12868,25.12868z" fill="#830000" stroke="#000000" stroke-width="1" stroke-linecap="butt"/><path d="M485.26903,161.01743c0,14.32077 -11.60927,25.93003 -25.93001,25.93003c-14.32077,0 -25.93003,-11.60927 -25.93003,-25.93003c0,-14.32074 11.60929,-25.93 25.93003,-25.93c14.32077,0 25.93003,11.60926 25.93003,25.93z" fill="#00ddff" stroke="#000000" stroke-width="1" stroke-linecap="butt"/><path d="M437.20574,328.42435c0,-15.48343 12.55181,-28.03524 28.03526,-28.03524c15.48343,0 28.03526,12.55181 28.03526,28.03524c0,15.48345 -12.55181,28.03526 -28.03526,28.03526c-15.48343,0 -28.03524,-12.55181 -28.03524,-28.03526z" fill="#00ddff" stroke="#000000" stroke-width="1" stroke-linecap="butt"/><path d="M10.04186,255.43127c0,-12.12493 9.82921,-21.95414 21.95416,-21.95414c12.12493,0 21.95416,9.82921 21.95416,21.95414c0,12.12493 -9.82921,21.95414 -21.95416,21.95414c-12.12493,0 -21.95414,-9.82921 -21.95414,-21.95414z" fill="#830000" stroke="#000000" stroke-width="1" stroke-linecap="butt"/><path d="M16.91157,259.89761c0,-0.74477 0.64755,-0.84198 0.81661,-0.85468c0.06498,-0.0172 0.13036,-0.03438 0.19607,-0.05155c0.39246,-4.01228 1.01116,-8.0676 1.75724,-11.74262c-0.00445,-1.09488 -0.02849,-2.03624 0.25151,-3.09808l0.15057,-0.82812c0.06621,-0.40721 0.41954,-0.71805 0.84544,-0.71805c0.26681,0 0.50515,0.122 0.66225,0.31324l1.09257,1.31109l-0.05557,0.04632c0.01958,0.0235 0.02979,0.03808 0.02979,0.03808l0.5941,0.85466c0.10754,0.23132 0.21011,0.46326 0.30844,0.69581c2.3665,3.67699 3.27636,8.34291 4.74482,12.53673c0.05996,0.08945 0.10428,0.19923 0.11835,0.33346c0.17754,0.4934 0.36364,0.97962 0.56167,1.45626c1.09757,2.64178 2.84055,5.02762 3.29438,7.92039c0.10065,0.42751 0.2013,0.85502 0.30195,1.28254l0.30806,0.99954c0,0 0.04994,0.16231 0.03308,0.36462c0.09313,0.26717 0.18545,0.53441 0.27692,0.80174c0,0 0.27089,0.81263 -0.54174,1.08351c-0.81263,0.27089 -1.08353,-0.54174 -1.08353,-0.54174c-1.34408,-4.17347 -3.00439,-8.34235 -4.69562,-12.47526c-2.26867,-0.30243 -5.003,0.16623 -7.35384,0.72944c-0.22128,2.52014 -0.34718,5.00796 -0.34718,7.36581c0,0 0,0.8566 -0.85659,0.8566c-0.85659,0 -0.85659,-0.8566 -0.85659,-0.8566c0,-2.22377 0.10762,-4.57629 0.30164,-6.96657c-0.04331,-0.00058 -0.8548,-0.02284 -0.8548,-0.85658zM24.07579,252.76419c-0.11309,-0.33986 -0.22145,-0.67945 -0.32727,-1.01853c-0.95223,-2.05251 -1.78396,-4.11373 -2.31807,-6.20074l-0.00922,-0.01307c-0.05808,0.61212 -0.03255,1.21587 -0.0349,1.88571c-0.693,3.51398 -1.29048,7.33951 -1.68855,11.14427c2.0885,-0.46301 4.37518,-0.80594 6.45484,-0.70635c-0.70069,-1.70475 -1.39969,-3.4026 -2.07683,-5.09129z" fill="#ffffff" stroke="none" stroke-width="0.5" stroke-linecap="butt"/><path d="M30.18872,252.33528c-0.49789,-0.69703 0.19916,-1.19493 0.19916,-1.19493l0.91022,-0.543c1.46219,-0.2393 2.8553,-0.69487 4.26187,-1.13446c-1.04266,-1.09041 -2.13133,-2.12391 -3.30358,-3.03403c0,0 -0.67614,-0.5259 -0.15025,-1.20204c0.5259,-0.67616 1.20204,-0.15026 1.20204,-0.15026c1.31713,1.02619 2.53163,2.19747 3.69432,3.42952c1.31655,-1.50499 2.79362,-2.82541 4.69916,-3.62446c0,0 0.79208,-0.32616 1.11822,0.46592c0.32614,0.79208 -0.46592,1.11823 -0.46592,1.11823c-1.16048,0.46738 -2.15545,1.18668 -3.05106,2.04113c0.10574,-0.01682 0.2119,-0.03255 0.31853,-0.04709c0.8363,-0.1141 1.79852,0.34514 2.06695,-0.46107c0,0 0.44072,-0.73453 1.17523,-0.29381c0.73451,0.44072 0.29381,1.17523 0.29381,1.17523c-0.52071,0.7248 -2.17363,1.36204 -4.10809,1.88986c0.86754,0.98832 1.72227,1.98276 2.58788,2.94402l0.4848,0.7512c0,0 0.454,0.72639 -0.2724,1.18039c-0.72639,0.454 -1.18037,-0.2724 -1.18037,-0.2724l-0.30543,-0.51313c-1.06151,-1.18013 -2.10683,-2.41682 -3.18205,-3.62856c-0.09501,0.02143 -0.19006,0.04263 -0.28506,0.06353c-0.76809,1.01219 -1.50112,2.04545 -2.26616,2.98126l-0.1363,0.1423c0,0 -0.6057,0.6057 -1.2114,0c-0.60572,-0.6057 0,-1.21141 0,-1.21141l0.02176,-0.01575c0.37236,-0.45473 0.73557,-0.92243 1.09656,-1.39443c-1.16005,0.2147 -2.16994,0.37988 -2.82147,0.49018l-0.19609,0.2472c0,0 -0.69703,0.49789 -1.19493,-0.19916z" fill="#ffffff" stroke="none" stroke-width="0.5" stroke-linecap="butt"/><path d="M13.39571,211.19741c0,-10.69634 8.67111,-19.36745 19.36745,-19.36745c10.69634,0 19.36746,8.67111 19.36746,19.36745c0,10.69636 -8.67112,19.36746 -19.36746,19.36746c-10.69634,0 -19.36745,-8.6711 -19.36745,-19.36746z" fill="#00ddff" stroke="#000000" stroke-width="1" stroke-linecap="butt"/><path d="M34.91816,206.78305c-0.33794,-0.67589 0.33795,-1.01384 0.33795,-1.01384l0.35853,-0.17371c0.18178,-0.06536 0.36254,-0.12863 0.54258,-0.18981c0.21342,-2.07035 -0.66163,-6.74327 0.51717,-7.5897c0.71444,-0.51301 -1.61409,0.7056 -2.44905,0.98207c-1.79166,0.59326 -3.58312,0.3822 -5.40537,0.66256c-0.12739,-0.0911 1.88875,8.6066 0.82046,9.88474c-0.84455,1.01045 -4.41874,1.17136 -5.6278,1.26884c-0.73173,0.059 -1.77575,-0.74084 -2.19782,-0.14022c-0.16174,0.23016 0.04735,2.16499 0.03493,2.74137c0.00008,1.2576 0.73178,4.30533 -0.2611,5.08763c-0.64076,0.50485 1.53821,-0.59392 2.3485,-0.68816c0.9372,-0.10901 6.45524,-1.35561 7.15069,-0.49707c0.42999,0.53083 -0.31502,5.67208 -0.31502,6.66313c0,1.07857 -0.17917,2.26627 -0.15514,3.32801c0.00668,0.29513 0.55212,-0.2158 0.84042,-0.27933c1.11697,-0.24612 1.46589,-0.28144 2.49542,-0.42833c0.40424,-0.05767 4.55812,-0.48112 4.60648,-0.5562c1.54684,-2.40115 -0.70434,-7.95195 -0.72594,-10.63275c1.63539,-0.5491 3.51202,-0.89393 5.24909,-0.94734c0.98718,-0.03035 2.59306,1.02942 2.96079,0.11278c1.17191,-2.92119 -0.74912,-6.91742 0.05328,-10.0286c0.08846,-0.34301 -0.59207,0.40768 -0.92976,0.51464c-1.2201,0.38649 -2.48683,0.64245 -3.74455,0.86464c-1.428,0.17879 -2.71152,0.45111 -4.01519,0.85416c-0.12327,0.1959 -0.38146,0.45037 -0.85084,0.30594c-0.01284,-0.00396 -0.02542,-0.00807 -0.03768,-0.01233c-0.12877,0.04522 -0.25808,0.09177 -0.3881,0.13968l-0.19915,0.10514c0,0 -0.67588,0.33795 -1.01383,-0.33794zM37.80882,204.89976c1.09363,-0.29665 2.19844,-0.51725 3.38898,-0.66582c1.05132,-0.1853 5.32592,-1.9459 6.0612,-0.85147c0.37741,0.56175 -0.07371,3.36897 0.03913,4.29188c0.21924,1.79319 1.01965,6.12135 -0.12526,7.70824c-0.51386,0.7122 -7.43146,1.05998 -8.10252,0.69909c1.62324,1.31698 1.75515,9.47692 0.38944,10.97771c-0.52238,0.57404 -1.53354,0.2408 -2.30183,0.35099c-1.3698,0.19646 -6.87348,1.9677 -7.74133,0.6159c-0.41118,-0.64046 -0.15514,-3.44026 -0.15514,-4.24539c0,-0.57945 -0.23269,-4.97434 0.42902,-5.62629c-0.6114,0.17203 -2.23947,0.58356 -2.6086,0.61564c-1.5913,0.13832 -3.58562,0.83438 -5.1627,0.76716c-2.25309,-0.09606 -1.5808,-4.30929 -1.58069,-6.33858c0.02128,-0.95888 -0.19412,-3.25165 0.59263,-3.95089c1.33432,-1.18593 6.01644,0.53202 7.51083,-0.82332c0.56748,-0.51466 -0.2453,-1.51483 -0.29429,-2.27936c-0.1523,-2.37681 -2.26278,-7.68082 0.55706,-8.19156c1.66258,-0.25578 8.58594,-1.92327 9.29452,-0.86497c0.38645,0.5772 -0.23158,1.3739 -0.25596,2.0681c-0.06952,1.98011 0.29205,3.82876 0.06553,5.74292z" fill="#000000" stroke="none" stroke-width="0.5" stroke-linecap="butt"/><path d="M14.00264,169.87041c0,-10.62115 8.61015,-19.2313 19.23132,-19.2313c10.62115,0 19.23132,8.61015 19.23132,19.2313c0,10.62117 -8.61015,19.23132 -19.23132,19.23132c-10.62115,0 -19.2313,-8.61015 -19.2313,-19.23132z" fill="#00ddff" stroke="#000000" stroke-width="1" stroke-linecap="butt"/><path d="M36.9564,158.22065c0,-0.75036 0.75036,-0.75036 0.75036,-0.75036l0.01292,0.01921c1.48212,-0.33649 3.36211,-1.27925 4.90496,-0.98435c0.22605,0.0432 0.43665,0.14763 0.63012,0.29942c0.00749,-0.00022 0.01501,-0.00033 0.02254,-0.00033c0.29954,0 0.5581,0.17552 0.67841,0.42932l0.41657,0.83315l-0.18204,0.09102c0.11386,0.27284 0.20905,0.56397 0.28412,0.86124c0.27376,0.87311 0.38019,1.79185 0.63456,2.9028l-0.02081,0.058l0.02724,-0.0021l0.05992,0.77893c0.00188,0.02167 0.00284,0.0436 0.00284,0.06575c0,0.41441 -0.33595,0.75036 -0.75036,0.75036c-0.37663,0 -0.68845,-0.27748 -0.74218,-0.63917l-0.24017,-1.44101l0.00672,-0.00113c-0.08826,-0.32225 -0.18694,-0.68725 -0.2663,-1.05544c-0.03891,-0.12534 -0.07612,-0.25119 -0.11162,-0.37773c-0.60785,1.38246 -1.2149,2.75806 -1.81288,4.14628c2.45189,2.38827 3.21618,6.69126 -0.66974,8.33536c-0.99658,0.42164 -2.05213,0.3569 -3.10579,0.35639c-4.536,-0.50076 -6.17172,-5.89124 -3.20515,-8.59406c-0.05412,-0.39527 0.29323,-0.67315 0.29323,-0.67315c1.86351,-1.44806 3.85272,-1.30928 5.46087,-0.36596c0.759,-1.751 1.52777,-3.48868 2.29662,-5.24348l0.02047,-0.0614c-0.95834,0.12201 -3.89657,0.90038 -4.29467,0.99353l-0.35037,0.01921c0,0 -0.75036,0 -0.75036,-0.75036zM40.0148,165.20746c-0.26253,-0.11251 -0.38231,-0.28213 -0.42995,-0.44909c-0.62082,-0.45731 -1.33735,-0.74039 -2.07843,-0.73643c-0.12235,0.26957 -0.40315,0.39438 -0.40315,0.39438l-0.59732,0.26315c-3.67352,1.18852 -2.56424,6.36079 1.0585,6.71818c5.05553,-0.00273 4.66342,-4.04171 2.59416,-6.14082c-0.04589,-0.0117 -0.09381,-0.02796 -0.1438,-0.04939z" fill="#000000" stroke="none" stroke-width="0.5" stroke-linecap="butt"/><path d="M30.85818,175.17445c0,0.75036 -0.75036,0.75036 -0.75036,0.75036l-0.47376,-0.00167c-1.22861,-0.08248 -2.45494,-0.07403 -3.68038,-0.02111c0,1.74551 0,3.491 0,5.23651v0.75687c0,0 0,0.75036 -0.75036,0.75036c-0.75036,0 -0.75036,-0.75036 -0.75036,-0.75036c0,-1.79563 0,-3.89155 0,-5.90947c-1.06347,0.07076 -2.12666,0.16074 -3.19047,0.23954c0,0 -0.7483,0.05544 -0.80374,-0.69288c-0.05544,-0.7483 0.69288,-0.80374 0.69288,-0.80374c1.10116,-0.08156 2.20116,-0.17339 3.30133,-0.24468c0,-0.47792 0,-0.94548 0,-1.39716c-0.53489,-0.01618 -1.07292,-0.06992 -1.60627,-0.13516c-4.57889,-1.70041 -3.89327,-6.43314 -0.70336,-8.44459c-0.01507,-0.0261 -0.02952,-0.054 -0.04328,-0.08379c-0.31444,-0.68129 0.36685,-0.99574 0.36685,-0.99574c5.08278,-2.21492 10.66919,5.41737 5.70249,8.74862c-0.69905,0.46887 -1.44595,0.71904 -2.21571,0.83405c0,0.46407 0,0.92813 0,1.3922c1.25833,-0.05284 2.51772,-0.06049 3.78021,0.02311l0.37394,-0.00167c0,0 0.75036,0 0.75036,0.75036zM25.74765,164.73086c-0.19643,0.37077 -0.66542,0.37077 -0.66542,0.37077l-0.06355,-0.00221c-3.56185,0.27212 -5.94622,4.82622 -1.81826,6.39405c1.42319,0.15924 2.8377,0.25024 4.12298,-0.55659c2.5664,-1.61105 0.88314,-5.20271 -1.57575,-6.20601z" fill="#000000" stroke="none" stroke-width="0.5" stroke-linecap="butt"/><path d="M471.51124,209.58405c-0.00022,0.20929 -0.15713,0.3662 -0.15713,0.3662c-2.06045,2.06045 -4.28493,3.22918 -6.5497,4.95283c-0.2779,0.2115 0.63372,0.29367 0.95014,0.44145c0.74276,0.34692 1.55492,0.62292 2.37175,0.66894c0.33462,-0.038 0.66871,-0.0812 1.00253,-0.12904c1.29247,-0.98645 3.61449,-2.25366 4.16941,-3.768c0.24765,-0.67584 -0.20393,-2.80911 -0.62034,-3.44017c-0.09561,0.01562 -0.19141,0.03065 -0.28736,0.04515c-0.14433,0.1885 -0.30341,0.52327 -0.4659,0.6492c-0.01451,0.01124 -0.19988,0.10583 -0.41338,0.21344zM470.04967,209.83481c-0.18855,-0.31116 0.09196,-0.59166 0.09196,-0.59166l0.25629,-0.22c0.03912,-0.01956 0.07923,-0.04164 0.12024,-0.06585c-0.36465,0.04096 -0.72823,0.08129 -1.08884,0.12499c-1.66227,0.20147 -3.2887,0.87956 -4.97366,0.88745c-5.87635,0.59129 -11.9042,0.24189 -17.7193,1.34985c0.30568,0.64576 0.62914,1.24811 0.89936,1.76358c0.63291,1.20734 1.22091,2.50371 1.95693,3.68856c1.25515,-0.07206 2.46646,-0.25661 3.66631,-0.45283c-1.1694,-1.17769 -1.58685,-4.85644 -0.00743,-5.44966c0.82996,0.00662 1.5327,0.36712 2.16578,0.85794c1.71376,0.459 3.7426,1.19493 5.25769,1.94268l0.45563,0.11391c0.22266,0.05053 0.38888,0.24966 0.38888,0.48761c0,0.17631 -0.09125,0.3313 -0.2291,0.42033l-0.7516,0.50107l-0.04098,-0.06147c-0.30566,0.24434 -0.59777,0.43678 -0.89069,0.58971c0.49856,0.02777 1.0042,0.08133 1.51892,0.16694c1.24994,0.20868 2.47295,0.30443 3.67963,0.31199c-0.62823,-0.31318 -1.04425,-0.73806 -1.00127,-1.29684c0.06542,-0.8506 1.68269,-1.45697 2.25672,-1.81391c1.51238,-0.94043 2.74213,-2.03442 3.98855,-3.25436zM474.26194,212.38336c-0.36502,1.15857 -1.59424,2.21183 -2.82733,3.10323c0.98095,-0.19481 1.96422,-0.41865 2.95586,-0.65741c0.49906,-0.67808 0.96678,-1.38535 1.36862,-2.24705c0.86982,-1.74224 1.4905,-3.6174 1.39852,-5.54365c-1.03817,0.73956 -2.21107,1.16355 -3.43897,1.43851c0.54462,1.14052 0.75618,3.23067 0.54329,3.90638zM469.43585,216.87564c-0.15755,0.03354 -0.38404,0.05439 -0.65669,0.0605c-2.5511,0.33087 -5.12341,0.38646 -7.81751,-0.06181c-3.78043,-0.63145 -7.09007,0.5246 -10.72196,0.84842c0.2573,0.34252 0.53383,0.66909 0.83529,0.97379c2.58074,2.60851 5.41663,4.36831 7.4408,7.55225c1.17744,1.46925 2.19055,3.05148 3.36565,4.5199c0.28612,0.35754 0.25649,1.11299 0.71006,1.17605c0.24731,0.03438 0.45194,-0.06665 0.63659,-0.23416c-0.1007,-0.39575 0.22129,-0.71774 0.22129,-0.71774c4.02562,-4.02562 6.03261,-9.20166 9.20653,-13.83632c0.26174,-0.38221 0.52524,-0.73714 0.78623,-1.08022c-1.32364,0.30035 -2.63659,0.56443 -3.95272,0.76072c-0.01803,0.01294 -0.03589,0.02581 -0.05357,0.03862zM454.45655,212.22703c-0.34566,-0.22293 -0.71012,-0.3709 -1.08283,-0.36528c-0.47553,-0.17162 0.45783,3.43909 0.67149,3.82486c0.2715,0.4902 1.09969,-0.23707 1.65897,-0.27186c0.84703,-0.05269 1.84231,0.17386 2.67318,0.01255c0.6955,-0.13503 1.08979,-0.70809 1.6725,-0.95688c-0.91386,-0.44052 -2.00267,-0.87089 -3.07903,-1.23274c0.00024,0.00753 0.00036,0.01518 0.00036,0.02295c0,0.5 -0.5,0.5 -0.5,0.5l-0.4799,-0.14645c-0.28481,-0.28481 -0.61613,-0.6426 -0.97882,-0.96053c-0.06005,-0.0154 -0.11962,-0.03042 -0.17866,-0.04503c0,0 -0.32853,-0.08213 -0.37726,-0.38159zM447.75892,217.30359c0,-0.18792 0.07063,-0.30521 0.15879,-0.37842c-0.5882,-1.03049 -1.10389,-2.10787 -1.64605,-3.14369c-1.26316,-2.41333 -2.73976,-5.44045 -1.73897,-8.15895c2.84202,-4.11448 8.70793,-6.06061 13.45942,-4.12731c1.23918,0.5042 3.48163,2.05871 4.54483,3.74978c0.2251,-1.33912 0.67635,-2.56953 1.44979,-3.92365c1.33533,-1.08718 2.96165,-2.3315 4.73068,-2.58645c3.74349,-0.53951 8.67243,2.66018 9.66094,6.26265c0.78359,2.85567 0.03561,5.68424 -1.23895,8.25017c-0.20729,0.44388 -0.43172,0.8504 -0.66868,1.23439c0.08328,0.05532 0.15696,0.14777 0.19495,0.29971c0.12127,0.48507 -0.3638,0.60634 -0.3638,0.60634c-0.17724,0.04426 -0.35412,0.08828 -0.53067,0.13199c-0.59458,0.82217 -1.23319,1.59833 -1.85846,2.5131c-2.86569,4.19252 -4.80662,8.7832 -8.07878,12.6304c0.04363,0.35853 -0.23617,0.63834 -0.23617,0.63834l-0.3618,0.35343c-0.58447,0.45445 -2.14315,1.91664 -2.94289,1.7924c-0.1244,-0.01932 -1.45224,-1.52677 -1.61323,-1.72807c-1.19025,-1.48826 -2.22014,-3.0891 -3.41062,-4.57965c-1.97914,-3.10709 -4.76293,-4.79432 -7.27337,-7.35553c-0.59074,-0.60269 -1.09505,-1.27357 -1.54836,-1.98097h-0.18859c0,0 -0.5,0 -0.5,-0.5zM446.44086,210.36256c5.21107,-1.06352 10.64518,-0.8695 15.95996,-1.22652c-0.03252,-0.04518 -0.06024,-0.09405 -0.08241,-0.14585l-0.47683,-1.04903l0.2327,-0.10577c-0.80328,-1.44932 -1.50106,-3.07829 -2.78084,-3.93904c-4.23294,-2.84697 -10.50324,-1.70202 -13.40368,2.438c-0.46269,1.19474 -0.12486,2.65724 0.42559,4.02769c0.04184,0.00017 0.08368,0.00035 0.12552,0.00052zM464.40584,208.97098c1.65347,0.00868 3.26963,-0.68138 4.90252,-0.88135c2.63661,-0.32289 5.61169,-0.38162 7.70672,-2.20308c-0.03205,-0.15848 -0.06946,-0.31719 -0.11246,-0.4761c-0.77694,-2.87064 -4.96375,-5.58285 -7.95735,-5.1602c-1.37648,0.19434 -2.73213,1.23591 -3.78805,2.06013c-0.98855,1.85272 -1.27027,3.37956 -1.27205,5.44867l-0.01607,0.03675l0.01322,0.00132l-0.09596,0.95961c-0.00875,0.09982 -0.03665,0.19414 -0.07998,0.27929c0.23345,-0.02027 0.46662,-0.0419 0.69947,-0.06505z" fill="#ffffff" stroke="none" stroke-width="0.5" stroke-linecap="butt"/><path d="M476.36829,255.98181c-5.59474,0.09999 -11.18809,0.82545 -14.23896,-4.82454c-0.10825,0.61933 -0.52144,1.14955 -0.9199,1.80207c-2.33597,3.82536 -6.23245,3.40347 -10.36872,3.39177c-0.3613,-0.00102 -2.39666,-0.50249 -2.60773,-0.44084c-0.29299,0.08558 0.07223,2.89871 0.07235,3.20169c0.49635,6.93794 -1.8185,18.00431 5.93446,21.86153c2.32299,1.45001 4.38716,3.22047 6.92601,4.34495c0.84806,0.37561 1.78142,1.89476 2.4726,1.27625c0.87564,-0.78358 1.43859,-2.43051 2.13594,-3.3868c2.25343,-3.09021 4.86463,-6.21256 7.30771,-9.15082c3.24158,-3.87733 3.93239,-7.6362 4.68646,-12.50623c0.15978,-1.03191 0.66105,-4.79052 -0.34926,-4.84957l-0.48123,-0.11988c0,0 -0.51261,-0.12815 -0.56974,-0.59959zM478.11035,255.37993c1.82174,0.89127 1.27792,2.83597 1.27568,4.76949c-0.00628,5.4276 -1.6997,10.71317 -5.15165,14.86792c-2.42669,2.90508 -5.01581,6.00988 -7.24708,9.07299c-0.78318,1.07516 -1.64842,3.37038 -2.91776,3.94106c-0.67769,0.30468 -2.11465,-0.84159 -2.54181,-1.0438c-2.89201,-1.36905 -5.32513,-3.01823 -8.02168,-4.70581c-8.4132,-4.2264 -6.15677,-15.50241 -6.69977,-23.11636c0.00055,-1.3672 -0.76006,-3.77543 0.8304,-4.63154c0.4672,-0.25148 1.6814,0.26616 2.15858,0.32284c2.39556,0.28454 6.36459,0.33836 8.57289,-0.57216c0.99683,-0.41101 1.9126,-2.27302 2.63653,-3.80252l-0.13639,-0.04546l0.37356,-1.12067c0.09425,-0.30647 0.3796,-0.52924 0.71698,-0.52924c0.25521,0 0.48064,0.12747 0.61611,0.32221l0.6259,0.87626l-0.01259,0.00899l0.04482,0.04008c2.91149,5.80864 8.62003,4.43787 14.13953,4.43787c0,0 0.75,0 0.75,0.75c0,0.05682 -0.0043,0.10933 -0.01226,0.15786z" fill="#ffffff" stroke="none" stroke-width="0.5" stroke-linecap="butt"/><path d="M464.88299,259.0029c-2.38299,-1.43622 -5.02902,-1.32621 -7.12187,0.70771c-0.33839,0.32886 0.12275,0.93677 0.14556,1.40808c0.10197,2.10727 0.00115,4.24761 0.00115,6.35859c0,3.65258 0.02463,6.783 1.45902,10.19941c0.2001,0.47659 0.47548,0.92261 0.63854,1.41311c0.11143,0.33518 -0.07217,1.21354 0.23198,1.03395c0.34155,-0.20168 0.74394,-1.67421 0.90031,-2.06341c0.88476,-2.20205 2.06737,-4.25226 2.97993,-6.44439c1.156,-2.77367 2.53172,-5.76168 2.52394,-8.81334c-0.00189,-0.74338 0.45019,-2.92022 -0.38088,-2.67093l-0.87509,-0.28149c0,0 -0.64337,-0.21446 -0.50261,-0.8473zM466.63691,258.67026c1.77954,0.28645 1.50465,1.68803 1.50465,3.24796c0,3.66577 -1.24024,6.91598 -2.63933,10.27466c-1.03449,2.4806 -2.26212,4.88313 -3.36139,7.33427c-0.30656,0.68357 -0.68392,2.03417 -1.74544,2.08825c-1.74386,0.08885 -1.93442,-2.22628 -2.41437,-3.36469c-1.51531,-3.59419 -1.5732,-6.93329 -1.5732,-10.77343c0,-2.08352 0.09981,-4.1957 0.00115,-6.27564c-0.03527,-0.74356 -0.35309,-1.67133 0.14556,-2.38219c2.26867,-3.23413 6.98932,-2.63852 9.75685,-0.67009c0,0 0.28128,0.20091 0.32553,0.5209z" fill="#ffffff" stroke="none" stroke-width="0.5" stroke-linecap="butt"/><path d="M450.14031,174.99416l2.92486,-22.79375l-5.14372,-0.706l9.58144,-13.31316l9.98487,14.32173l12.40545,0.30257l-4.94201,3.32829l-2.31972,21.78517" fill="none" stroke="#000000" stroke-width="1.5" stroke-linecap="round"/><path d="M433.49885,161.681l2.31972,-1.21029l1.71457,-8.2703l12.80888,3.93343l-0.50429,1.91629l-1.81543,-0.30257l3.42915,9.48058" fill="none" stroke="#000000" stroke-width="1.5" stroke-linecap="round"/><path d="M443.48256,324.42094c4.63627,0.00743 8.95229,1.21451 13.56066,-0.00912c-1.09316,-3.30513 1.10955,-8.4026 3.48726,-10.18841c0.61837,-0.26574 1.30935,-0.44817 2.03812,-0.54836c-1.17189,-0.19094 -2.33587,-0.37864 -3.48599,-0.5431c-5.19699,-1.03773 -10.48971,0.09482 -14.26818,3.87493c-1.77375,2.20434 -2.39544,4.74763 -2.5747,7.38945c0.40114,-0.0917 0.74946,-0.07407 1.24283,0.0246zM443.38402,325.41607c-0.52617,-0.10523 -0.73374,-0.1482 -1.19385,0.03312c-0.0641,2.28723 0.1288,4.62367 0.1294,6.85711c-0.00313,1.66883 0.56166,3.31871 1.08428,4.88628c0.08033,0.24094 0.36362,1.73924 0.69184,1.80025c2.18766,0.40666 4.7722,0.0752 7.00275,0.0752c6.45163,0 12.89706,-0.80686 19.3646,-0.80686c4.67509,0 9.34691,0.15066 14.03004,0.19157c-0.09565,-0.39789 0.30772,-0.55924 0.30772,-0.55924l0.38584,-0.13433c0.86237,-1.28402 2.03538,-2.73381 2.37678,-4.2519c0.78831,-1.43393 1.37689,-3.66047 1.59893,-6.02591c-2.40344,-0.42753 -2.68453,-0.81334 -5.15216,0.38741c-4.55628,1.13801 -8.69577,1.47713 -12.67147,-1.26944c-0.22645,0.63156 -0.50539,1.24328 -0.84817,1.8254c-0.64788,1.10027 -1.43908,0.78001 -1.85108,1.57593l0.63405,-0.20503c0.59442,0 1.6222,-0.52842 2.14822,-0.06172c1.10612,0.98139 -0.07111,4.88036 -1.0741,5.60341c-0.89823,0.64752 -1.99798,-0.56481 -2.13853,0.67176c-0.8249,1.39618 -3.08615,2.86876 -4.75825,1.97206c-0.75008,-0.40225 -1.07225,-1.76904 -1.69073,-2.30647c-0.14924,-0.12968 -1.35187,-0.0121 -1.57822,-0.05337c-1.77462,-0.32357 -2.31447,-1.56123 -2.32173,-3.21412c0,-0.5037 -0.14086,-1.46918 0.2473,-1.86641c0.28891,-0.29565 0.99813,-0.39847 1.67211,-0.43324l0.04966,-0.14282c0.07194,-0.14364 0.79915,-1.46272 0.73021,-1.52695c-0.77754,-0.72449 -1.6056,-1.25125 -2.25027,-2.13189c-0.34169,-0.28147 -0.62063,-0.60905 -0.84297,-0.97269c-4.80341,1.32906 -9.25978,0.07495 -14.08219,0.08291zM490.22679,327.03651c0,0.07115 -0.01013,0.13218 -0.02749,0.18452c-0.18493,2.58518 -0.80222,5.04188 -1.70099,6.64119c-0.34815,1.58696 -1.61162,3.30829 -2.63094,4.59912c0.27786,0.00101 0.55576,0.00154 0.83371,0.00154c0,0 0.5,0 0.5,0.5c0,0.5 -0.5,0.5 -0.5,0.5c-5.42327,0 -10.82868,-0.20171 -16.23802,-0.20171c-6.46758,0 -12.9127,0.80686 -19.3646,0.80686c-2.04732,0 -5.3995,0.61434 -7.31898,-0.12652c-1.7434,-0.6729 -2.45711,-5.99691 -2.45989,-7.63521c0.00153,-5.49176 -0.96126,-11.30627 2.74973,-15.96634c4.01995,-4.0184 9.64322,-5.30335 15.18214,-4.19365c4.90943,0.70067 10.03347,1.79949 14.98321,1.81061c4.6155,0.90767 10.28637,-1.11882 13.55392,3.40189c1.97961,2.00479 2.64577,5.88945 2.42971,9.57049c0.00551,0.0329 0.0085,0.06856 0.0085,0.10721zM470.47604,325.31216c0.05705,-0.07131 0.1167,-0.11918 0.17611,-0.14979c0.45726,-1.68867 0.62677,-3.40512 0.62204,-5.25295c0.10075,-4.6713 -6.86036,-6.2648 -10.24319,-4.82029c-2.21715,1.65899 -5.03306,8.56106 -2.01471,10.5096c1.50764,1.974 2.90788,2.15117 1.85938,4.4928c0.03782,0.00014 0.0735,0.00023 0.10678,0.00019c1.4824,-0.00187 2.96219,-0.0018 4.44201,-0.0013c0,-2.37253 0,-4.74506 0,-7.11759l-0.30686,0.15117c-2.20265,-0.00819 -3.417,0.21316 -3.42467,-2.2007c-0.00149,-0.47015 -0.40695,-0.83245 0.01228,-1.33944c0.58435,-0.70667 3.37085,-0.28386 4.21925,-0.28386c0.17365,0 0.28699,0.06031 0.36097,0.13903c0.07873,0.07398 0.13903,0.18732 0.13903,0.36097c0,3.30452 0,6.96548 0,10.29081c0.37366,0.00016 0.74735,0.00032 1.12113,0.00046c0.4227,-1.36431 1.55259,-1.06042 2.08308,-2.17368c0.3243,-0.68055 0.59184,-1.35644 0.81005,-2.03445c-0.0834,-0.12718 -0.15164,-0.33479 0.03731,-0.57098zM483.66708,326.92947c2.44298,-1.20555 3.22584,-0.86469 5.56664,-0.4504c0.16057,-3.31385 -0.42756,-6.71822 -2.20816,-8.47389c-2.9703,-4.21313 -8.63122,-2.21588 -12.88784,-3.05298c-1.87419,0.00464 -3.77883,-0.15362 -5.68873,-0.39029c2.15564,1.01339 3.78746,2.80679 3.8252,5.34751c-0.00432,1.86442 -0.12421,3.83518 -0.62219,5.68624c3.77855,2.75312 7.68341,2.41773 12.01507,1.33381zM462.47856,320.21785c-0.16408,0.17088 0.21461,0.44081 0.21399,0.67771c-0.00433,1.67699 0.49691,1.23689 2.42505,1.22845l0.02522,-0.11774c0,0 0.12395,-0.08263 0.28164,-0.09003c0,-0.5484 0,-1.09681 0,-1.64521c-0.94722,-0.07041 -2.77418,-0.232 -2.94591,-0.05317zM470.05326,330.53742c0.00136,0.01741 0.00207,0.03551 0.00207,0.05431c0,0.5 -0.5,0.5 -0.5,0.5c-0.51226,0 -1.02431,-0.00007 -1.5362,-0.00016c-0.03356,0.00336 -0.06974,0.00356 -0.10873,-0.00002c-2.04123,-0.00038 -4.08014,-0.00114 -6.12108,0.00018c-0.53061,0.00034 -2.62823,-0.14534 -2.97474,0.15613c-0.02847,0.02477 0.04559,1.08912 0.04559,1.15931c-0.01579,2.95244 1.744,1.24056 3.36177,2.38051c1.90847,1.3448 1.27135,3.15617 3.86906,1.86878c0.62335,-0.30892 0.82891,-0.42334 1.17969,-0.9929c0.41246,-1.99883 1.58308,-0.37883 2.5009,-1.14367c0.92185,-0.76819 1.11656,-3.06334 0.94304,-4.07889c-0.04469,-0.26157 -0.33826,-0.08578 -0.66137,0.09642z" fill="#000000" stroke="none" stroke-width="0.5" stroke-linecap="butt"/><text transform="translate(55.08203,154.85388) scale(0.23267,0.23267)" font-size="40" xml:space="preserve" fill="#000000" fill-rule="nonzero" stroke="none" stroke-width="1" stroke-linecap="butt" stroke-linejoin="miter" stroke-miterlimit="10" stroke-dasharray="" stroke-dashoffset="0" font-family="&quot;SagoMiniRounded-Bold_v2&quot;, Sans Serif" font-weight="normal" text-anchor="start" style="mix-blend-mode: normal"><tspan x="0" dy="0">Xin is attractive on Hot or Sexy.</tspan><tspan x="0" dy="48px">This information is not shareable</tspan><tspan x="0" dy="48px">This action Hides in school</tspan></text><text transform="translate(55.08203,205.55156) scale(0.23267,0.23267)" font-size="40" xml:space="preserve" fill="#000000" fill-rule="nonzero" stroke="none" stroke-width="1" stroke-linecap="butt" stroke-linejoin="miter" stroke-miterlimit="10" stroke-dasharray="" stroke-dashoffset="0" font-family="&quot;SagoMiniRounded-Bold_v2&quot;, Sans Serif" font-weight="normal" text-anchor="start" style="mix-blend-mode: normal"><tspan x="0" dy="0">Xin has a relationship on people </tspan><tspan x="0" dy="48px">that has Loving or Charming Xin</tspan></text><text transform="translate(56.47738,251.13295) scale(0.23267,0.23267)" font-size="40" xml:space="preserve" fill="#000000" fill-rule="nonzero" stroke="none" stroke-width="1" stroke-linecap="butt" stroke-linejoin="miter" stroke-miterlimit="10" stroke-dasharray="" stroke-dashoffset="0" font-family="&quot;SagoMiniRounded-Bold_v2&quot;, Sans Serif" font-weight="normal" text-anchor="start" style="mix-blend-mode: normal"><tspan x="0" dy="0">Xin has hates on people that has</tspan><tspan x="0" dy="48px"> does Word hurting</tspan></text><text transform="translate(61.12854,306.94691) scale(0.23267,0.23267)" font-size="40" xml:space="preserve" fill="#000000" fill-rule="nonzero" stroke="none" stroke-width="1" stroke-linecap="butt" stroke-linejoin="miter" stroke-miterlimit="10" stroke-dasharray="" stroke-dashoffset="0" font-family="&quot;SagoMiniRounded-Bold_v2&quot;, Sans Serif" font-weight="normal" text-anchor="start" style="mix-blend-mode: normal"><tspan x="0" dy="0">Xin has hates on people that has</tspan><tspan x="0" dy="48px">extreme sound sensitive</tspan></text><text transform="translate(255.08203,162.93527) scale(0.27628,0.27628)" font-size="40" xml:space="preserve" fill="#000000" fill-rule="nonzero" stroke="none" stroke-width="1" stroke-linecap="butt" stroke-linejoin="miter" stroke-miterlimit="10" stroke-dasharray="" stroke-dashoffset="0" font-family="&quot;SagoMiniRounded-Bold_v2&quot;, Sans Serif" font-weight="normal" text-anchor="start" style="mix-blend-mode: normal"><tspan x="0" dy="0">Xin has really bad feeling on people</tspan><tspan x="0" dy="48px">that has not trustworthy</tspan></text><text transform="translate(254.61692,215.43528) scale(0.26174,0.26174)" font-size="40" xml:space="preserve" fill="#000000" fill-rule="nonzero" stroke="none" stroke-width="1" stroke-linecap="butt" stroke-linejoin="miter" stroke-miterlimit="10" stroke-dasharray="" stroke-dashoffset="0" font-family="&quot;SagoMiniRounded-Bold_v2&quot;, Sans Serif" font-weight="normal" text-anchor="start" style="mix-blend-mode: normal"><tspan x="0" dy="0">Xin has hates on people if they are </tspan><tspan x="0" dy="48px">using him as the faulty blame</tspan></text><text transform="translate(250.43087,257.74105) scale(0.27411,0.27411)" font-size="40" xml:space="preserve" fill="#000000" fill-rule="nonzero" stroke="none" stroke-width="1" stroke-linecap="butt" stroke-linejoin="miter" stroke-miterlimit="10" stroke-dasharray="" stroke-dashoffset="0" font-family="&quot;SagoMiniRounded-Bold_v2&quot;, Sans Serif" font-weight="normal" text-anchor="start" style="mix-blend-mode: normal"><tspan x="0" dy="0">Xin has hates on people if they are </tspan><tspan x="0" dy="48px">too sensitive with thier</tspan><tspan x="0" dy="48px"> house Showing Up</tspan></text><text transform="translate(253.22157,319.1364) scale(0.27411,0.27411)" font-size="40" xml:space="preserve" fill="#000000" fill-rule="nonzero" stroke="none" stroke-width="1" stroke-linecap="butt" stroke-linejoin="miter" stroke-miterlimit="10" stroke-dasharray="" stroke-dashoffset="0" font-family="&quot;SagoMiniRounded-Bold_v2&quot;, Sans Serif" font-weight="normal" text-anchor="start" style="mix-blend-mode: normal"><tspan x="0" dy="0">Xin has  bad feeling on a person if </tspan><tspan x="0" dy="48px">they have extreme policy sensitivity.</tspan></text><text transform="translate(490.09065,151.69454) scale(0.27411,0.27411)" font-size="40" xml:space="preserve" fill="#000000" fill-rule="nonzero" stroke="none" stroke-width="1" stroke-linecap="butt" stroke-linejoin="miter" stroke-miterlimit="10" stroke-dasharray="" stroke-dashoffset="0" font-family="&quot;SagoMiniRounded-Bold_v2&quot;, Sans Serif" font-weight="normal" text-anchor="start" style="mix-blend-mode: normal"><tspan x="0" dy="0">Xin is extremely fond of the houses</tspan></text><text transform="translate(490.55577,207.50849) scale(0.27411,0.27411)" font-size="40" xml:space="preserve" fill="#000000" fill-rule="nonzero" stroke="none" stroke-width="1" stroke-linecap="butt" stroke-linejoin="miter" stroke-miterlimit="10" stroke-dasharray="" stroke-dashoffset="0" font-family="&quot;SagoMiniRounded-Bold_v2&quot;, Sans Serif" font-weight="normal" text-anchor="start" style="mix-blend-mode: normal"><tspan x="0" dy="0">Xin has hates on person if they are a friendship Griefer</tspan></text><text transform="translate(491.02088,263.78756) scale(0.27411,0.27411)" font-size="40" xml:space="preserve" fill="#000000" fill-rule="nonzero" stroke="none" stroke-width="1" stroke-linecap="butt" stroke-linejoin="miter" stroke-miterlimit="10" stroke-dasharray="" stroke-dashoffset="0" font-family="&quot;SagoMiniRounded-Bold_v2&quot;, Sans Serif" font-weight="normal" text-anchor="start" style="mix-blend-mode: normal"><tspan x="0" dy="0">Xin has hates on people that are unsafe</tspan></text><text transform="translate(496.60228,317.27594) scale(0.27411,0.27411)" font-size="40" xml:space="preserve" fill="#000000" fill-rule="nonzero" stroke="none" stroke-width="1" stroke-linecap="butt" stroke-linejoin="miter" stroke-miterlimit="10" stroke-dasharray="" stroke-dashoffset="0" font-family="&quot;SagoMiniRounded-Bold_v2&quot;, Sans Serif" font-weight="normal" text-anchor="start" style="mix-blend-mode: normal"><tspan x="0" dy="0">Xin is pleased when more Smart people around him</tspan><tspan x="0" dy="48px">Supporting him</tspan></text></g></g></svg>